<?xml version="1.0" encoding="utf-8"?>
<!-- Generator: Adobe Illustrator 24.3.0, SVG Export Plug-In . SVG Version: 6.00 Build 0)  -->
<svg version="1.1" id="Capa_1" xmlns="http://www.w3.org/2000/svg" xmlns:xlink="http://www.w3.org/1999/xlink" x="0px" y="0px"
	 viewBox="0 0 463 457" style="enable-background:new 0 0 463 457;" xml:space="preserve">
<path d="M308.7,425.4c-4.5-1.9-8.8-4.1-12.4-7.7C239,360.3,181.7,303,124.4,245.7c-1.8-1.8-3.5-3.7-4.8-5.9
	c-5.4-9.4-3.5-19.4,5.2-28.1c57-56.9,113.9-113.9,170.8-170.6c1.2-1.2,2.4-2.4,3.7-3.4c7-5.7,16.3-6.9,23.9-2
	c8.4,5.5,15.6,12.6,21,21c5.8,8.9,3.5,18.8-5,27.3c-47.3,47.3-94.7,94.7-142.1,142c-2.5,2.5-2.4,3.7,0,6.1
	c47.1,47,94.2,94.1,141.3,141.2c1.5,1.5,2.9,2.9,4.2,4.5c5.9,7.2,6.7,18.5,0.7,25.5c-7.5,8.7-14.6,18.1-26.2,22.1
	C314.3,425.4,311.5,425.4,308.7,425.4z"/>
</svg>
