<?xml version="1.0" encoding="utf-8"?>
<!-- Generator: Adobe Illustrator 24.3.0, SVG Export Plug-In . SVG Version: 6.00 Build 0)  -->
<svg version="1.1" id="Capa_1" xmlns="http://www.w3.org/2000/svg" xmlns:xlink="http://www.w3.org/1999/xlink" x="0px" y="0px"
	 viewBox="0 0 463 457" style="enable-background:new 0 0 463 457;" xml:space="preserve">
<path d="M146.9,425.4c-11.6-4-18.7-13.4-26.2-22.1c-6-7-5.2-18.3,0.7-25.5c1.3-1.6,2.7-3,4.2-4.5c47.1-47.1,94.2-94.2,141.3-141.2
	c2.4-2.4,2.5-3.6,0-6.1c-47.4-47.3-94.8-94.7-142.1-142c-8.5-8.5-10.8-18.4-5-27.3c5.4-8.4,12.6-15.5,21-21c7.6-4.9,16.9-3.7,23.9,2
	c1.3,1,2.5,2.2,3.7,3.4c56.9,56.7,113.8,113.7,170.8,170.6c8.7,8.7,10.6,18.7,5.2,28.1c-1.3,2.2-3,4.1-4.8,5.9
	C282.3,303,225,360.3,167.7,417.7c-3.6,3.6-7.9,5.8-12.4,7.7C152.5,425.4,149.7,425.4,146.9,425.4z"/>
</svg>
