<svg id="Capa_1" data-name="Capa 1" xmlns="http://www.w3.org/2000/svg" width="1920" height="1080" viewBox="0 0 1920 1080"><defs><style>.cls-1{fill:none;stroke:#00b4aa;stroke-miterlimit:10;stroke-width:0.75px;}</style></defs><path class="cls-1" d="M-29.29,303.33c1.85,4.67,3.25,9.58,4.48,13.18,3.1,7.82,3.1,14.36,2.49,22.89-.61,13.08-1.87,21.56-11.15,30.09-4.32,3.27-6.79,5.22-9.27,9.15-.61,1.28,1.23,4.55,0,5.87-1.86,2.61-4.95,2-6.18,3.94-9.91,10.47-17.32,26.83-9.29,41.85.63,2,6.2,7.2,6.2,7.2,1.22,7.87-1.25,4.6-5.57,8.52-6.18,5.89-6.18.63-6.82,10.44-.61,3.26.64,10.47,1.25,13.74,1.84,13.08,9.89,9.16,16.07,19.62,8,12.46,8.66,24.88,19.18,36,17.33,18.32,18.55,52.35,40.83,67.37,11.14,7.21,21.64,5.25,31.55,16.35,5.57,5.9,16.7,12.44,19.16,19.63,1.86,6.53.64,17.67,1.25,24.21,0,8.5.61,17,.61,25.5v8.52l-1.22.65c-.64,17,5.57,32.06,7.41,48.4,1.86,17.67-1.84,36.64.61,54.95a228.41,228.41,0,0,1,2.47,36c0,11.11-5.57,20.27-4.31,30.08.61,9.82,7.4,18.32,8.66,28.13.61,5.88.61,14.4,3.7,19.63,3.09,5.89,3.7,3.27,8.05,6.54,17.32,13.74,14.84,47.75,24.12,67.38,3.7,9.15,4.34,16.35,6.82,24.85,3.09,10.47,13.59,20.94,19.77,30.75s11.75,15,22.89,10.47c4.34-1.31,4.95-7.85,11.75-3.93,4.35,2.62,5,9.81,8.05,13.73,5,7.85,10.52,9.16,19.18,8.51,3.71,0,8,2,9.89-2,3.09-7.85-5-5.89-8.66-7.85-8.05-3.93-14.84-7.85-19.8-16.35-2.48-4.58-3.09-9.16-6.18-13.09-4.32-6.54-6.79-5.88-6.79-15,.61-20.94,24.72-28.79,1.83-42.52-8-5.24-14.2-9.16-6.79-19,2.47-3.92,7.43-3.92,9.27-8.5,1.25-3.27-1.23-8.51,0-12.43,3.09-11.12,11.14-9.81-.61-17.66-8.66-5.24-14.85-13.09,0-11.78,9.27.65,11.75,4.58,12.36-9.17,0-10.46-6.79-19.61,8.05-20.26,9.91-.66,19.19,5.23,27.22-6.55,4.94-6.54,3.1-18.3,0-25.51-4.33-9.81-16.69-18.31.63-16.35,7.4.66,11.75,3.93,20.41,0,9.88-3.27,6.18-3.27,8.66-11.13,1.22-3.27,1.83-5.88,3.09-9.15,1.23-2.61,4.31-5.23,5.57-10.47,2.48-11.76,4.32-19,12.36-28.12C286.32,748.21,291.9,741,289.41,722c-1.83-17-1.83-17.65,9.92-28.77"/><path class="cls-1" d="M296.24,695.23c14.23-19,43.3-4.57,56.28-23.54,5.56-8.51,8.05-20.27,11.75-29.45,4.34-9.82,11.13-20.91,11.75-32,0-15.68-11.75-39.24-3.7-53.64,2.47-4.56,6.79-6.55,10.5-9.81,6.2-6.54,4.95-10.48,8-18.3,4.35-11.8,16.71-15.07,18.58-28.15,1.22-7.84.61-19-.65-26.82-.61-3.93-1.83-9.81-4.31-13.08-5-6.54-5-3.27-11.75-3.93-10.53-1.28-13.62-7.17-22.28-13.71-10.5-7.19-17.93-9.83-30.3-11.13l-11.14-2c-4.34-.64-7.43,0-11.13,0-9.89-1.29-6.8-3.91-12.37-9.82-4.34-4.55-13-9.15-18.57-10.44-8.66-1.32-9.28,3.28-16.07,3.9-.61-3.9-.61-8.49-3.09-11.76l-.61-2c-6.2-7.18-10.53-3.26-13-14.38-.61-3.27.61-7.21,0-9.81-1.85-3.93-6.18-3.93-7.41-7.86-2.47-6.55,1.23-13.75-2.47-20.9-3.09-5.93-11.75-12.47-17.32-15.74-19.8-12.41-42.08,2.62-55.67-18.29-6.21-9.15-8.66-12.44-17.32-17.68-6.2-3.93-11.75-11.14-17.32-16.35-8.66-8.48-8.66-11.75-20.41-8.48-9.91,3.27-17.32,3.27-28.46,0-5-1.33-9.92-2-14.23-3.94s-9.27-7.2-14.23-8.53c-8.66-1.27-13,9.81-21.64,6.54.62-2.61,7.41-9.15,4.32-12.41-1.87-2.61-9.88,2.6-11.75,3.26-8.66,4.6-21.65,5.88-28.46,11.14C-6.87,272.67-3.78,291-13,293.58c-8.66,2.65-6.8-5.22-10.53-8.49"/><path class="cls-1" d="M41.8,264.39c-2.48,2.6,9.07,32.24-6.6,21.76-5-2.6-3.29-34.84-13.2-11.34-9.07,23.55,16.5,43.63,34.64,46.24,13.21,1.74,18.13-.87,18.13,13.95,0,5.26-4.1,10.47-3.28,15.73.81,6.95,8.24,10.44,9.06,15.69,3.3,16.55-10.7,9.6-19.79,13.95-15.67,7-7.41,15.68-4.12,27,3.29,13.07-4.12,20.94-5.77,32.29-.82,6.95,5,7.82-1.64,13.95-3.32,3.47-11.55,0-16.5,2.6-18.14,8.73-19.8,55,1.63,63.66,6.62,2.63,9.09-6.08,15.69-1.73,4.94,2.61,1.63,9.6,5.77,13.94,14,13.08,23.1-7.82,34.64-10.47,16.48-3.47,13.18,19.21,20.62,26.19,7.41,7.84,21.43.88,29.68,7.84,5,5.24,3.3,10.47,7.44,14.82,4.93,6.13,9.07,7,12.36,13.08.82,1.76-1.66,7-.81,8.73,2.44,4.36,5.77,3.49,9.88,7,8.25,7,19.8,12.21,19,26.17-.84,13.08-10.73,13.08-2.48,27,4.12,7,10.7,10.47,14.84,16.56,5,6.13,5.78,13.08,12.37,17.46,10.73,6.09,28-1.75,23.1,18.3,0,3.5-6.59,4.37-7.43,7.86s3.32,5.22,3.32,7.84c0,7,4.11,11.34,0,18.32-6.63,9.61-22.28,7.85-20.63,24.43,1.64,14.82,18.15,10.46,28,19.18,2.48,2.62.82,6.11,5,9.59,3.29,2.62,7.4,2.62,11.54,2.62"/><path class="cls-1" d="M-43.14,380.37C-31.6,382.1-30,395.19-18.42,396.92c5,.87,9.07-5.21,15.69-1.73s4.93,7,8.22,12.21c8.26,10.47,14,12.21,25.58,16.57,5.77,2.64,11.54,4.37,14.84,9.59,3.32,4.39.85,9.6,5.77,13.95"/><path class="cls-1" d="M77.25,373.37c8.26,3.52,5.78,12.22,11.56,15.73,9.06,6.09,18.13,0,23.08-7.87,7.44-13.94-12.36-27.89,2.48-33.15,10.74-3.47,26.39,8.73,31.35-11.33,1.64-7.83-3.29-10.44,0-19.17s10.7-10.48,10.7-20.95"/><path class="cls-1" d="M146.54,335.86c28.05,2.66-9.89,71.54,36.3,41.9,1.63-.87,4.93,0,7.41-.87,3.29-1.74,1.66-7,6.58-8.74,10.74-2.6,9.1,7,14.87,9.61,19.78,8.7,20.63-15.71,34.62-23.55"/><path class="cls-1" d="M217.48,328.05c-14.87,11.34-.84,29.63-10.73,43.58"/><path class="cls-1" d="M182,323.66c0,9.6-11.55,18.33-9.07,27.94,2.47,6.08,9.07,5.21,11.54,12.22.82,2.6,0,8.69,0,11.33"/><path class="cls-1" d="M60.52,535.63c1.65,7.83,6.59,14,6.59,22.65,0,9.6-4.94,16.6-6.59,26.18C58,601,77,615.86,56.39,621.08"/><path class="cls-1" d="M62.17,618.46c19.78,0,15.67,45.37,23.93,57.59,2.48,3.47,8.24,2.6,9.88,9.59,1.66,7.83-.82,8.7-4.11,13.09s-8.25,3.48-10.73,8.69c-3.3,6.12-.82,13.1,0,19.21.81,20.93-9.07,50.58.81,69.77,6.63,12.21,18.17,12.21,15.69,29.66-.84,7-5,12.21-5.77,18.31-2.48,8.72-.84,14,0,23.55,1.63,8.72-.84,22.67,1.63,30.53s10.73,8.71,14,15.69c1.67,4.36-2.47,10.47,0,14,2.48,4.37,10.74,2.62,13.22,7,5.77,8.72-2.48,19.19-1.67,27.91.81,7.85,5.77,17.44,7.44,25.28,2.47,11.34,5.77,14,11.55,24.43,4.93,7.85,2.45,14.83,13.18,16.57,9.07,1.75,15.68-10.47,23.09-.87"/><path class="cls-1" d="M210.63,760.65c-4.13,3.48-13.2,1.74-15.68,6.08-3.3,6.12,4.14,14,5.77,19.21,3.29,10.46-4.11,31.38,8.25,33.13"/><path class="cls-1" d="M91.87,680.39c2.47-7,4.93-18.29,14-18.29,5.77.86,11.55,13.08,17.32,13.94,0-7.86,7.42-13.08,14.85-9.6,6.59,3.48,4.93,13.08,9.89,18.32,10.72,10.47,35.45,2.63,42.89,18.32,4.94,11.34-10.74,24.41,4.11,32.27,19,9.59,19.8-19.2,30.53-19.2"/><path class="cls-1" d="M178.47,639.41c-12.39-16.58-19-8.74-30.52.87-14.85,12.21-9.08,10.47-8.26,28.77"/><path class="cls-1" d="M1951.88,352.39c-1.86,11.48,1.83,18.67-1.86,30.15-2.48,9.33-1.25,17.24-8.66,20.1-9.27,3.6-14.24-5-21.64-6.45-9.27-1.45-12.38,9.31-22.26,6.45-7.44-1.43-17.32-5.72-24.11-8.62-8.67-3.58-14.24-12.91-23.51-12.2-13.62,1.43-8,10.77-11.76,20.1-5.55,16.53-13,0-21-3.57-3.1-1.43-6.8.72-9.29-.72-4.33-2.17-3.7-5.76-6.8-8.61-7.41-5.77-16.07-2.88-23.5-7.91v0c-3.09-2.85-9.89-5.74-10.5-10.76-1.25-5.76,3.08-6.48,4.94-11.48,3.72-12.92-.62-20.1-11.13-20.1-16.7,0-33.4,5.73-50.09,7.18-9.9.72-17.93,1.44-27.22,7.16-7.41,4.33-13,10.05-22.25,7.91-13-2.86-10.52-5-19.18,7.18-7.41,10.77-19.17,15.06-22.87,28.72-2.47,8.59-1.24,18.63-7.43,25.82-5.56,6.48-13,12.91-18.54,19.39-3.1,2.86-8,5.76-9.9,10.05-2.47,4.29-.62,8.62-1.87,12.19-3.69,10-13.59,12.19-16.07,23-1.85,10.05,2.48,21.57,3.72,30.86,1.23,12.24-1.86,18.68-4.33,30.16-4.32,19.38-.63,40.91,9.88,56,6.8,10,16.1,17.24,21.65,27.29,5,10,9.9,17.92,17.32,25.82,11.12,12.19,19.78,10.76,31.54,6.48,9.89-4.33,19.79,1.43,31.53-.72,18.56-3.61,36.49-26.58,52.56-3.61,2.47,2.9,4.33,8.61,7.44,10,4.93,1.44,6.79-3.57,10.51-4.28,10.5,0,16.68,8.62,16.68,20.09v1.43l-.61-2.14c1.25,21.53-14.23,35.15-1.25,53.82,5.58,8.62,14.24,13.64,18.57,23,4.33,8.62,3.08,18.67,6.19,28,3.08,10,2.46,18.67,4.32,29.43,2.47,14.34,3.09,13.62-3.72,25.84A64.53,64.53,0,0,0,1788,913c5.57,8.62,12.37,20.82,11.76,32.31,0,13.64-3.71,15.08,3.7,29.42,5,9.34,6.82,19.39,10.51,29.43,3.72,9.34,9.91,16.53,11.13,27.29,1.24,10.06-3.08,20.82,5,28.71,7.41,6.45,16.07,0,24.73-1.44,12.37-2.16,28.44-3.59,39-12.21,6.8-6.44,10.52-16.49,16.7-24.39,6.8-7.9,14.21-13.64,17.93-24.41,2.47-7.17,1.86-16.51,4.33-23.7,3.72-10,12.36-10,19.18-17.21,4.94-6.46,5.55-13.65,4.32-23s-5.58-17.22-1.85-26.55c3.08-8.61,13-15.8,19.78-20.81,9.27-7.18,21-13.66,25.36-25.85,3.7-9.34-.63-18.67-1.86-28.72-.63-10.05.61-18.67-1.85-28-3.72-10.78-3.72-12.92-3.11-23.69.64-20.1-6.16-40.91,13.62-52.39l-.63-.71c8.65-7.19,13.62-16.53,21-23.68s16.71-12.95,22.89-21.55c12.35-16.5,19.79-41.64,26.59-62.46,1.85-7.15,8-25.11-3.72-27.25-5.57-.71-15.46,11.48-22.25,12.19-6.2.72-16.71,1.43-22.9,0-13.6-2.86-9.27-10.05-12.35-21.52-3.71-15.1-21.64-16.53-28.44-28.72-3.72-5.76-.64-15.06-4.34-22.25-5-7.9-9.9-7.9-12.37-18-1.24-7.19,0-15.05-1.86-22.25-1.85-10.05-8-12.91-13.59-20.1-5-7.9-6.81-15.81-9.91-25.14-2.47-7.87-8.66-15-9.89-23.67,4.34-1.43,17.94,7.9,21.65,11.48,6.17,7.18,11.13,22.24,15.46,31.58,3.7,7.9,9.88,17.95,11.74,26.57,1.86,10.76-2.47,15.05,6.8,22.24,3.71,2.86,7.43,2.86,11.13,7.19,2.49,2.87,4.33,7.91,6.18,11.48,5,8.62,9.91,17.24,11.77,28,.61,7.86-2.49,17.91,5.55,20.81,6.8,2.15,20.42-7.19,26.59-8.62,11.76-2.86,24.11-.72,31.54-12.19,6.19-8.62,8.66-14.39,16.7-21.53a197.27,197.27,0,0,0,21.65-19.38c4.95-5,16.68-20.11,16.68-28.73,0-12.91-17.92-15.81-24.72-22.24-6.8-7.19-5.58-19.39-15.46-10-6.19,6.44-5.57,17.2-16.7,14.34-2.47-.71-9.91-7.9-11.13-10.77-3.1-5.74,1.22-8.62-.61-14.33-2.49-5-11.77-5.77-15.46-10.06-4.33-4.32-6.19-12.22-8.05-17.95l-1.24-2.15c2.47-13.66,12.37-8.61,17.31-2.17,7.44,10.05,7.44,16.52,17.93,21.55,7.43,3.58,16.09,8.59,24.14,7.87,4.33-.71,6.16-7.87,12.35-3.57,4.33,3.57,1.86,8.62,4.33,12.19,5.58,5.76,16.7,2.88,23.5,3.61,6.19.72,13,4.3,18.56,4.3,10.5,0,20.4-10,30.92-2.15,5.55,5,6.18,15.06,11.12,22.25,1.86,2.14,3.72,2.14,5.56,4.29.64,2.19-.61,5.76,0,7.19,3.1,5.76,4.33,8.62,9.9,9.33,11.14,2.15,3.08-5.76,10.52-9.33,8-4.29,7.41,5.76,7.41,12.19s-3.08,13.67-2.47,20.1c.61,8.62,6.19,11.48,9.27,19.38,3.72,7.2.63,15.1,3.72,23,2.47,7.91,8.66,12.24,11.13,20.82,4.32,13.67,9.27,24.43,14.84,37.34l-.61-2.14c5.55,10,12.35-4.33,16.06-9.34,7.43-10.05,3.72-10.05,4.34-23.67.61-10,2.47-20.82,3.09-30.86.63-12.24,7.42-15.1,14.84-23,6.18-7.15,15.45-12.9,20.42-21.53,6.18-10,4.94-13.62,14.2-20.81,5.58-4.29,16.1-12.2,23.51-7.9,5.58,2.9,2.47,5,4.94,9.33a51.5,51.5,0,0,0,9.3,11.49c7.41,7.89,10.48,15.09,13,26.56,1.22,7.19-.64,20.82,8,20.82,8,0,7.44-17.24,14.24-14.34,3.7,2.15,6.79,21.53,8.65,26.53a108.37,108.37,0,0,1,9.27,48.82c0,8.62-1.86,15.1,1.25,23,3.69,7.91,11.13,15.1,15.46,23.72,3.69,7.86,6.18,18.64,11.74,25.1,6.8,8.62,15.45,13.64,14.84.72-.61-7.89-2.47-21.53-4.33-28.73-3.08-10-13-12.19-19.17-20.09-14.85-16.49-16.07-27.25-13.6-49.49,1.86-13.67,4.94-13,14.21-7.19,10.52,6.47,12.38,9.33,17.32,19.38,1.24,2.86,5,6.43,6.18,8.62.64,2.14,1.86,12.19,3.11,12.91,7.42,6.47,11.74-6.48,15.46-10.77,6.18-8.62,15.45-11.48,17.31-22.95,1.23-8.63-.64-25.15-4.33-31.62-8-15.06-37.73-35.16-24.11-56,5.55-8.63,15.45-8.63,22.26-2.86,2.46,1.42.61,11.47,8.65,7.87,1.86-.72,1.86-8.59,4.94-10.77,2.48-2.15,6.8-.72,9.27-2.15,5-2.14,6.81-7.9,12.38-8.62h-1.25c30.3-5.72,36.49-46.63,38.35-75.36-11.74-.71-2.47-7.19-3.09-13.62-.63-5-11.12-16.52-14.23-20.82s-13-13.66-14.21-18.66c-1.25-8.62,9.27-14.38,13.6-19.38-6.19-7.2-15.46,1.42-22.89-1.43-3.08-1.45-15.46-12.22-15.46-15.82,0-5,16.1-19.38,20.42-18.66,9.88,2.16-1.25,16.52,7.41,20.09,10.52,4.33,12.38-19.37,23.51-2.14,3.08,4.31.61,5.76,5.55,10.76,3.72,3.6,6.82,2.88,9.9,8.62,4.33,7.91,1.86,15.08,4.33,22.25,1.86,6.47.61,6.47,7.41,6.47,1.25,0,9.91-3.6,11.15-4.32,20.4-17.92-19.17-32.3-22.27-46.64-1.22-9.34,6.79-12.2,7.43-21.53.61-8.62-5-21.54,9.88-16.53,4.33,1.43,3.11,7.91,9.28,7.2,6.81-.72,5.57-3.61,5.57-10.06.6-4.32-2.47-9.33-1.87-14.37.63-5.72,3.11-9.32,4.34-14.34,1.85-7.91,2.46-16.52,3.71-25.12,2.47-11.49-.61-12.21-5.58-22.26-6.17-10.77-6.17-16.5-17.92-20.82-7.41-2.15-14.22,0-21-2.15-4.94-1.43-4.94-2.86-8.66-5-1.84-1.44-7.41-4.31-8.66-5.75-4.94-3.58-3.69,1.44-4.94-6.46-.61-3.59,1.25-10.77,2.47-14.35,3.11-7.19,8-20.1,14.85-23,3.1-1.45,9.91-.72,13.6,0s8.65,5,11.75,5c4.95,0,6.2-4.29,9.89-5.72,6.81-1.44,8.05,3.58,13,5,3.72,1.44,8.66,3.6,13,1.44,8-2.87,3.71-2.16,3.71-8.61,0-5-2.47-23,9.27-15.79,5.58,3.58,7.44,20.82,17.31,10,3.72-2.88.62-10,5-12.92,5.57-4.32,9.29,0,9.9,5.73,1.25,6.48-4.33,8.62-5.58,13.65-1.22,6.45,1.87,10,.64,15.79s-7.44,2.14-6.8,10c0,4.32,6.16,9.34,8,12.2,6.18,9.34,12.37,18.67,19.78,26.58,3.1,3.57,17.32,20.81,21.64,18.66,6.2-2.88-.6-7.9-.6-10.77,0-2.16-.62-3.6-.62-5.75.62-3.58,4.33-3.58,4.94-5.74,1.25-5-1.23-7.89-1.86-13.64,0-1.44,4.34-2.15,4.34-6.46-.62-2.88-4.34-5-5-7.17-1.85-4.32-2.47-11.49-5.57-14.36-4.33-6.45-9.28-2.88-14.22-6.45-9.9-7.91-5.57-18.67,4.94-18,5.58.72,8.66,5,14.24,5,4.33-.72,9.88-5,13.6-6.46h-.61c7.41-5,5.55-14.35,15.45-16.51,7.41-1.44,18.54,2.16,8-8.61-3.08-4.31-24.12-11.49-10.49-19.38,7.41-4.31,22.25,10,29.67,10.76,2.46.73,8,2.16,9.89,0,4.95-5.74-1.25-6.46-2.46-10.76-5.58-13.65-8.06-10.77-19.8-13.65-17.3-5-35.87-5.74-52.57-12.91-19.16-7.18-51.31-20.1-71.73-13.64,1.24,2.88,3.1,7.17,4.32,9.33-6.79,3.6-14.21-5-21-7.17-9.28-2.16-20.42,0-29.69.72-10.51,0-14.21-2.88-24.11-7.19-8.66-3.58-20.4-1.43-29.69-2.15-13.6,0-18.54-.72-29.67-8.62-13-8.61-24.75-7.89-39-7.89-6.8,0-17.93-2.16-22.89,2.87-5.55,5,.63,8.62-8,10.77-3.73.72-9.3-2.15-13-2.15-8,0-6.81,3.59-13,5.74-8.65,2.86-13.62-5-19.17-10C2392.16,5,2374.85-1.47,2361.24-.75c-4.94.71-8.65,5-14.84,5.73-8,.72-16.07-5-24.72-5.73-14.24-.72-30.31,9.33-43.93,4.3,1.86-8.62,14.24-4.3,14.24-15.07,0-8.62-9.27-10-14.85-9.34h.61c-6.8,0-13,2.87-18.54,2.16s-13.6-4.31-18.56-6.47c-6.17-2.15-10.5-7.17-17.32-3.58-6.16,2.86-4.32,7.89-8.65,10.76-3.7,2.15-8.66,1.44-12.36,1.44-7.43,0-13.62,0-20.42,2.14-3.08,0-8,1.44-11.12,2.17-7.42,2.87-4.34,2.87-8.66,7.17s0,4.31-7.41,6.46c-3.11.72-7.44-1.44-10.52,0-13.6,5,1.86,6.46,2.47,15.07-5.55,2.16-40.82-8.61-39,5.75.64,2.15,7.43,8.61,9.29,10.05,1.22.72-.63,4.3,1.22,5.73,2.48,2.16,6.2.73,8.05,2.16,4.94,3.59,4.33.72,4.33,9.34,0,3.58.61,7.88-1.25,10.76-5.55,7.18-19.17,3.59-19.17-5.74,0-5,3.72-7.18,3.11-12.92-1.25-5-7.44-12.2-9.27-15.8-5.58-9.33-7.44-18.66-18.57-17.94-12.37.72-16.06,9.33-7.41,19.38,4.33,4.32,19.15,17.23,4.33,15.8-8-.72-13.62-10-22.28-10.77-11.13-.71-14.82,7.18-23.48,10.77-6.82,2.86-18.56,0-26,0s-42.06,16.5-43.93,13.62c-1.22-3.58,6.19-5.73,5-9.32s-8.66-5-11.77-3.59c-13,5.75,5,12.2-4.94,20.82-2.46,2.87-8-.72-11.73,1.43-5,2.87-3.11,6.47-5.58,8.62-6.8,7.18-9.89,0-18.54,0-5,0-1.86,5.74-9.29,2.14-.61,0-8-8.61-8-10.05-.63-7.17,11.75-3.57,17.32-3.57s17.32,2.86,19.15-4.32c3.11-10-11.74-11.48-16.68-13.64-13.62-5-30.3-9.33-42.68-14.35-6.19-2.15-9.88-7.17-17.93-5.75v-.71c-17.93-.71-30.91,5-48.23,8.62-15.46,3.58-24.75,29.43-36.49,42.35a68.36,68.36,0,0,1-21,15.79c-10.52,5-17.93,2.87-20.4,17.22-1.25,7.18.61,20.09,5.55,25.13,7.44,7.89,13.62-.72,20.43-4.32,9.88-5.73,13-2.14,16.68,9.33,1.24,3.6,5,24.42,6.18,25.14,5,4.29,20.42-7.9,21.65-12.93,1.85-3.59-.61-9.33,1.24-12.92,1.86-5,6.8-5.74,8.66-10,5.55-12.2-8-15.79-4.94-28,3.08-11.49,14.21-10,19.79-17.22,5.54-6.47,6.16-18.66,16.07-15.08,13,4.31-1.26,14.36-6.19,20.81-11.13,14.36-1.86,35.9,14.23,30.87,5.55-2.16,14.21-7.9,20.4-5.73,10.52,3.57,5.57,12.19-3.08,13.63-5,.71-14.24-5-18,.71-4.32,7.9,5,5.75,4.33,10-1.83,7.19-5.55,5-9.88,6.47-4.94,1.43-6.18-2.88-9.9,5-1.22,2.88.63,8.62,0,11.49,0-.72-8.66,10.05-7.42,9.32-8,5-3.09-2.15-9.9-2.86-8.65-.71-14.21,10.77-22.86,10.77-6.19,0-5.58-5.74-9.91-7.18-5.55-1.44-8.65,3.6-13.6,2.88-15.45-.72-7.41-10.05-6.8-19.38,1.23-14.37-11.74-10.05-13.6.71-1.24,7.18,8,16.51,1.86,23-3.72,5-16.7,2.86-22.89,8.61-5.57,5-10.52,12.92-16.7,17.24-3.09,2.86-6.8,4.29-9.27,7.16s-3.72,10-7.41,11.49c-4.33.72-17.32-15.07-14.85,2.17-6.19,1.43-16.7-2.17-18.56,6.44-3.09,11.49,6.8,7.18,11.76,9.33,9.89,4.33,20.4,31.58,4.94,37.34-11.73,4.29-30.91-7.19-43.29,0-7.41,4.29-4.33,14.34-4.94,23-1.24,9.33-4.94,12.19-8.66,19.38,11.75,5.76-2.46,17.95,12.38,20.81,8.64,1.43,16.07-2.86,19.79,9.34,6.8-8.62,9.88-1.43,17.92-4.3,6.19-2.17,3.72-4.32,8.66-9.33,3.09-3.61,9.27-5,11.13-8.61,1.24-3.6-1.86-10.77,0-15.1,1.24-4.29,4.94-7.15,8.05-9.32,9.88-6.45,10.49-3.59,15.45-15.07,3.7-8.62,2.48-9.33,12.36-8.62,3.71,0,8.65,2.15,12.37.72,1.86-.72,1.25-5,2.47-5,3.11-1.44,5,.72,7.43,0,8-2.17,14.83-5,19.79,6.44,1.86,4.33-.63,10.05,2.47,14.38,1.86,1.42,9.88,3.57,11.74,4.29,3.72,2.14,13,4.31,15.46,7.19,3.71,5,1.25,10.76,2.49,16.5,5.55,25.12,4.94-15.79,14.82-10.77,5-11.49-29.66-28-34-37.31-4.33-8.62-3.11-23,7.41-16.53,3.72,2.15,5.57,10.77,8.66,13.64,3.71,3.6,7.43,2.89,11.13,5.75,6.18,3.58,14.23,10.76,17.31,17.95,1.25,3.58,1.25,5.72,1.86,9.34,1.24,5.71.61,7.16,3.08,11.48,1.86,4.28,6.19,7.9,7.43,11.47,1.22,2.87,3.08,12.91,4.94,14.35,7.44,7.18,14.24-6.44,14.24-12.92,0-5.73-5-13.62-3.11-19.38,2.48-7.17,13-5,19.18-5.72,3.1,5,0,8.6.61,14.34.63,6.47,4.33,9.33,6.82,15.08,1.84,3.59,3.08,7.88,6.8,10.05,1.84,1.45,4.33,0,6.8.72,0,0,6.19,4.3,5.55,4.3,5,.71,5.58-2.15,11.13-2.86,5-.71,8.05,3.57,13,3.57,6.81-.71,16.7-12.91,22.28-1.43"/><path class="cls-1" d="M1956.52,239.52c-2.8,2.14-3.72,4.83-7.2,6.18-3.7,1.34-8.1.54-11.6,2.43-4.86,2.7-2.54,5.64-2.31,10.49.23,3.77-1.4,7.8-5.32,7.26-7.67-1.34-8.13-15-15.31-17.21-11.61-3.23-16,13.45-20,22.59-1.84,4.59-5.32,8.37-6.49,13.2-1.15,5.39,2.09,7.81,4.88,11.85,2.33,3.5,5.1,10.48,9.73,8.08,1.63-.82,2.32-3,4.64-3.78,3-.8,6,1.09,9,0,2.32-.8,4-3.77,5.8-5.38a17.43,17.43,0,0,1,8.81-3c7.19-.82,14.62,3.22,20.66,7,5.55,3.23,10.18,6.73,16.44,5.12,4.41-1.35,11.62-2.17,14.85-5.92,6.5-8.07-3.71-17.24-9-21-4.63-3.22-9.75-5.65-14.61-8.34-2.55-1.35-7.88-3-9.27-5.93-3-7.53,5.55-6.18,8.12-9.42,3.23-3.76,3.92-14-1.86-14.25"/><path class="cls-1" d="M1681.71,142.07c-1.14,0-3.46-.53-3.69-1.88-.71-3,2.78-2.43,3.46-4,2.56-5.66-8.1-5.66-10.66-3.78-6.25,3.78-7.42,18.84-4.87,25.57,2.09,5.67,9,8.62,13,11.58,2.1,1.88,6.5,8.89,4.41,12.12s-6.72-.53-9,3c-2.55,3.24-3.72,10-.69,12.66,1.38,1.34,4,0,3.47,3.23-.23,2.4-3.47,2.15-4.87,2.95-3,1.08-5.8,3.78-4.63,8.35,1.86,7,7.41-1.62,10.67-3,5.32-2.41,9.5,1.89,14.36,1.09,2.8-.28,3.26-2.69,5.12-3.78,1.86-1.35,3.7-.26,5.55-.8,4.65-1.34,2.09-5.66,4.65-9.69,1.16-1.88,3.47-1.88,3.7-4.58s-2.09-5.11-3.7-6.46c-1.85-1.61-4.17-2.15-5.8-4-2.09-2.15-3-5.38-4.63-8.07-2.55-4.31-9.75-8.34-10.44-14-1-6.73,5.09-4.3,7-8.62,4-8.87-8.35-7.53-11.59-7.53"/><path class="cls-1" d="M1651.34,164.15c-4.41,2.15-3.93,7-8.57,7.79-4.4.81-7.89.28-7.89,7,0,4,4.86,5.91,3.72,9.69-1.17,4-6.5,2.42-5.58,8.34,1.63,11,13.91-.53,18.08-1.62,3.72-.8,7.21.28,9.53-4.58,1.85-3.76-.71-7.53.45-11.57,1.86-5.92,5.81-6.18,1.4-12.37-3.94-5.39-6-5.12-11.14-2.69"/><path class="cls-1" d="M1759.17,301.41c-6.49,0-5.8,5.67-6.26,11.31-.46,6.19-.69,10.77,6.26,10.52,6.72-.55,7.41-5.14,7.41-11.86,0-5.38-.22-10.51-6.49-10"/><path class="cls-1" d="M1757.78,286.06c-7.19,1.1-1.16,12.12,4.65,8.37,4.15-3,.23-10-4.17-8.62"/><path class="cls-1" d="M1797.44,330.22c-3.94,0-14.38-3-13.92,4.31.23,3.51,1.86,3.76,4.4,4.85,3.49,1.35,2.8,1.89,5.12,4.58,9.27,11.82,13.22-15.34,4.17-14"/><path class="cls-1" d="M1686,276.3c-.61,14.34,8.66,4.29,13.63,5,7.41.72,10.68,11.48,18.73,10.05"/><path class="cls-1" d="M1636.52,291.36c4.94,3.6,10.51-1.43,13.6,1.43,8.66,5.76-1.86,8.62-3.72,14.38-3.08,10.05,1.25,22.24-6.8,31.58"/><path class="cls-1" d="M1876.44,114.08c3.09-8.62,14.23-10,15.46-18,1.24-5.74-2.47-5-4.33-9.34-1.86-5-1.86-7.89-3.08-12.91a78.68,78.68,0,0,0-8.66-23c-8.66-15.08-1.24-6.46,3.7-19.38"/><path class="cls-1" d="M1872.73,39.43c-1.87-4.32-8-10-12.36-10-5.57.71-4.32,3.59-8,7.17-10.51,10.77-8.66.71-20.42,2.15-13.6,1.44,1.24,7.9,5.57,12.93,7.41,7.17,6.8,10.77,4.34,21.54"/><path class="cls-1" d="M1825.11,43c-4.33,2.87-8.66,0-12.35,2.15s-5.58,7.9-8.66,10.77c-3.11,4.31-7.43,5-10.52,10.05-1.85,3.59-1.85,10-4.32,14.36-5.58,10-14.85,9.33-13,22.25,1.86,8.61,10.51,20.1-2.47,26.55"/><path class="cls-1" d="M1875.83,127c-.63,8.62-.63,15.08,2.47,22.25,5.55,14.37,11.13,2.16,20.4,9.33,4.33,2.88,1.86,5.76,4.33,8.62,1.86,2.15,9.91,6.46,10.51,9.34,3.09,10-8.65,5-9.27,15.06,8.67,2.16,15.47,1.44,21.65,6.46,4.33,5,8.66,15.08,16.68,18,7.43,2.14,18-7.91,24.12,1.43,8.65,12.19-8,14.35-8.66,24.39"/><path class="cls-1" d="M1714.42,205.24c8,1.43,6.81,11.48,15.47,13.63,6.17,1.43,21-4.3,21.65,9.34.61,6.46-5,8.61-8,12.9-.61,1.44.62,5.76,0,7.91-.61,1.43-5.57,0-5.57,2.14,0,5.76,4.33,7.19,6.19,12.93.61,2.88,0,7.89,0,11.5"/><path class="cls-1" d="M1742.88,258.35c6.17,0,6.17-7.19,11.74-9.33,2.47-.72,5.57,2.86,8.05,2.14,3.69-.71,4.32-2.14,6.8-3.57,7.41-3.59,23.5-8.62,21,9.33"/><path class="cls-1" d="M1748.43,233.94c6.8,4.31,29.06-2.15,27.84,9.34"/><path class="cls-1" d="M1739.16,217.44c-.61-12.2,12.38-23.69,4.95-35.17"/><path class="cls-1" d="M1724.93,195.91c3.11,7.17,8,12.19,14.84,10.05"/><path class="cls-1" d="M1774.4,239c3.72-9.34,13-4.3,16.71-14.35-3.1-.72-11.13-4.32-11.76-8.61-.61-6.48,7.43-7.19,11.13-10,10.51-9.34.63-15.81,3.71-29.43"/><path class="cls-1" d="M1794.19,201.64c5.58.73,9.27,5.75,14.24,7.89,4.33,1.44,12.34-.71,13,7.19.61,14.34-22.89,9.34-30.3,9.34"/><path class="cls-1" d="M1789.25,246.87c13.6-2.15,20.4,0,22.26-18.66"/><path class="cls-1" d="M1794.81,262.65c3.71-7.17,16.09-10,12.37-20.1"/><path class="cls-1" d="M1807.79,247.59c3.72,5.73,24.12,5.73,19.8,14.34-4.95,10.77-17.31-7.88-17.31,13.66"/><path class="cls-1" d="M1827,264.81c9.9,7.17-.62,13.64-2.48,21.55"/><path class="cls-1" d="M1829.44,289.93c8.65-7.19,8.65,2.14,11.75,9.34,3.09,7.9,6.8,8.61-3.1,15.79"/><path class="cls-1" d="M1844.28,307.88c9.9-.71,11.13-12.92,19.78-13.64,6.2,0,17.32,4.31,14.24,12.22"/><path class="cls-1" d="M1880.77,312.17c4.33-4.29,11.74-2.86,13-11.48"/><path class="cls-1" d="M1857.27,297.12c-1.23-12.93-9.88-7.91-16.7-4.33"/><path class="cls-1" d="M1852.33,288.5c3.08-15.8-13-45.22-26.59-31.58"/><path class="cls-1" d="M1812.12,233.23c5.58,6.45,7.43.71,13-.72,5.57-2.16,9.29-2.88,15.46-2.16,7.42,0,6.18,1.44,9.89-4.29.62-.72,0-5.76.62-7.19,1.25-2.86,5-3.58,6.19-6.46,2.46-7.89-3.09-17.93-3.72-25.84-1.22-12.92-3.69-19.38-15.46-24.4"/><path class="cls-1" d="M1830.07,170.77c5.55,3.61,24.11,6.47,29.66,5,6.81-1.43,6.81-7.19,11.13-11.48,3.11-4.32,6.83-6.48,11.15-10.05"/><path class="cls-1" d="M1839.34,153.56c9.27-.73,29.69-5,32.77,8.61"/><path class="cls-1" d="M1859.73,139.91c4.33,2.16,13.19,2.88,17.52.72"/><path class="cls-1" d="M1857.88,198.05c4.33-2.86,9.29-5.73,14.84-5,6.19,1.45,6.19,5,11.77,8.61,2.47.73,16.07,3.6,17.92,2.16,5.55-4.32-3.27-8.61,3.53-12.2"/><path class="cls-1" d="M1838.73,254.05c0-1.45,9.88-25.14,10.49-25.84,1.24-2.15,10.51,5.73,11.15,5.73,3.69.73,11.13,0,14.83-.71,7.43-2.17,21.64-10.77,24.75,6.45,1.85,12.2-16.1,13.64-.64,21.53"/><path class="cls-1" d="M1878.3,233.23c11.74,2.16,4.94,25.84,15.46,23.69"/><path class="cls-1" d="M1851.08,274.14c8.05,2.88,11.13-.72,18.56-1.44,6.8-.73,15.65,5.75,23.68,2.16"/><path class="cls-1" d="M1753.39,340.18c.64,12.19,1.25,16.52-2.47,25.84-4.94,12.21-2.46,10.05,5,21.55,5.55,8.59,6.79,15.77,8,25.1,1.25,8.62,6.8,18,6.18,27.29-1.86,12.2-9.87,15.77,0,27.25,5.58,5.76,15.47,14.38,21.65,17.24,8,2.86,14.85-2.86,22.89-2.14,6.8.71,15.46,8.61,21,12.19,9.9,6.48,22.89,12.91,30.91,20.82,8.66,7.9,5,11.47,3.72,23.71-.61,5.72.61,10.76-1.22,15.05-1.86,3.58-5.57,7.19-7.43,11.48-3.72,9.34-4.94,15.1-1.23,24.43,2.47,5,4.94,9.3,6.8,14.34,1.86,5.72,1.22,10.77,2.47,16.53,3.09,10,12.37,14.33,18.54,22.24s8.66,16.49,17.31,22.24c5,3.58,5,2.86,10.52,4.29,5.57.72,7.44,1.43,13,3.62,4.32,1.43,6.8,4.29,11.76,2.86s5.55-5.76,8.64-7.91c5-2.14,13,0,14.84-5.71,5.57-18.68-29.06-23-17.93-45.25,4.34-8.62,6.19-12.19,7.41-22.24,1.25-12.91,5.57-10.06,10.52-20.1,3.72-6.48,1.86-18,3.72-25.11,1.85-8.62,10.07-9.33,15-15.81"/><path class="cls-1" d="M1762.69,409.81c1.85-5.76,6.8-9.33,9.27-12.91,0-.74,0-5.76,1.24-7.19,1.23-2.87,3.7-5,5.55-7.19"/><path class="cls-1" d="M1874,394.74c1.86,21.53,1.22,46.65,1.86,68.18.61,12.19,8,54.54-8,53.11"/><path class="cls-1" d="M1879.54,491.64c15.46,2.86,34.63,0,50.73,0,8,0,15.45,5,21,0,5-4.33,2.47-11.48,9.91-12.19"/><path class="cls-1" d="M1802.26,483.71c.61,3.62-.61,12.94.61,15.84s4.94,3.57,6.19,8.58c1.86,5.75,1.86,24.43,1.24,30.89-1.24,12.2-8.65,10.77-13.62,20.06-1.86,2.91-3.69,10.06-3.08,13.67,1.22,6.44,4.94,4.29,7.41,10,1.86,2.86,1.25,8.63,2.47,12.19,1.25,5,4.33,5.77,4.33,11.49-.61,15.81-16.68,3.57-3.69,20.81,7.41,9.33,8,8.62,18.54,6.48,2.46,0,8.65.71,10.51-.72,3.72-3.62,1.24-10,3.72-12.95,5.55-7.15,13-2.15,17.92-7.87,3.72-5,0-13.66,8.67-11.47"/><path class="cls-1" d="M1678.58,358.12c-.61,9.34,9.27,26.54,2.46,33.73-4.32,5-14.2,0-19.17,5-3.08,3.59-3.69,10-8,14.35-3.72,5-9.29,5-14.23,7.19-8,3.58-5.56,5.72-11.13,12.2-6.8,8.62-16.7,5-27.22,5"/><path class="cls-1" d="M1627.24,433.48c0,15.8,1.25,20.09-12.35,19.38-14.23-.71-13,4.29-13.62,18.67,0,1.43.64,5,0,6.45-1.22,2.88-3.7,3.6-4.33,5,0,.71-2.47,3.57-3.7,5-1.24,2.17.61,5.74-.62,7.89-3.7,6.47-17.94,3.61-25.35,3.61"/><path class="cls-1" d="M1627.88,439.24c13,14.33,26,28,40.18,40.91,13,10.77,34,17.2,44.54,30.86,3.69,4.29,2.47,13.63,8.65,14.34,5.56.72,6.16-5,9.88-7.19,3.11-2.14,8.06-.72,11.13-2.86,3.72-2.14,3.72-9.33,6.8-12.91,3.11-4.32,6.83-5.76,10.52-7.9,7.44-5,13.62-11.48,20.42-15.77"/><path class="cls-1" d="M1922.83,671.07c.64,7.91,6.19,20.81,4.33,25.84-.61,3.58-6.8,5-8.66,9.34-1.22,3.57.64,8.62-.61,12.19-1.86,4.32-6.19,6.48-7.41,10.77-.63,3.59,1.22,7.9,1.22,10.76,0,9.34,1.25,15.09,3.72,23.69,1.22,5.75,3.72,13.65,4.94,20.1,1.24,14.36-1.86,5.74-9.27,12.93-5.58,5-6.8,16.49-5.58,23.68,1.25,9.33,11.13,14.35,9.29,23-11.15,4.33-11.15-10.05-17.94-14.34-3.7-1.43-8,.71-11.13-.71-4.33-1.44-6.8-5.77-11.12-7.2-6.81-1.43-15.47,4.32-19.8-3.57-3.71-7.19,4.33-24.43,0-30.87-1.85-3.6-5.57-2.88-9.27-2.88-7.43,0-3.1,1.45-8.66,5-8.65,4.29-12.36,4.29-16.7-6.48-1.86-5,1.25-7.14-3.72-10.76-1.83-1.43-9.27.72-12.34.72-6.19,0-13-.72-19.18.71"/><path class="cls-1" d="M1814,995.51c9.9-2.86,17.31,11.49,24.11-2.86,3.1-6.47,1.25-17.24,1.25-23.68,0-10.05-.62-19.38.61-28.72,1.24-10.76,6.8-12.92,8.65-23.69,1.25-10-2.47-17.93,6.81-21.54,5-1.44,17.31,4.32,20.41-.72,8-12.2-10.51-8.6-13.61-7.16a63.77,63.77,0,0,1-26,1.44c-18.55-2.88-37.11-1.44-55.65-3.6"/><path class="cls-1" d="M1864.08,885.7c-2.47-6.46-6.18-7.89-8-15.08-1.25-5-.63-15.8.62-20.81,2.46-10,3.71-3.58,9.87-10,4.33-4.3,5-10,6.19-17.24"/><path class="cls-1" d="M1876.46,890.72c8.66,1.43,14.23,0,21-5,5.56-4.31,12.36-16.51,17.31-18.66,6.17-2.16,21,8.61,23.49,14.35,2.49,6.47,1.24,20.09.63,26.57-.63,8.6-3.1,21.53-9.9,26.54-3.72,2.16-18.54,2.89-22.26.71S1893.16,918,1891.3,913c-1.24-4.29,0-8.61-2.47-12.19-3.1-5-9.29-.72-8.66-9.33"/><path class="cls-1" d="M1839.36,962.5c14.21-2.15,3.72,15.79,11.74,18.67,11.13,5,7.43-16.53,18.56-15.81,5.55.72,4.33,8.62,12.37,3.61,4.33-2.16,3.7-7.18,6.17-10.77,4.32-7.18,13.41-14.26,16.7-23"/><path class="cls-1" d="M1922.83,935.21c3.72,10.06,7.44,22.27,3.72,31.6-2.48,5.74-8,4.31-6.8,12.21.61,5.72,4.32,8.6,9.27,6.44"/><path class="cls-1" d="M1902.43,999.11c-6.19.72-17.31,18.66-5.57,20.82,6.79,1.44,15.45-17.95,6.79-20.82"/><path class="cls-1" d="M1918.5,868.47c5.8-14.35,24.75-22.24,31.55-8.61,3.69,7.18-5,13.62,1.86,17.95,9.88,7.17,11.12-7.9,9.88-15.09-1.86-11.48-16.69-23.68-5.55-32.3,10.49-9.33,34.8,7.91,41.6-9.33"/><path class="cls-1" d="M1945.72,709.83c-9.27-1.43-8.66,4.33-14.23,8.62s-9.27,4.32-16.07,4.32"/><path class="cls-1" d="M1914.8,757.93c14.22-.71,11.13-24.39,11.13-35.91"/><path class="cls-1" d="M1911.7,739.26c4.33-2.86,8.66-6.46,14.23-7.18"/><path class="cls-1" d="M1897.49,658.15c-7.43,3.59-13,1.43-19.79,3.59-9.9,2.89-14.23,13.65-24.74,7.89-6.19-3.58-13.6-15-21-3.58-4.32,5.75-1.23,18.67-2.48,25.85s-.61,20.09-3.08,26.55c-3.09,10-11.74,11.48-14.84,23.67-2.47,10.78-.62,15.81-11.75,17.24-3.1.72-6.18-1.43-8.65-.71-3.11,0-7.44,3.57-11.13,4.31"/><path class="cls-1" d="M1775,750.74c10.51-4.29,2.47-12.91,7.43-17.94,4.94-5.73,9.88,3.6,13.6,1.45,9.27-2.89,6.8-27.28,3.08-33.76-1.83-3.57-13-4.29-8.66-12.19,3.72-7.19,14.24,2.86,16.1,3.6,17.31,3.59,4.32-19.37,22.86-17.23"/><path class="cls-1" d="M1807.81,633.76c-3.7,12.91-14.82,16.49-8.66,29.43,2.49,5,6.82,9.34,9.29,13.63s0,8.62,6.8,10.76"/><path class="cls-1" d="M1788.66,690.45c-6.82-13.63-10.52,5-12.38,7.9-3.71,5.76-13.6,2.86-17.31,10.76"/><path class="cls-1" d="M1764.54,691.16c4.33-2.86,9.88-2.86,13.6,1.46"/><path class="cls-1" d="M1801,588.51c-1.22,10.77-8.65,13.67-13,21.53-4.32,8.62-3.08,18.67-8,27.29-6.8,10.77-9.29,4.33-17.31,8.62-7.44,5-4.34,13.63-6.8,21.53"/><path class="cls-1" d="M1793.6,575.61c-8-2.15-13,5.76-19.79,7.19-4.32.71-15.46,1.43-19.78,0-10.52-2.9-22.28-23-32.16-6.48-1.86,3.58-4.33,15.81-4.33,20.1-.61,6.48,3.08,12.19,1.86,18-1.86,6.47-8.05,8.62-9.29,16.49-.62,7.18,3.71,11.51,4.33,17.94"/><path class="cls-1" d="M1648.28,460.06c-14.85,1.42-8.66,15.76-8,28.71.63,16.49.63,28.68,4.33,43.78,3.1,11.48,7.44,23-3.7,25.82-8.66,2.18-17.95-2.86-27.22-1.44-9.88,2.15-16.7,2.9-14.21,15.1,1.23,6.43,4.33,21.53,8.66,22.25,10.5,2.14,11.74-12.2,17.93,5.72,1.86,5.75-.61,7.18,4.33,10.8.61.71,12.37,1.43,13,1.43,6.19-2.19,5.56-5.76,7.41-11.48,3.11-8.62,4.34-13,9.91-19.38,1.86-2.91,4.33-2.91,6.19-5.76,1.22-1.43,0-5,1.84-7.19,5-6.44,10.51-5.72,17.31-6.44,10.52-.71,24.75,1.43,32.16-5.05,11.13-8.61,3.72-22.24,4.33-34.43"/><path class="cls-1" d="M1565.41,544.74c6.81-1.43,14.24-2.14,19.79,4.29s3.09,14.38,13.6,15.09"/><path class="cls-1" d="M1692.18,562c-1.23,12.2,2.47,12.2,8.65,17.92,1.25.75,4.33.75,5.58,2.18,1.85,1.43,1.22,5.72,1.85,6.43,2.48,1.44,8.23,2.91,11.31,2.19"/><path class="cls-1" d="M1707.63,587.11c-6.8,20.09-42.65,6.45-42.65,25.12-.63,4.29,3.7,7.15,3.7,10.77,1.24,6.43-.62,7.87-1.84,14.33-1.25,5-3.11,6.48-2.49,12.2,1.24,5.76,5.57,7.19,5,14.38"/><path class="cls-1" d="M1687.24,599.3c1.24,10.76,5.57,20.8,8,30.84,1.23,7.91-.63,17.24-1.25,24.43"/><path class="cls-1" d="M1695.89,597.16c0,12.19,4.33,18.64,6.8,28.69,1.25,7.19,0,16.53,0,23.68"/><path class="cls-1" d="M1665.59,615.09c-9.9,1.43-11.74,1.43-18.54-6.48"/><path class="cls-1" d="M1628.49,610c3.08,5.76-1.25,9.34-.61,14.38.61,2.86,6.18,3.58,6.18,6.45-.63,3.61-5,2.89-6.18,5.75-3.72,6.47-6.8,5.76-1.86,12.91,3.72,5.76,13,3.61,8,15.09"/><path class="cls-1" d="M1624.77,639.48c-16.07-3.58-18.54-50.25-35.24-19.38"/><path class="cls-1" d="M1612.42,628.71a71.26,71.26,0,0,1-7.43,15.81"/><path class="cls-1" d="M1603.13,588.51c-5.55,3.62-11.13-5-16.68-1.42-3.72,2.86-1.25,7.19-3.11,10-1.22,2.87-4.33,2.15-6.18,6.48"/><path class="cls-1" d="M1585.81,585.65c-7.41-7.9-9.88-17.95-21.64-9.33"/><path class="cls-1" d="M225,856.06C386.16,927.51,571,939.71,732.77,889.6,828.44,860,917,808.39,980.29,734c31.23-36.66,56.58-79.87,62.54-128.25s-10.18-102.42-49.53-135.55c-39.75-33.47-100.28-40-142.91-15.39-17.41,10.05-32,25.1-38.71,43.87-10.16,28.66-.39,62.38,18.26,88.54s45.16,46,71.79,64.53C945.22,682,997,711,1046.87,700.17c22.1-4.79,41.26-17.13,58.45-30.92,112.28-90.1,152.78-242.1,252.46-345.23,97.33-100.69,251-146.46,396.22-118"/><path d="M201,864.24a21.17,21.17,0,1,1,21.31-21A21.19,21.19,0,0,1,201,864.24Zm-8.78-21.11c0,4.51,0,9,0,13.54,0,1.44.44,2.09,2,2,2.57-.08,5.15-.1,7.72,0,1.66.06,2.08-.64,2.07-2.16s-.45-2.29-2.09-2.19c-1.21.08-2.44,0-3.65,0-1.7.1-2.54-.53-2.42-2.32.09-1.28,0-2.56,0-3.84,0-4.32-.19-4,3.94-4,1.36,0,2.19-.26,2.16-1.88s-.82-1.82-2.08-1.77c-.68,0-1.36,0-2,0-1.33,0-2-.5-2-1.9,0-1.76,0-3.51,0-5.26,0-1.26.52-1.86,1.83-1.81s2.85-.08,4.27,0c1.69.12,2-.7,2-2.19s-.42-2.1-2-2c-2.51.09-5,.12-7.52,0-1.84-.09-2.32.65-2.29,2.36C192.32,834.23,192.26,838.68,192.26,843.13Zm13.86,0c0,4.44,0,8.88,0,13.32,0,1.34,0,2.35,1.88,2.33s2-.79,2-2.24q-.06-13.43,0-26.85c0-1.47-.31-2.24-2-2.23s-1.88.8-1.87,2.14C206.15,834.06,206.12,838.57,206.12,843.08Z"/><path d="M1768,223.23a21.32,21.32,0,0,1-21.16-21.5c.31-11.75,9.56-21.24,21.28-21.22a21.36,21.36,0,0,1-.12,42.72ZM1759.26,202c0,4.56,0,9.11,0,13.67,0,1.48.49,2.08,2,2,2.63-.08,5.28-.08,7.92,0,1.49,0,1.84-.66,1.83-2s-.09-2.47-1.9-2.39c-1.42.07-2.84,0-4.26,0s-2-.55-2-1.95,0-2.58,0-3.88c0-4.18,0-4.21,4.17-4.37,1.2,0,1.91-.32,1.92-1.72s-.48-2-1.89-2c-.81,0-1.63,0-2.44,0-1.15,0-1.76-.53-1.75-1.73,0-1.91,0-3.81,0-5.72a1.41,1.41,0,0,1,1.63-1.59c1.56,0,3.12-.07,4.67,0,1.72.09,1.79-.94,1.8-2.22s-.24-2.08-1.78-2c-2.5.08-5,.12-7.51,0-1.84-.1-2.52.49-2.47,2.41C1759.34,193,1759.26,197.46,1759.26,202Zm13.86-.08c0,4.48,0,9,0,13.45,0,1.34,0,2.37,1.87,2.35s2-.79,2-2.25q-.06-13.54,0-27.1c0-1.47-.3-2.24-2-2.25s-1.88,1-1.87,2.36C1773.14,192.91,1773.12,197.39,1773.12,201.87Z"/></svg>