<?xml version="1.0" encoding="utf-8"?>
<!-- Generator: Adobe Illustrator 24.3.0, SVG Export Plug-In . SVG Version: 6.00 Build 0)  -->
<svg version="1.1" id="Capa_1" xmlns="http://www.w3.org/2000/svg" xmlns:xlink="http://www.w3.org/1999/xlink" x="0px" y="0px"
	 viewBox="0 0 1440 1024" style="enable-background:new 0 0 1440 1024;" xml:space="preserve">
<style type="text/css">
	.st0{fill:none;stroke:#00B4AA;stroke-width:0.25;stroke-miterlimit:10;}
	.st1{fill:#FDFDFD;}
	.st2{fill:#FCFCFC;}
</style>
<path class="st0" d="M1252.7,68.7"/>
<path class="st0" d="M1248.5,95.9"/>
<path class="st0" d="M1486.3,155.3c3.7,8.3-6.8,1.7-6.8,7.8c0,2.8,7.3,3.9,8.4,6.6c0.5,1.7,0,5.6,0,7.2"/>
<path d="M1288.5,95.4c0,10.2-8.1,18.4-18.2,18.3c-10.1,0-18.2-8.2-18.2-18.3c0-10.2,8.2-18.4,18.3-18.4
	C1280.4,77.1,1288.5,85.3,1288.5,95.4z"/>
<path class="st1" d="M1262.4,95.3c0-4.1,0-8.1,0-12.2c0-1.1,0.2-1.6,1.4-1.5c2.6,0.1,5.3,0.1,7.9,0c1.2,0,1.5,0.4,1.4,1.5
	c-0.1,3,0.3,2.4-2.5,2.5c-1.5,0.1-3.4-0.6-4.2,0.3c-0.9,0.9-0.2,2.8-0.3,4.3c0,2.8,0,2.8,2.9,2.8c2.3,0,3,1,2.4,3.2
	c-0.1,0.4-0.3,0.6-0.7,0.6c-0.2,0-0.4,0-0.5,0c-1.3,0-3.1-0.4-3.7,0.3c-0.9,0.9-0.3,2.7-0.3,4.1c0,3.9,0,3.9,3.9,3.9
	c0.1,0,0.2,0,0.4,0c2.9,0,3.3,0.5,2.8,3.4c-0.1,0.8-0.6,0.7-1.1,0.7c-2.8,0-5.6,0-8.5,0c-1.1,0-1.2-0.4-1.2-1.4
	C1262.4,103.7,1262.4,99.5,1262.4,95.3z"/>
<path class="st2" d="M1274.4,95.3c0-4.1,0.1-8.1,0-12.2c-0.1-1.7,0.9-1.4,1.9-1.4c0.9,0,2-0.5,1.9,1.3c-0.1,8.3-0.1,16.6,0,24.9
	c0,1.8-1.1,1.3-2,1.3c-1,0-1.9,0.3-1.9-1.4C1274.5,103.6,1274.4,99.4,1274.4,95.3z"/>
<path d="M228.5,801.7c0,10.2-8.1,18.4-18.2,18.4c-10,0-18.2-8.1-18.2-18c0-10.3,8-18.6,18.2-18.6
	C220.3,783.5,228.5,791.7,228.5,801.7z"/>
<path class="st1" d="M202.4,801.8c0-4.1,0-8.2,0-12.3c0-1.1,0.3-1.4,1.4-1.4c2.4,0.1,4.8,0,7.2,0c2.2,0,2.1,0,2.2,2.3
	c0.1,1.5-0.4,1.8-1.8,1.7c-1.3-0.1-2.6,0-3.9,0c-1-0.1-1.6,0.2-1.4,1.3c0.1,0.5,0,0.9,0,1.4c0,1.5-0.5,3.3,0.2,4.3
	c0.7,1,2.6,0.2,4,0.3c0.7,0,1,0.2,1,1c0.2,2.8,0.2,2.8-2.6,2.8c-2.7,0-2.7,0-2.7,2.6c0,1.5,0,3.1,0,4.6c0,0.8,0.2,1,1,1
	c1.6-0.1,3.2,0,4.8,0c1,0,1.3,0.3,1.3,1.3c0,2.9,0.1,2.9-2.8,2.9c-2.2,0-4.3-0.1-6.5,0c-1.2,0-1.5-0.3-1.5-1.5
	C202.4,810,202.4,805.9,202.4,801.8z"/>
<path class="st2" d="M218.2,801.8c0,4.1-0.1,8.2,0,12.3c0.1,1.6-0.8,1.4-1.8,1.4c-1,0-2,0.3-2-1.5c0.1-8.2,0.1-16.3,0-24.5
	c0-1.9,1.1-1.4,2.1-1.5c1.2-0.1,1.7,0.1,1.7,1.6C218.1,793.7,218.2,797.7,218.2,801.8z"/>
</svg>
