<?xml version="1.0" encoding="utf-8"?>
<!-- Generator: Adobe Illustrator 24.3.0, SVG Export Plug-In . SVG Version: 6.00 Build 0)  -->
<svg version="1.1" id="Capa_1" xmlns="http://www.w3.org/2000/svg" xmlns:xlink="http://www.w3.org/1999/xlink" x="0px" y="0px"
	 viewBox="0 0 1440 1024" style="enable-background:new 0 0 1440 1024;" xml:space="preserve">
<style type="text/css">
	.st0{fill:none;stroke:#00B4AA;stroke-width:0.25;stroke-miterlimit:10;}
</style>
<path class="st0" d="M228.88,841.57c128.39,25.71,266.06,1.83,378.28-65.63C673.5,736.06,731.58,680.67,768,612.37
	c17.96-33.67,30.69-71.3,28.45-109.4c-2.24-38.1-21.52-76.56-55.02-94.84c-33.84-18.46-79.28-12.57-107.28,13.92
	c-11.43,10.81-20.15,24.97-22.48,40.53c-3.55,23.76,8.26,47.81,25.57,64.48s39.54,27.13,61.67,36.48
	c36.14,15.27,78.22,28.21,113.45,10.95c15.61-7.65,28.02-20.53,38.78-34.18c70.29-89.15,79.27-212.76,138.5-309.61
	c57.83-94.56,164.66-157.23,275.43-161.57"/>
</svg>
