<?xml version="1.0" encoding="utf-8"?>
<!-- Generator: Adobe Illustrator 24.3.0, SVG Export Plug-In . SVG Version: 6.00 Build 0)  -->
<svg version="1.1" id="Capa_1" xmlns="http://www.w3.org/2000/svg" xmlns:xlink="http://www.w3.org/1999/xlink" x="0px" y="0px"
	 viewBox="0 0 1440 1024" style="enable-background:new 0 0 1440 1024;" xml:space="preserve">
<style type="text/css">
	.st0{fill:none;stroke:#00B4AA;stroke-width:0.25;stroke-miterlimit:10;}
</style>
<path class="st0" d="M206.3,822c126.6,32.5,265.1,16,380.5-45.3c68.2-36.2,129.1-88.3,169-154.5c19.7-32.6,34.4-69.4,34.2-107.5
	c-0.2-38.1-17.4-77.5-49.8-97.5c-32.7-20.2-78.3-16.7-107.7,8.2c-12,10.2-21.4,23.8-24.6,39.2c-4.8,23.5,5.7,48.1,22.1,65.6
	s38,29.1,59.5,39.6c35.2,17.1,76.5,32.3,112.5,17c16-6.8,29-19,40.5-32c74.8-85.1,90.3-207.8,154.5-301.2
	c62.7-91.2,172.5-147.9,283.1-146.4"/>
</svg>
