<?xml version="1.0" encoding="utf-8"?>
<!-- Generator: Adobe Illustrator 24.3.0, SVG Export Plug-In . SVG Version: 6.00 Build 0)  -->
<svg version="1.1" id="Capa_1" xmlns="http://www.w3.org/2000/svg" xmlns:xlink="http://www.w3.org/1999/xlink" x="0px" y="0px"
	 viewBox="0 0 1440 1024" style="enable-background:new 0 0 1440 1024;" xml:space="preserve">
<style type="text/css">
	.st0{fill:none;stroke:#00B4AA;stroke-width:0.25;stroke-miterlimit:10;}
	.st1{fill:none;stroke:#00B4AA;stroke-width:0.2251;stroke-miterlimit:10;}
</style>
<path class="st0" d="M-15.26,268.59c1.86,4.69,3.26,9.63,4.51,13.24c3.11,7.85,3.11,14.43,2.49,23
	c-0.61,13.14-1.88,21.67-11.2,30.24c-4.34,3.28-6.82,5.24-9.32,9.19c-0.61,1.29,1.23,4.57,0,5.9c-1.87,2.62-4.98,1.97-6.21,3.96
	c-9.96,10.52-17.41,26.96-9.34,42.05c0.63,2,6.23,7.24,6.23,7.24c1.23,7.91-1.26,4.62-5.6,8.56c-6.21,5.92-6.21,0.63-6.85,10.49
	c-0.61,3.28,0.65,10.52,1.26,13.81c1.85,13.14,9.94,9.21,16.14,19.72c8.09,12.52,8.71,25,19.28,36.17
	c17.41,18.41,18.64,52.6,41.02,67.7c11.2,7.24,21.75,5.27,31.71,16.43c5.59,5.93,16.78,12.5,19.26,19.72
	c1.86,6.57,0.63,17.76,1.25,24.33c0,8.54,0.61,17.1,0.61,25.62c0,2.64,0,7.9,0,8.57l-1.23,0.65c-0.63,17.09,5.6,32.22,7.45,48.64
	c1.87,17.76-1.84,36.81,0.62,55.22c1.87,11.84,2.49,23.66,2.49,36.16c0,11.16-5.6,20.37-4.33,30.23c0.61,9.86,7.44,18.41,8.7,28.27
	c0.61,5.91,0.61,14.47,3.72,19.72c3.1,5.92,3.72,3.28,8.09,6.57c17.41,13.81,14.91,47.99,24.23,67.71
	c3.73,9.2,4.36,16.44,6.86,24.98c3.11,10.52,13.66,21.04,19.87,30.9c6.22,9.86,11.81,15.12,23.01,10.52
	c4.36-1.32,4.98-7.89,11.81-3.95c4.37,2.64,4.98,9.86,8.09,13.8c4.99,7.89,10.58,9.2,19.28,8.55c3.72,0,8.06,1.97,9.93-1.97
	c3.11-7.88-4.98-5.92-8.7-7.88c-8.09-3.95-14.91-7.89-19.9-16.44c-2.49-4.6-3.1-9.2-6.21-13.15c-4.34-6.57-6.82-5.91-6.82-15.11
	c0.61-21.04,24.84-28.93,1.84-42.73c-8.06-5.26-14.27-9.2-6.83-19.06c2.49-3.94,7.47-3.94,9.32-8.54c1.26-3.29-1.23-8.55,0-12.5
	c3.1-11.18,11.19-9.86-0.62-17.75c-8.7-5.26-14.91-13.15,0-11.83c9.32,0.65,11.81,4.6,12.42-9.21c0-10.51-6.82-19.72,8.09-20.37
	c9.96-0.66,19.28,5.26,27.36-6.58c4.97-6.58,3.12-18.4,0-25.64c-4.35-9.86-16.77-18.4,0.63-16.43c7.44,0.66,11.81,3.95,20.51,0
	c9.93-3.28,6.21-3.28,8.7-11.19c1.23-3.28,1.84-5.91,3.1-9.19c1.23-2.62,4.33-5.26,5.6-10.52c2.49-11.82,4.34-19.06,12.42-28.26
	c12.42-12.5,18.02-19.72,15.53-38.8c-1.84-17.08-1.84-17.73,9.97-28.92"/>
<path class="st0" d="M311.87,662.41c14.3-19.07,43.51-4.59,56.55-23.66c5.59-8.55,8.09-20.37,11.81-29.59
	c4.36-9.86,11.19-21.01,11.81-32.2c0-15.76-11.81-39.43-3.72-53.91c2.49-4.58,6.82-6.58,10.55-9.86c6.24-6.57,4.98-10.52,8.08-18.38
	c4.37-11.86,16.79-15.15,18.67-28.29c1.23-7.88,0.62-19.05-0.65-26.96c-0.62-3.95-1.84-9.86-4.34-13.14
	c-4.98-6.57-4.98-3.29-11.81-3.95c-10.58-1.28-13.68-7.2-22.39-13.77c-10.55-7.23-18.02-9.87-30.44-11.18
	c-3.73-0.67-7.47-1.33-11.19-1.98c-4.36-0.64-7.47,0-11.19,0c-9.93-1.3-6.83-3.93-12.42-9.87c-4.37-4.58-13.07-9.2-18.67-10.49
	c-8.7-1.33-9.32,3.29-16.14,3.92c-0.62-3.92-0.62-8.53-3.11-11.81l-0.62-1.98c-6.22-7.22-10.58-3.28-13.07-14.46
	c-0.62-3.29,0.61-7.24,0-9.86c-1.86-3.95-6.22-3.95-7.45-7.91c-2.49-6.58,1.23-13.81-2.49-21c-3.11-5.96-11.81-12.53-17.41-15.81
	c-19.9-12.47-42.29,2.64-55.94-18.38c-6.24-9.19-8.7-12.5-17.41-17.77c-6.23-3.95-11.8-11.19-17.41-16.43
	c-8.7-8.53-8.7-11.81-20.51-8.53c-9.96,3.29-17.41,3.29-28.6,0c-4.98-1.33-9.97-2-14.3-3.95c-4.37-2-9.32-7.24-14.3-8.57
	c-8.7-1.28-13.05,9.86-21.75,6.57c0.62-2.62,7.45-9.19,4.34-12.47c-1.87-2.62-9.93,2.62-11.81,3.28c-8.7,4.62-21.75,5.91-28.6,11.19
	c-8.7,6.57-5.59,24.95-14.91,27.58c-8.7,2.67-6.83-5.24-10.58-8.53"/>
<path class="st1" d="M-10.34,250.61c6.44,6.2,1.79,12.71-5.23,18.01"/>
<path class="st0" d="M56.18,229.45c-2.49,2.62,9.11,32.4-6.63,21.87c-4.98-2.62-3.31-35.02-13.27-11.4
	c-9.12,23.67,16.58,43.85,34.81,46.47c13.28,1.75,18.22-0.87,18.22,14.02c0,5.29-4.13,10.52-3.31,15.81
	c0.82,6.98,8.29,10.49,9.11,15.77c3.31,16.63-10.75,9.65-19.89,14.01c-15.74,7.04-7.45,15.76-4.14,27.16
	c3.31,13.14-4.14,21.05-5.8,32.45c-0.82,6.98,4.98,7.87-1.65,14.02c-3.33,3.49-11.6,0-16.58,2.62c-18.23,8.78-19.9,55.23,1.64,63.97
	c6.65,2.64,9.14-6.11,15.76-1.74c4.96,2.62,1.64,9.65,5.8,14.01c14.1,13.14,23.21-7.86,34.81-10.52
	c16.55-3.49,13.24,19.3,20.72,26.31c7.44,7.88,21.53,0.88,29.83,7.88c4.98,5.27,3.31,10.52,7.47,14.89
	c4.95,6.16,9.11,7.03,12.42,13.14c0.82,1.77-1.68,7.03-0.82,8.78c2.46,4.38,5.8,3.5,9.93,7.03c8.29,6.99,19.9,12.27,19.07,26.3
	c-0.85,13.14-10.78,13.14-2.49,27.16c4.14,7.01,10.75,10.52,14.91,16.64c4.98,6.16,5.8,13.15,12.42,17.55
	c10.79,6.12,28.19-1.76,23.21,18.39c0,3.52-6.62,4.39-7.47,7.91c-0.83,3.49,3.34,5.24,3.34,7.88c0,7.02,4.13,11.39,0,18.41
	c-6.66,9.65-22.39,7.89-20.73,24.55c1.65,14.89,18.24,10.51,28.17,19.27c2.49,2.64,0.82,6.14,4.98,9.64
	c3.31,2.64,7.44,2.64,11.6,2.64"/>
<path class="st0" d="M-29.18,346c11.6,1.74,13.25,14.89,24.85,16.64c4.98,0.87,9.11-5.24,15.76-1.74c6.62,3.51,4.96,7.03,8.26,12.27
	c8.3,10.52,14.1,12.27,25.7,16.66c5.8,2.65,11.6,4.39,14.92,9.63c3.33,4.42,0.85,9.65,5.8,14.03"/>
<path class="st0" d="M9.76,363.51c0.82,8.78,4.14,26.31-2.49,32.44c-5.8,6.14-17.4,2.62-23.2,9.65c-4.14,5.24-0.82,20.13-8.3,21.9
	c-9.93,3.51-11.6-14.04-18.23-15.79"/>
<path class="st0" d="M91.81,338.97c8.3,3.54,5.8,12.28,11.61,15.81c9.11,6.11,18.22,0,23.2-7.91c7.47-14.01-12.42-28.03,2.49-33.32
	c10.79-3.49,26.52,8.78,31.5-11.38c1.64-7.87-3.31-10.49,0-19.27c3.31-8.78,10.75-10.53,10.75-21.05"/>
<path class="st0" d="M161.43,301.28c28.19,2.67-9.94,71.88,36.48,42.1c1.64-0.87,4.95,0,7.45-0.87c3.31-1.75,1.67-7.03,6.62-8.78
	c10.79-2.62,9.14,7.03,14.94,9.65c19.88,8.74,20.73-15.79,34.79-23.66"/>
<path class="st0" d="M232.72,293.43c-14.94,11.4-0.84,29.78-10.78,43.8"/>
<path class="st0" d="M197.07,289.02c0,9.65-11.6,18.42-9.11,28.08c2.49,6.11,9.11,5.24,11.6,12.27c0.82,2.62,0,8.73,0,11.39"/>
<path class="st0" d="M74.99,502.03c1.65,7.87,6.63,14.02,6.63,22.76c0,9.65-4.97,16.68-6.63,26.3c-2.49,16.66,16.59,31.55-4.15,36.8
	"/>
<path class="st0" d="M76.65,585.27c19.88,0,15.75,45.59,24.05,57.86c2.49,3.49,8.29,2.62,9.93,9.64c1.66,7.87-0.82,8.75-4.13,13.15
	c-3.31,4.37-8.29,3.5-10.78,8.74c-3.32,6.15-0.83,13.16,0,19.3c0.81,21.04-9.12,50.83,0.81,70.12c6.66,12.27,18.25,12.27,15.76,29.8
	c-0.84,7-4.98,12.27-5.8,18.4c-2.49,8.76-0.84,14.04,0,23.67c1.64,8.76-0.84,22.78,1.64,30.68c2.49,7.88,10.78,8.75,14.09,15.77
	c1.68,4.39-2.49,10.52,0,14.02c2.49,4.39,10.79,2.64,13.29,7.02c5.8,8.76-2.5,19.28-1.68,28.05c0.81,7.89,5.8,17.53,7.47,25.41
	c2.48,11.39,5.8,14.02,11.61,24.55c4.95,7.89,2.47,14.9,13.24,16.65c9.11,1.75,15.76-10.52,23.2-0.87"/>
<path class="st0" d="M225.85,728.15c-4.16,3.5-13.27,1.75-15.76,6.11c-3.31,6.15,4.16,14.02,5.8,19.3
	c3.31,10.52-4.13,31.54,8.3,33.3"/>
<path class="st0" d="M106.5,647.5c2.49-7,4.95-18.38,14.09-18.38c5.8,0.87,11.6,13.14,17.4,14.01c0-7.91,7.45-13.14,14.92-9.65
	c6.62,3.49,4.95,13.14,9.93,18.41c10.78,10.52,35.62,2.64,43.1,18.41c4.97,11.4-10.79,24.54,4.13,32.44
	c19.07,9.63,19.9-19.3,30.68-19.3"/>
<path class="st0" d="M193.52,606.32c-12.45-16.66-19.07-8.78-30.67,0.87c-14.92,12.27-9.12,10.52-8.29,28.91"/>
<path class="st0" d="M1429.05,200.28c-1.58,8.88,1.55,14.44-1.58,23.31c-2.1,7.22-1.06,13.33-7.35,15.54
	c-7.87,2.78-12.08-3.87-18.37-4.99c-7.87-1.12-10.5,7.2-18.89,4.99c-6.31-1.11-14.7-4.42-20.47-6.67
	c-7.35-2.76-12.08-9.98-19.95-9.43c-11.56,1.1-6.83,8.33-9.98,15.54c-4.71,12.78-11.02,0-17.83-2.76c-2.64-1.11-5.77,0.55-7.89-0.55
	c-3.68-1.68-3.14-4.45-5.77-6.66c-6.29-4.46-13.64-2.23-19.94-6.12l0.01-0.01c-2.62-2.21-8.39-4.44-8.91-8.32
	c-1.06-4.46,2.62-5.01,4.19-8.88c3.15-9.99-0.52-15.54-9.44-15.54c-14.18,0-28.35,4.43-42.51,5.55c-8.41,0.56-15.22,1.11-23.1,5.54
	c-6.29,3.35-11.02,7.77-18.89,6.11c-11.02-2.21-8.93-3.88-16.27,5.56c-6.29,8.33-16.28,11.64-19.42,22.2
	c-2.09,6.64-1.05,14.41-6.31,19.97c-4.72,5.01-11.02,9.98-15.74,14.99c-2.63,2.21-6.82,4.45-8.4,7.77c-2.1,3.32-0.52,6.67-1.58,9.43
	c-3.14,7.77-11.54,9.43-13.64,17.75c-1.58,7.77,2.1,16.68,3.15,23.86c1.04,9.46-1.58,14.44-3.67,23.31
	c-3.67,14.98-0.53,31.63,8.39,43.3c5.77,7.77,13.66,13.33,18.37,21.1c4.2,7.77,8.4,13.85,14.69,19.96
	c9.44,9.43,16.79,8.32,26.77,5.01c8.39-3.35,16.8,1.1,26.76-0.55c15.75-2.8,30.97-20.55,44.61-2.8c2.1,2.24,3.67,6.66,6.31,7.77
	c4.19,1.11,5.77-2.76,8.92-3.31c8.91,0,14.16,6.66,14.16,15.54c0,0,0,0.55,0,1.1l-0.52-1.66c1.06,16.65-12.08,27.18-1.06,41.62
	c4.73,6.67,12.08,10.54,15.76,17.75c3.67,6.66,2.61,14.43,5.25,21.65c2.61,7.77,2.09,14.44,3.67,22.76
	c2.1,11.09,2.62,10.53-3.15,19.98c-11.02,16.66-10.5,36.63,0.52,52.72c4.73,6.67,10.5,16.1,9.98,24.98
	c0,10.55-3.15,11.66,3.14,22.75c4.21,7.22,5.79,14.99,8.93,22.76c3.15,7.22,8.4,12.78,9.44,21.1c1.05,7.77-2.62,16.1,4.21,22.2
	c6.29,4.98,13.64,0,20.98-1.11c10.5-1.67,24.14-2.78,33.07-9.44c5.77-4.98,8.93-12.76,14.18-18.86
	c5.77-6.11,12.06-10.55,15.21-18.88c2.1-5.55,1.58-12.76,3.68-18.32c3.15-7.77,10.49-7.77,16.28-13.31
	c4.19-4.99,4.71-10.55,3.67-17.77c-1.06-7.22-4.73-13.31-1.57-20.53c2.62-6.66,11.02-12.22,16.79-16.09
	c7.87-5.55,17.84-10.56,21.52-19.99c3.14-7.22-0.54-14.44-1.58-22.21c-0.54-7.77,0.52-14.43-1.57-21.64
	c-3.15-8.33-3.15-9.99-2.63-18.32c0.54-15.54-5.23-31.63,11.56-40.51l-0.54-0.55c7.35-5.56,11.56-12.78,17.85-18.31
	c6.29-5.56,14.18-10.01,19.43-16.66c10.48-12.76,16.79-32.2,22.56-48.3c1.57-5.52,6.8-19.41-3.15-21.07
	c-4.73-0.55-13.12,8.88-18.89,9.43c-5.26,0.55-14.18,1.1-19.43,0c-11.54-2.21-7.87-7.77-10.48-16.65
	c-3.15-11.67-18.37-12.78-24.14-22.21c-3.15-4.45-0.54-11.64-3.68-17.2c-4.21-6.11-8.4-6.11-10.5-13.88
	c-1.06-5.56,0-11.64-1.58-17.2c-1.57-7.77-6.83-9.98-11.54-15.54c-4.21-6.11-5.78-12.22-8.4-19.44c-2.1-6.08-7.35-11.64-8.39-18.31
	c3.68-1.11,15.22,6.11,18.37,8.87c5.23,5.56,9.45,17.2,13.12,24.42c3.14,6.11,8.39,13.88,9.97,20.54c1.57,8.33-2.1,11.64,5.77,17.2
	c3.15,2.21,6.31,2.21,9.45,5.56c2.11,2.21,3.68,6.11,5.25,8.87c4.21,6.67,8.4,13.33,9.98,21.65c0.52,6.08-2.11,13.85,4.71,16.1
	c5.77,1.66,17.33-5.56,22.56-6.67c9.98-2.21,20.47-0.55,26.77-9.43c5.26-6.66,7.35-11.12,14.18-16.65
	c6.29-4.45,12.59-9.46,18.37-14.99c4.2-3.9,14.16-15.54,14.16-22.21c0-9.98-15.21-12.22-20.98-17.2
	c-5.78-5.56-4.73-14.99-13.12-7.77c-5.25,4.98-4.73,13.3-14.18,11.09c-2.1-0.55-8.41-6.11-9.45-8.32
	c-2.63-4.44,1.04-6.66-0.52-11.08c-2.11-3.9-9.98-4.46-13.12-7.77c-3.68-3.35-5.26-9.45-6.83-13.88l-1.06-1.66
	c2.1-10.56,10.5-6.66,14.69-1.68c6.31,7.77,6.31,12.77,15.22,16.67c6.31,2.77,13.66,6.64,20.49,6.08c3.67-0.55,5.23-6.08,10.48-2.76
	c3.68,2.76,1.58,6.67,3.68,9.43c4.73,4.45,14.18,2.22,19.95,2.79c5.25,0.56,11.02,3.33,15.75,3.33c8.91,0,17.31-7.77,26.24-1.66
	c4.71,3.87,5.25,11.64,9.44,17.2c1.58,1.66,3.15,1.66,4.71,3.32c0.54,1.69-0.52,4.45,0,5.56c2.64,4.45,3.68,6.66,8.41,7.22
	c9.45,1.66,2.61-4.45,8.92-7.22c6.83-3.32,6.29,4.45,6.29,9.43c0,5.01-2.61,10.57-2.1,15.54c0.52,6.66,5.25,8.88,7.87,14.99
	c3.15,5.56,0.54,11.67,3.15,17.75c2.1,6.11,7.35,9.46,9.45,16.1c3.67,10.57,7.87,18.89,12.6,28.87l-0.52-1.65
	c4.71,7.77,10.48-3.35,13.63-7.22c6.3-7.77,3.15-7.77,3.68-18.31c0.52-7.77,2.1-16.1,2.63-23.86c0.53-9.46,6.3-11.67,12.59-17.79
	c5.25-5.53,13.12-9.98,17.33-16.65c5.25-7.77,4.19-10.53,12.06-16.09c4.73-3.31,13.66-9.43,19.95-6.11c4.73,2.24,2.1,3.9,4.2,7.22
	c2.63,3.9,4.21,5.56,7.89,8.89c6.29,6.1,8.9,11.66,11.02,20.54c1.03,5.56-0.54,16.1,6.8,16.1c6.83,0,6.31-13.33,12.09-11.09
	c3.14,1.66,5.77,16.65,7.35,20.51c5.77,12.23,8.39,23.87,7.87,37.75c0,6.66-1.58,11.67,1.06,17.75c3.13,6.11,9.44,11.67,13.12,18.34
	c3.13,6.08,5.25,14.42,9.96,19.41c5.77,6.66,13.12,10.55,12.6,0.55c-0.52-6.1-2.1-16.65-3.68-22.21
	c-2.62-7.77-11.02-9.43-16.27-15.54c-12.6-12.75-13.64-21.07-11.54-38.27c1.58-10.57,4.19-10.02,12.06-5.56
	c8.93,5.01,10.51,7.22,14.7,14.98c1.06,2.21,4.21,4.98,5.25,6.67c0.54,1.66,1.58,9.43,2.64,9.98c6.29,5,9.96-5.01,13.12-8.32
	c5.25-6.66,13.12-8.88,14.7-17.75c1.04-6.67-0.54-19.45-3.68-24.45c-6.82-11.64-32.03-27.18-20.46-43.28
	c4.71-6.67,13.11-6.67,18.89-2.21c2.09,1.1,0.52,8.87,7.35,6.09c1.58-0.56,1.58-6.64,4.19-8.33c2.1-1.66,5.77-0.56,7.87-1.66
	c4.21-1.66,5.78-6.11,10.51-6.66l-1.06,0c25.72-4.42,30.97-36.05,32.55-58.26c-9.96-0.55-2.1-5.56-2.62-10.53
	c-0.54-3.9-9.44-12.78-12.08-16.1c-2.62-3.34-11.02-10.56-12.06-14.43c-1.06-6.67,7.87-11.12,11.54-14.99
	c-5.26-5.56-13.12,1.1-19.43-1.1c-2.61-1.12-13.12-9.45-13.12-12.23c0-3.87,13.66-14.98,17.33-14.43
	c8.39,1.67-1.06,12.78,6.29,15.54c8.93,3.35,10.51-14.98,19.95-1.66c2.62,3.33,0.52,4.45,4.71,8.32c3.15,2.79,5.79,2.22,8.4,6.66
	c3.68,6.11,1.57,11.66,3.68,17.2c1.57,5.01,0.52,5.01,6.29,5.01c1.06,0,8.41-2.79,9.46-3.35c17.32-13.85-16.27-24.97-18.9-36.06
	c-1.04-7.22,5.77-9.43,6.31-16.65c0.52-6.67-4.21-16.65,8.38-12.78c3.68,1.11,2.64,6.11,7.88,5.56c5.78-0.55,4.72-2.79,4.72-7.77
	c0.52-3.34-2.1-7.22-1.58-11.11c0.53-4.43,2.64-7.21,3.68-11.09c1.57-6.11,2.1-12.77,3.15-19.42c2.1-8.88-0.52-9.44-4.73-17.21
	c-5.24-8.33-5.24-12.75-15.21-16.1c-6.29-1.66-12.06,0-17.85-1.66c-4.19-1.1-4.19-2.21-7.35-3.88c-1.56-1.12-6.29-3.34-7.35-4.45
	c-4.2-2.77-3.14,1.11-4.2-5c-0.52-2.77,1.06-8.33,2.1-11.1c2.63-5.55,6.82-15.54,12.6-17.75c2.63-1.12,8.41-0.56,11.54,0
	c3.15,0.55,7.35,3.87,9.98,3.87c4.2,0,5.26-3.32,8.39-4.43c5.78-1.11,6.83,2.77,11.02,3.88c3.15,1.11,7.35,2.78,11.03,1.11
	c6.82-2.22,3.15-1.66,3.15-6.65c0-3.88-2.1-17.77,7.87-12.21c4.73,2.77,6.31,16.09,14.69,7.77c3.15-2.23,0.52-7.77,4.2-9.99
	c4.73-3.34,7.88,0,8.4,4.43c1.06,5.01-3.68,6.66-4.73,10.55c-1.04,4.99,1.58,7.77,0.54,12.21c-1.05,4.45-6.31,1.66-5.77,7.77
	c0,3.34,5.23,7.22,6.81,9.43c5.25,7.22,10.5,14.43,16.79,20.55c2.63,2.76,14.7,16.09,18.37,14.43c5.26-2.23-0.52-6.11-0.52-8.33
	c0-1.67-0.52-2.79-0.52-4.45c0.52-2.77,3.68-2.77,4.19-4.44c1.06-3.89-1.05-6.1-1.58-10.55c0-1.11,3.68-1.66,3.68-4.99
	c-0.53-2.23-3.68-3.89-4.2-5.54c-1.57-3.34-2.1-8.88-4.73-11.11c-3.68-4.99-7.87-2.22-12.06-4.99c-8.4-6.11-4.73-14.43,4.19-13.88
	c4.73,0.56,7.35,3.89,12.08,3.89c3.68-0.56,8.39-3.89,11.54-5h-0.52c6.29-3.89,4.71-11.1,13.12-12.77
	c6.29-1.11,15.73,1.67,6.81-6.66c-2.61-3.33-20.47-8.89-8.9-14.98c6.29-3.33,18.89,7.77,25.18,8.32c2.1,0.56,6.82,1.67,8.4,0
	c4.2-4.44-1.06-5-2.09-8.32c-4.73-10.55-6.84-8.32-16.8-10.55c-14.69-3.88-30.44-4.44-44.62-9.98
	c-16.26-5.55-43.55-15.54-60.88-10.55c1.06,2.23,2.63,5.55,3.67,7.22c-5.77,2.78-12.06-3.89-17.83-5.55
	c-7.88-1.67-17.33,0-25.2,0.55c-8.93,0-12.06-2.23-20.47-5.56c-7.35-2.77-17.31-1.1-25.2-1.66c-11.54,0-15.73-0.56-25.18-6.66
	c-11.03-6.66-21.01-6.1-33.07-6.1c-5.77,0-15.22-1.67-19.43,2.22c-4.71,3.88,0.54,6.66-6.81,8.33c-3.16,0.56-7.89-1.66-11.03-1.66
	c-6.82,0-5.79,2.78-11.02,4.44c-7.34,2.21-11.56-3.88-16.27-7.77c-8.93-7.22-23.62-12.21-35.17-11.65
	c-4.19,0.55-7.34,3.88-12.6,4.44c-6.82,0.55-13.64-3.88-20.98-4.44c-12.08-0.55-25.72,7.22-37.28,3.33
	c1.57-6.66,12.08-3.33,12.08-11.65c0-6.66-7.87-7.77-12.6-7.22l0.52,0c-5.77,0-11.02,2.22-15.74,1.67c-4.73-0.55-11.54-3.33-15.75-5
	c-5.23-1.66-8.91-5.54-14.7-2.77c-5.23,2.22-3.67,6.1-7.35,8.33c-3.14,1.66-7.35,1.11-10.48,1.11c-6.31,0-11.56,0-17.33,1.66
	c-2.62,0-6.81,1.11-9.44,1.67c-6.29,2.22-3.68,2.22-7.35,5.54c-3.68,3.33,0,3.33-6.29,5c-2.64,0.56-6.31-1.11-8.93,0
	c-11.54,3.88,1.58,4.99,2.1,11.65c-4.71,1.67-34.64-6.66-33.06,4.45c0.54,1.66,6.3,6.66,7.88,7.77c1.04,0.55-0.54,3.32,1.04,4.43
	c2.1,1.67,5.26,0.56,6.83,1.67c4.19,2.78,3.68,0.56,3.68,7.22c0,2.77,0.52,6.1-1.06,8.32c-4.71,5.55-16.27,2.78-16.27-4.44
	c0-3.88,3.15-5.55,2.63-9.98c-1.06-3.89-6.31-9.44-7.87-12.22c-4.73-7.21-6.31-14.43-15.76-13.87c-10.5,0.56-13.63,7.21-6.29,14.98
	c3.68,3.34,16.25,13.32,3.68,12.22c-6.83-0.55-11.56-7.77-18.91-8.32c-9.45-0.55-12.58,5.55-19.93,8.32c-5.79,2.22-15.75,0-22.04,0
	c-6.31,0-35.7,12.76-37.28,10.54c-1.04-2.77,5.25-4.44,4.21-7.21c-1.06-2.77-7.35-3.88-9.98-2.77c-11.02,4.44,4.21,9.43-4.19,16.1
	c-2.1,2.22-6.83-0.55-9.96,1.1c-4.21,2.22-2.64,5-4.73,6.66c-5.77,5.55-8.39,0-15.73,0c-4.21,0-1.57,4.44-7.88,1.66
	c-0.52,0-6.81-6.66-6.81-7.77c-0.54-5.54,9.97-2.77,14.7-2.77c4.71,0,14.7,2.21,16.26-3.33c2.64-7.77-9.96-8.88-14.16-10.55
	c-11.56-3.88-25.71-7.22-36.22-11.1c-5.25-1.66-8.38-5.55-15.21-4.44l-0.01-0.55c-15.21-0.55-26.23,3.89-40.93,6.66
	c-13.12,2.77-21.01,22.75-30.97,32.74c-4.73,5-11.54,9.43-17.85,12.21c-8.93,3.88-15.22,2.22-17.31,13.32
	c-1.06,5.55,0.52,15.54,4.71,19.43c6.31,6.1,11.56-0.56,17.33-3.34c8.39-4.43,11.02-1.66,14.16,7.21
	c1.05,2.78,4.21,18.88,5.25,19.44c4.22,3.32,17.33-6.11,18.37-10c1.57-2.77-0.52-7.21,1.06-9.99c1.58-3.88,5.77-4.44,7.35-7.77
	c4.71-9.43-6.83-12.21-4.19-21.64c2.61-8.89,12.06-7.77,16.79-13.32c4.71-5,5.23-14.43,13.64-11.66c11.02,3.34-1.06,11.1-5.25,16.09
	c-9.45,11.11-1.58,27.76,12.07,23.87c4.71-1.66,12.06-6.1,17.31-4.43c8.93,2.77,4.73,9.43-2.62,10.54
	c-4.21,0.55-12.08-3.89-15.23,0.55c-3.67,6.11,4.21,4.45,3.67,7.77c-1.55,5.56-4.71,3.9-8.38,5c-4.19,1.11-5.25-2.22-8.4,3.88
	c-1.04,2.23,0.54,6.66,0,8.88c0-0.55-7.35,7.77-6.29,7.21c-6.83,3.9-2.63-1.66-8.4-2.22c-7.35-0.55-12.06,8.33-19.41,8.33
	c-5.25,0-4.73-4.44-8.41-5.55c-4.71-1.11-7.34,2.79-11.54,2.23c-13.12-0.56-6.29-7.77-5.77-14.99c1.04-11.11-9.97-7.77-11.54,0.55
	c-1.06,5.55,6.81,12.76,1.57,17.75c-3.15,3.89-14.18,2.22-19.42,6.66c-4.73,3.88-8.93,9.98-14.18,13.32
	c-2.62,2.21-5.77,3.32-7.87,5.54c-2.1,2.23-3.15,7.77-6.29,8.89c-3.68,0.55-14.7-11.66-12.6,1.67c-5.25,1.11-14.18-1.67-15.75,4.98
	c-2.62,8.88,5.77,5.55,9.98,7.21c8.39,3.35,17.31,24.42,4.19,28.87c-9.96,3.32-26.24-5.56-36.74,0c-6.29,3.32-3.68,11.09-4.19,17.75
	c-1.06,7.22-4.2,9.43-7.35,14.99c9.97,4.45-2.09,13.88,10.51,16.1c7.34,1.1,13.64-2.21,16.79,7.22c5.77-6.67,8.39-1.11,15.21-3.32
	c5.25-1.68,3.15-3.34,7.35-7.21c2.62-2.79,7.87-3.9,9.44-6.66c1.05-2.78-1.58-8.32,0-11.67c1.05-3.32,4.19-5.53,6.83-7.21
	c8.39-4.99,8.91-2.77,13.12-11.65c3.14-6.67,2.1-7.22,10.48-6.67c3.15,0,7.35,1.66,10.5,0.55c1.58-0.55,1.06-3.87,2.09-3.87
	c2.64-1.12,4.22,0.55,6.31,0c6.81-1.67,12.59-3.9,16.79,4.98c1.58,3.35-0.53,7.77,2.1,11.12c1.58,1.1,8.39,2.76,9.96,3.31
	c3.16,1.66,11.02,3.34,13.12,5.56c3.15,3.87,1.06,8.32,2.11,12.76c4.71,19.43,4.2-12.21,12.58-8.33
	c4.21-8.88-25.18-21.63-28.85-28.85c-3.67-6.66-2.64-17.77,6.29-12.78c3.15,1.66,4.73,8.32,7.35,10.55
	c3.15,2.78,6.31,2.23,9.44,4.44c5.25,2.77,12.08,8.32,14.69,13.88c1.06,2.77,1.06,4.42,1.58,7.22c1.05,4.42,0.52,5.54,2.62,8.88
	c1.57,3.31,5.25,6.11,6.3,8.87c1.04,2.21,2.62,9.98,4.19,11.09c6.31,5.55,12.09-4.98,12.09-9.99c0-4.44-4.22-10.53-2.64-14.99
	c2.1-5.54,11.02-3.87,16.28-4.42c2.63,3.87,0,6.65,0.52,11.09c0.54,5.01,3.68,7.22,5.79,11.66c1.56,2.78,2.62,6.09,5.77,7.77
	c1.56,1.12,3.68,0,5.77,0.56c0,0,5.25,3.32,4.71,3.32c4.21,0.55,4.73-1.66,9.45-2.21c4.21-0.55,6.82,2.76,11.02,2.76
	c5.78-0.55,14.18-9.98,18.91-1.1"/>
<path class="st0" d="M1432.98,113c-2.38,1.66-3.15,3.74-6.11,4.78c-3.14,1.04-6.87,0.42-9.84,1.88c-4.13,2.08-2.16,4.36-1.97,8.11
	c0.2,2.92-1.19,6.04-4.52,5.62c-6.5-1.04-6.9-11.64-12.99-13.31c-9.85-2.49-13.59,10.41-16.94,17.47
	c-1.56,3.55-4.52,6.47-5.51,10.21c-0.97,4.16,1.78,6.04,4.15,9.16c1.97,2.71,4.33,8.11,8.26,6.25c1.38-0.64,1.97-2.3,3.94-2.92
	c2.57-0.62,5.12,0.84,7.67,0c1.97-0.62,3.35-2.92,4.92-4.16c2.16-1.46,4.92-2.08,7.48-2.29c6.1-0.64,12.41,2.49,17.53,5.41
	c4.71,2.5,8.64,5.2,13.96,3.96c3.74-1.04,9.85-1.68,12.6-4.58c5.51-6.24-3.15-13.33-7.67-16.24c-3.94-2.49-8.28-4.37-12.41-6.45
	c-2.16-1.04-6.68-2.29-7.87-4.59c-2.56-5.82,4.71-4.78,6.9-7.28C1437.31,121.11,1437.89,113.2,1432.98,113"/>
<path class="st0" d="M1509.15,114.66c-6.29,0-10.03,1.25-14.96,5.82c-2.55,2.72-7.28,6.47-7.67,10.63
	c-0.39,4.99,5.12,11.87,7.87,15.4c2.36,2.71,4.32,5.61,6.5,8.53c1.76,2.7,5.1,5.2,6.29,8.52c0.97,2.72,0.78,8.33,0,11.24
	c-0.79,2.93-3.15,5.2-3.35,8.53c-0.2,6.03,3.93,6.25,8.27,7.49c4.71,1.46,7.67,6.05,12.58,7.49c10.63,3.12,16.73-8.11,12.6-18.11
	c-2.36-5.41-9.25-6.24-11.41-11.23c-2.16-5.01,2.76-4.38,5.71-3.75c4.73,0.82,6.5-1.46,4.13-6.24c-2.36-4.58-6.87-6.46-11.41-7.7
	c-5.71-1.67-10.83-4.39-14.56-9.59c-2.55-3.32-4.33-10.19,1.38-11.64c2.96-0.63,5.51,1.86,8.67,0.19c3.14-1.86,2.94-6.03,1.97-9.36
	c-1.38-4.36-7.28-6.66-11.6-6.44"/>
<path class="st0" d="M1199.75,37.65c-0.97,0-2.94-0.41-3.14-1.45c-0.6-2.3,2.36-1.88,2.94-3.12c2.17-4.38-6.88-4.38-9.05-2.92
	c-5.3,2.92-6.29,14.57-4.13,19.77c1.77,4.38,7.67,6.66,11.02,8.96c1.78,1.45,5.51,6.87,3.74,9.37c-1.77,2.49-5.7-0.41-7.67,2.29
	c-2.16,2.5-3.16,7.7-0.59,9.79c1.17,1.04,3.35,0,2.94,2.5c-0.2,1.86-2.94,1.66-4.13,2.28c-2.55,0.84-4.93,2.92-3.93,6.46
	c1.58,5.41,6.29-1.25,9.05-2.3c4.52-1.86,8.06,1.47,12.19,0.84c2.38-0.22,2.76-2.08,4.34-2.92c1.58-1.04,3.14-0.2,4.72-0.62
	c3.94-1.04,1.77-4.37,3.94-7.5c0.98-1.45,2.95-1.45,3.14-3.54c0.2-2.08-1.77-3.96-3.14-5c-1.57-1.25-3.54-1.66-4.92-3.12
	c-1.77-1.66-2.57-4.16-3.93-6.24c-2.16-3.33-8.28-6.45-8.86-10.83c-0.8-5.2,4.32-3.33,5.9-6.66c3.35-6.86-7.09-5.82-9.84-5.82"/>
<path class="st0" d="M1173.97,54.72c-3.74,1.67-3.33,5.41-7.27,6.03c-3.74,0.62-6.7,0.21-6.7,5.42c0,3.12,4.13,4.57,3.15,7.49
	c-0.99,3.12-5.51,1.87-4.73,6.45c1.38,8.54,11.8-0.41,15.34-1.25c3.16-0.62,6.12,0.21,8.08-3.54c1.58-2.91-0.6-5.82,0.39-8.94
	c1.58-4.58,4.93-4.78,1.19-9.57C1180.09,52.64,1178.31,52.85,1173.97,54.72"/>
<path class="st0" d="M1265.49,160.86c-5.51,0-4.93,4.38-5.32,8.74c-0.39,4.78-0.58,8.32,5.32,8.13c5.7-0.42,6.29-3.97,6.29-9.17
	c0-4.16-0.19-8.12-5.51-7.7"/>
<path class="st0" d="M1264.31,148.99c-6.09,0.85-0.98,9.37,3.95,6.47c3.53-2.3,0.2-7.71-3.54-6.66"/>
<path class="st0" d="M1297.98,183.13c-3.35,0-12.21-2.28-11.82,3.34c0.2,2.71,1.58,2.9,3.74,3.75c2.96,1.04,2.38,1.46,4.34,3.54
	c7.87,9.14,11.22-11.87,3.54-10.82"/>
<path class="st0" d="M1411.91,206.25c-2.16-0.23-5.31,0-5.9,2.7c-0.78,4.16,3.74,2.91,6.1,3.54c2.18,0.62,4.73,2.9,5.32-1.46
	c0.6-3.33-2.36-3.74-4.72-4.59"/>
<path class="st0" d="M1726.43,407.08c-6.5,0.2-3.94,10.83-4.34,14.99c-0.19,2.92-1.36,5.2,0.61,7.48c1.77,2.08,4.52,3.12,6.68,2.3
	c1.78-0.62,4.73-3.55,5.91-5.01c2.56-2.7,1.97-4.98,0.4-8.1c-1.77-3.77-4.73-11.47-9.25-11.86"/>
<path class="st0" d="M1857.5,460.57c-3.74-3.32-7.09-6.02-10.04-10.18c-1.97-2.73-3.35-6.47-5.51-8.97
	c-2.75-3.53-16.92-6.66-19.28-2.08c-3.15,6.47,8.45,10.63,11.61,13.13c4.53,3.74,10.44,9.56,12.01,15.61
	c1.56,5.82-1.77,9.14,2.17,14.57c4.32,5.62,8.86,10.6,12.6,16.84c3.74,6.24,8.26,13.33,13.77,17.92c2.16,1.85,7.29,6.02,10.64,4.98
	c3.74-1.24,4.13-5.82,4.13-9.14c0-4.79,2.16-13.95-0.39-17.92c-2.56-3.93-8.67-3.31-11.02-7.48c-2.36-4.16,0-8.75-3.74-12.71
	c-4.93-4.97-11.02-8.52-15.95-13.52c-0.39-0.42-0.98-1.04-1.37-1.46"/>
<path class="st0" d="M1922.65,528.63c-3.74-0.63-5.51,2.08-9.25,2.08c-3.54,0-8.06-3.33-11.41-4.79c-3.35-1.46-5.9-2.7-9.25-0.81
	c-1.77,1.04-5.51,3.94-4.92,6.44c0.99,3.74,8.47,3.74,11.22,5.42c4.92,2.71,7.67,1.87,13.18,2.08c4.53,0.21,6.5,3.12,10.44,4.57
	c5.12,1.88,11.41,1.04,16.73,1.88c2.96,0.42,12.41,2.08,11.02-3.74c-0.98-4.16-6.9-2.5-9.25-4.79c-1.38-1.25-1.38-3.95-2.75-5.2
	c-1.77-1.25-4.72-1.67-6.88-1.67c-2.57,0-6.11,1.46-8.08-1.45"/>
<path class="st0" d="M1968.9,433.32c-3.16-1.46-5.71-5.62-8.87-6.66c-4.71-1.66-6.48,5.4-8.45,8.75
	c-3.55,6.44-10.64,7.9-15.37,12.91c-3.55,3.32-5.51,7.67-9.25,11.02c-2.74,2.08-4.91,4.16-8.45,3.74c-4.54-0.62-5.71-1.66-7.89,3.55
	c-2.16,4.78-2.75,11.23,0.21,15.6c1.78,2.5,4.72,3.96,6.1,6.44c1.58,2.73,0.59,5.43,1.18,8.12c0.98,6.24,4.72,4.37,8.65,5.82
	c2.17,0.84,3.55,3.12,5.52,3.97c2.96,1.24,3.15,0.2,5.32-0.84c2.96-1.44,4.32-0.81,7.48,1.27c3.35,2.27,6.9,4.97,10.63,1.85
	c3.35-2.89,2.55-8.94,2.55-13.11c0-5,0.8-7.28,4.54-10.21c3.14-2.28,3.94-3.32,4.71-7.28c0.6-4.16,0.6-4.16,3.94-5.61
	c2.18-0.83,2.57-0.21,3.15-3.13c0.58-2.48-0.59-5.21-1.58-7.68c-1.97-4.81-6.68-10.63-3.14-16.03c1.98-2.71,6.49-3.54,6.1-7.92
	c-0.39-4.17-4.13-3.13-6.89-4.37"/>
<path class="st0" d="M1907.3,326.32c-4.15-1.04-9.66-2.49-9.85,3.35c-0.2,4.97,3.35,7.28,7.88,7.28c2.36,0,6.68-2.31,7.29-5.01
	c0.78-2.9-2.57-6.03-5.12-5.4"/>
<path class="st0" d="M1974.21,284.28c-5.9-1.24-4.93,5.63-7.29,8.75c-1.77,2.08-4.53,1.66-3.34,5.2c0.59,2.08,3.34,3.55,4.73,5.43
	c1.36,2.08,2.55,4.35,5.71,2.47c2.94-1.66,1.97-6.02,2.16-8.94c0.39-5.62,2.76-7.48-1.19-12.29"/>
<path class="st0" d="M2047.83,160.04c-3.94-0.42-4.14,4.16-2.96,6.87c1.78,3.95,3.74,5.62,3.74,10.19c0,3.75,0.2,8.53-2.16,11.85
	c-2.36,3.54-7.28,3.96-9.45,7.7c-2.36,4.39-0.19,5.2-5.32,6.24c-3.74,0.84-6.5,1.27-10.44,1.46c-4.71,0.21-7.68,3.12-8.65,7.91
	c-0.2,1.26,0.39,3.76-0.4,4.8c-0.99,1.86-2.17,0.4-3.54,1.24c-2.76,1.47-3.54,5.62-2.18,8.53c1.97,3.77,6.11,3.77,8.08,7.7
	c1.57,3.76,4.32,6.24,6.68,0.85c1.97-4.38-1.37-11.45,4.54-13.52c1.57-0.62,3.34,0.2,4.92-0.62c2.36-1.46,1.96-3.77,3.33-5.85
	c3.35-5.4,5.71,0.23,9.45,1.04c1.98,0.42,3.15-0.4,4.73-1.44c3.54-2.3,6.48-4.17,10.44-5.84c3.53-1.24,5.51-3.12,5.71-7.48
	c0.19-4.38-0.99-9.36-1.78-13.52c-0.6-2.08-1.38-4.16-1.77-6.24c-0.59-3.35,0.2-6.66-0.39-10c-0.8-4.57-8.08-11.45-12.6-12.27"/>
<path class="st0" d="M2045.66,133.6c-3.54-1.67-11.22-7.29-10.44,0.63c0.39,3.74,3.15,6.66,0.2,9.79c-1.58,1.45-3.74,0.62-3.55,3.94
	c0.2,2.92,3.15,3.96,5.12,5.43c1.77,1.04,3.35,2.7,5.71,1.66c1.38-0.84,1.78-3.12,3.15-3.74c3.55-1.46,6.1,3.74,9.64,1.66
	c1.18-0.84,1.57-2.92,2.75-3.97c1.18-0.81,2.96-0.62,3.94-1.66c2.56-2.08,1.57-5.62-0.4-7.9c-3.13-4.16-5.71-2.08-9.64-3.12
	c-2.16-0.62-3.55-2.5-5.9-2.71"/>
<path class="st0" d="M2011.8,73.46c-1.57-1.45-10.83-11.24-12.4-6.46c-0.59,2.3,3.74,5.2,5.11,6.46c1.77,1.86,2.76,3.33,4.14,5.83
	c2.75,5.2,4.13,9.36,4.72,14.98c0.58,5.4,4.92,8.11,7.09,12.68c1.77,4.16,2.75,10.41,6.69,13.12c3.75,2.49,6.3,0.83,6.49-3.53
	c0.19-5.2-3.55-6.25-5.32-10.21c-1.37-3.55,0.39-7.7-1.17-11.02c-1.57-3.55-6.3-4.16-8.27-7.29c-1.78-2.71-0.78-6.04-1.97-8.96
	c-0.98-2.08-3.35-4.58-5.12-5.83"/>
<path class="st0" d="M1524.3,575.89c-8.26,0-10.63,19.97-18.89,24.13c-4.73,2.08-8.26,0.84-12.6,4.16
	c-5.51,3.75-6.29,7.91-6.29,14.56c0,7.51,1.58,14.17-1.97,20.41c-3.55,6.65-7.48,10.41-5.52,18.73
	c2.75,12.48,9.45,27.47,22.44,16.23c3.93-3.33,4.71-5.41,5.9-10.41c1.58-6.66,4.32-9.98,7.87-16.23c5.12-9.16,2.76-20.81,6.3-30.82
	c1.97-4.98,2.75-12.06,5.51-16.22c2.36-4.16,5.51-1.66,5.11-8.75c-0.4-4.58-1.98-15.8-6.69-16.22"/>
<path class="st0" d="M2115.51,498.04c9.85,3.76,19.69,1.25,27.16,10.42c3.55,4.98,3.94,9.99,9.85,12.88
	c3.14,1.69,3.3,1.14,7.07,3.77c6.18,4.31,1.07,12.21-1.17,12.21l-0.41-0.15c3.25,4.07,24.81,20.81,17.33,23.73
	c-1.97,0.81-4.33-2.5-6.31-2.93c-2.36,0-3.94,2.08-5.51,1.66c-5.9,0-8.64-5.4-11.41-10.41c-2.75-4.98-4.71-11.23-11.8-10.82
	c-7.48,0.84-8.27,10.41-14.18,12.49c-1.57,0.42-7.48,0.42-9.06,0c-3.14-1.24-2.74-3.75-4.71-5.41c-6.31-5.82-11.42,2.92-16.53,0
	c-7.09-4.16,3.93-8.32,5.11-11.25c2.75-6.66-3.95-11.22-7.88-14.15c-5.9-4.59-10.62-6.66-17.31-8.74
	c-5.51-1.24-11.41,1.66-12.99-3.74c-2.36-8.75,5.51-5.82,7.48-9.17c2.75-4.98-9.83-2.08-12.6-5.4c-7.87-8.32,9.83-14.99,15.75-8.75
	c7.07,7.49-1.18,31.21,14.16,13.33c10.24-11.24,16.53-6.66,27.55,0"/>
<path class="st0" d="M2123.4,565.48c-8.67,4.56-10.25,24.13-12.6,32.88c-1.19,5.4-3.15,12.91-8.67,14.14
	c-7.48,1.67-12.19-6.24-16.92-10.41c-4.32-3.74-10.23-7.07-7.48-14.14c1.57-4.16,9.05-8.33,8.26-13.33
	c-1.17-6.24-11.41-2.08-15.74-3.31c-4.32-1.27-7.87-7.09-12.6-3.35c-1.58,1.27,0.39,4.59-1.18,5.84c-1.57,1.67-3.14,0-4.72,0.4
	c-5.12,1.27-6.3,0-9.84,6.25c-3.54,6.25-4.73,20.41-13.78,12.9c-3.55-2.9-1.97-5.82-7.09-6.66c-4.71-0.83-8.26,2.92-11.02,5.84
	c-2.75,2.9-5.9,4.98-8.65,7.48c-2.76,3.34-3.15,7.91-5.12,11.25c-10.24-9.58-10.24,9.15-16.14,15.8c-5.13,5.43-7.48,6.25-14.57,6.66
	c-7.87,0.42-10.22,5.42-17.31,6.24c-10.63,0.84-12.6-1.24-16.53,9.17c-1.97,5.4-6.7,9.57-8.66,14.99c-0.78,3.32,0.39,6.24,0,9.56
	c-0.78,3.34-1.97,4.16-3.55,7.08c-4.32,7.48-0.78,9.57,0.8,17.9c0.78,5.42-0.4,11.24,0.39,16.65c0.39,3.75,3.93,9.15,3.15,13.32
	c-1.58,6.24-11.02,5.42-11.82,13.75c-1.17,17.06,25.97,0.41,32.29,0.82c5.9,0.42,11.02,3.34,16.92,1.26
	c7.09-2.08,10.64-7.5,18.5-9.16c16.53-3.74,28.72-21.23,46.83-9.98c2.37,1.66,7.48,5.4,9.44,7.48c3.55,3.34,1.58,4.58,2.38,8.74
	c3.14,13.32,8.65-2.08,15.34,2.08c1.97,1.66,3.15,14.99,3.94,17.91c1.19,7.49-3.55,12.9,4.73,15.4c3.55,0.83,8.65,0.41,12.19,0.83
	c1.18,0,3.15,1.25,4.34,0.83c1.56-0.41,2.36-2.92,3.14-2.92c5.91-1.25,10.64,3.33,16.92,0c2.76-1.25,4.34-3.33,7.49-4.16
	c3.94-0.83,6.3,0.83,10.23-1.25c10.24-4.99,4.32-13.31,11.41-19.98c2.76-2.92,8.67-4.16,10.63-7.9c1.57-3.75-0.78-5.83,2.36-9.59
	c5.51-7.07,10.63-6.24,13.79-14.98c5.11-14.57,16.53-22.48,15.73-39.97c-0.39-10.41-6.29-11.64-9.83-19.97
	c-1.19-2.51-0.39-5.83-1.57-7.92c-1.97-4.16-4.32-4.16-6.29-9.15c-0.8-2.92-0.8-6.66-2.37-9.59c-1.97-3.32-5.9-5.4-8.26-8.32
	c-5.51-6.25-3.55-13.72-4.33-22.05c-0.41-2.5,0-8.74-1.57-11.25c-1.97-3.32-6.7-2.92-8.67-6.24c-2.76-4.58,1.97-17.07-2.76-18.31"/>
<path class="st0" d="M2080.09,794.83c-3.94,0-6.29-4.16-9.84-0.84c-1.97,2.08-0.8,7.91-1.57,10.82c-1.58,5.42-7.87,15.82,3.15,10.82
	c1.97-0.83,3.55-3.33,5.11-4.16c1.97-0.83,4.72,0,6.3-0.83c2.75-1.66,5.12-6.66,6.69-9.99c3.54-9.15-2.37-5.41-8.67-5.41"/>
<path class="st0" d="M2242.27,763.2c-5.51-1.67,2.36-16.23-6.29-16.65c-6.7-0.42-2.77,18.31-3.95,22.05
	c-2.37,7.91-12.99,6.25-14.97,12.9c-1.17,5,3.55,4.16,4.34,7.91c0.39,2.92-2.36,4.99-2.36,7.91c12.2,4.57,12.2-12.07,22.03-14.98
	c3.95-1.25,12.99-2.92,11.82-10c-0.79-3.75-4.73-2.92-7.48-2.92c0-2.5,0-5-1.97-6.24"/>
<path class="st0" d="M2206.85,795.66c-13.38-4.99-15.76,12.49-25.98,17.9c-6.31,3.33-12.21,0.83-18.89,5.41
	c-5.51,4.16-11.43,7.91-16.94,11.66c-6.68,3.74-7.48,6.25,0.41,7.08c8.26,0.83,11.8,0,18.09-5.83c2.76-2.5,5.92-6.24,9.06-7.91
	c3.54-2.5,5.12-1.66,8.67-2.5c5.9-1.24,9.44-5.83,14.95-8.74c2.77-1.67,22.43-15.4,11.41-17.06"/>
<path class="st0" d="M1984.84,364.43c1.17-9.17,5.9-14.56,2.36-22.5c-1.97-4.16-1.19-5.82-5.51-6.63c-4.32-0.84-7.09,1.66-7.87,4.98
	c-0.8,3.35,1.97,6.66,0.39,10.4c-1.58,4.58-5.51,5.85-3.16,11.25c1.19,2.08,7.88,8.32,9.85,9.17c3.94,1.24,8.26-0.85,4.33-5.43"/>
<path class="st0" d="M2010.82,467.23c-6.31,5.01-14.57,0-21.27,2.08c-4.32,1.66-15.34,12.91-5.51,11.25
	c3.94-0.85,4.73-5.43,9.45-5.01c5.51,0.42,7.88,5.43,14.18,2.93c1.57-0.42,6.7-4.16,7.87-5.43c1.97-3.32,0.8-9.98-3.93-6.24"/>
<path class="st0" d="M1985.24,500.53c6.29-0.41,2.75,12.09,9.06,13.76c9.83,2.89,3.54-9.17,2.36-12.49
	c-0.39-1.67-1.19-5.84-0.78-7.51c0.78-2.5,5.51-4.16,4.71-7.06c-0.78-2.5-5.51-2.08-7.09-2.08c-3.14,0-4.33,2.08-8.26,0l-0.8-0.42
	c-5.1-0.84-5.9,8.75-7.48,12.06c-1.56,3.33-4.33,3.33-3.55,7.5c0.41,1.67,3.95,4.16,4.73,6.64c0.79,3.35,0,17.49,5.51,9.17
	C1986.81,515.09,1984.83,505.53,1985.24,500.53"/>
<path class="st0" d="M2019.47,405.62c-6.68-2.89-3.93,2.92-7.07,5.43c-3.15,2.48-7.09,0.39-10.63,1.24
	c-2.76,0.85-11.02,5.82-7.87,9.59c3.14,3.74,9.04-2.92,13.38,2.48c3.14,3.77,0.78,7.09,5.9,9.59c5.12,2.91,5.51,0.42,7.09-4.16
	c0.39-1.27,1.58-5.82,1.97-6.24c0.4-2.93,1.19-2.5,0.78-5.82c-0.39-1.69-1.97-5.01-2.75-7.09c-0.39-2.5,3.55-3.35-0.39-5.01"/>
<path class="st0" d="M2019.47,541.33c-4.71,0-7.48,9.57-1.17,9.98c5.9,0.42,10.22-11.23,1.57-9.98"/>
<path class="st0" d="M2026.56,501.79c-5.51,1.24-6.68,4.98-1.58,7.06c7.09,2.92,7.89-6.24,2.76-7.48"/>
<path class="st0" d="M2007.28,551.31c-4.73-2.08-9.84,6.66-7.48,8.74c5.11,3.34,12.99-2.5,8.25-7.9"/>
<path class="st0" d="M2001.77,393.56c-3.15-0.42-12.21,12.06-4.33,12.48c5.91,0,12.2-9.56,4.33-12.91"/>
<path class="st0" d="M1998.61,369.82c-6.7-4.16-7.09,5.82-0.39,8.32c9.83,4.16,7.09-7.9,0.78-7.48"/>
<path class="st0" d="M1963.97,543.41c-3.13-0.84-6.29,0.42-6.29,4.16c-0.39,5.01,3.16,2.92,5.91,2.92c3.54,0.4,5.9,2.9,6.69-2.08
	c0.39-4.16-3.15-5.43-6.69-5"/>
<path class="st0" d="M2187.15,512.2c-5.11,1.66-6.29,7.48-11.8,9.14c-3.93,1.27-12.6,2.5-3.93,5.85c2.74,0.81,12.19,1.24,14.56-0.42
	c3.53-2.93,7.48-13.33,1.56-14.56"/>
<path class="st0" d="M1982.47,376.49c-6.68-1.66-5.51,5.4-0.39,6.66c6.7,1.66,6.7-6.66,0.8-6.66"/>
<path class="st0" d="M2010.42,383.57c-5.11,0.42-3.53,6.24,0.4,6.24c3.93-0.42,4.32-7.51-0.4-7.09"/>
<path class="st0" d="M2034.03,468.47c-6.68,0.42-2.74,8.34,1.19,7.93c5.51-0.84,2.36-7.09-0.79-8.32"/>
<path class="st0" d="M1981.69,545.49c-6.7,1.66-1.57,10.41,3.15,7.09c4.32-2.5,2.36-8.75-2.76-7.51"/>
<path class="st0" d="M2235.98,617.93c-7.89-2.08-7.48,8.74-1.19,9.98c5.9,1.24,10.24-10.83,1.57-9.98"/>
<path class="st0" d="M1203.37,141.45c-0.52,11.09,7.35,3.32,11.56,3.87c6.29,0.55,9.07,8.88,15.9,7.77"/>
<path class="st0" d="M1161.4,153.09c4.19,2.78,8.92-1.11,11.54,1.11c7.35,4.45-1.58,6.66-3.15,11.12
	c-2.62,7.77,1.06,17.2-5.77,24.42"/>
<path class="st0" d="M1365.02,16.01c2.62-6.66,12.07-7.77,13.12-13.88c1.05-4.44-2.1-3.88-3.68-7.22c-1.58-3.88-1.58-6.11-2.61-9.98
	c-1.58-6.66-3.68-11.66-7.35-17.76c-7.35-11.66-1.05-5,3.14-14.98"/>
<path class="st0" d="M1361.87-41.71c-1.58-3.33-6.81-7.77-10.48-7.77c-4.73,0.55-3.67,2.77-6.82,5.54
	c-8.93,8.33-7.35,0.55-17.33,1.67c-11.55,1.11,1.05,6.1,4.73,10c6.29,5.54,5.77,8.33,3.68,16.65"/>
<path class="st0" d="M1321.46-38.94c-3.68,2.22-7.35,0-10.49,1.66c-3.15,1.67-4.73,6.11-7.35,8.32c-2.63,3.33-6.31,3.89-8.92,7.77
	c-1.57,2.78-1.57,7.77-3.67,11.11c-4.73,7.77-12.6,7.21-11.02,17.2c1.57,6.66,8.92,15.54-2.1,20.53"/>
<path class="st0" d="M1364.5,26c-0.53,6.66-0.53,11.66,2.1,17.2c4.71,11.11,9.44,1.67,17.31,7.22c3.68,2.23,1.57,4.45,3.68,6.66
	c1.57,1.66,8.4,5,8.92,7.22c2.62,7.77-7.35,3.88-7.87,11.65c7.35,1.67,13.12,1.11,18.37,5c3.67,3.89,7.35,11.66,14.15,13.88
	c6.31,1.66,15.24-6.11,20.47,1.1c7.35,9.43-6.81,11.09-7.35,18.86"/>
<path class="st0" d="M1227.51,86.5c6.83,1.11,5.79,8.88,13.14,10.54c5.23,1.11,17.83-3.32,18.37,7.22c0.52,5-4.21,6.66-6.83,9.98
	c-0.52,1.11,0.52,4.45,0,6.11c-0.52,1.1-4.73,0-4.73,1.66c0,4.45,3.67,5.56,5.25,10c0.52,2.23,0,6.09,0,8.89"/>
<path class="st0" d="M1251.67,127.56c5.23,0,5.23-5.56,9.97-7.22c2.1-0.55,4.73,2.21,6.83,1.66c3.14-0.55,3.67-1.66,5.77-2.76
	c6.29-2.77,19.95-6.66,17.83,7.22"/>
<path class="st0" d="M1256.38,108.69c5.77,3.33,24.67-1.67,23.62,7.22"/>
<path class="st0" d="M1248.51,95.93c-0.52-9.43,10.5-18.31,4.2-27.2"/>
<path class="st0" d="M1236.43,79.28c2.63,5.55,6.83,9.43,12.6,7.77"/>
<path class="st0" d="M1278.42,112.58c3.15-7.22,11.02-3.32,14.18-11.09c-2.63-0.56-9.44-3.34-9.98-6.66
	c-0.52-5.01,6.31-5.56,9.44-7.77c8.92-7.22,0.53-12.22,3.15-22.76"/>
<path class="st0" d="M1295.22,83.71c4.73,0.56,7.87,4.45,12.08,6.11c3.67,1.11,10.48-0.55,11.02,5.56
	c0.52,11.09-19.43,7.22-25.72,7.22"/>
<path class="st0" d="M1291.02,118.69c11.54-1.66,17.31,0,18.89-14.43"/>
<path class="st0" d="M1295.74,130.89c3.15-5.54,13.66-7.77,10.5-15.54"/>
<path class="st0" d="M1306.76,119.24c3.15,4.44,20.47,4.44,16.8,11.09c-4.2,8.33-14.69-6.09-14.69,10.56"/>
<path class="st0" d="M1323.03,132.56c8.4,5.54-0.53,10.55-2.1,16.66"/>
<path class="st0" d="M1325.13,151.98c7.35-5.55,7.35,1.66,9.98,7.22c2.62,6.11,5.77,6.66-2.63,12.21"/>
<path class="st0" d="M1337.72,165.87c8.4-0.55,9.45-9.99,16.79-10.55c5.26,0,14.7,3.33,12.08,9.44"/>
<path class="st0" d="M1368.69,169.18c3.68-3.32,9.97-2.21,11.02-8.88"/>
<path class="st0" d="M1348.75,157.54c-1.04-10-8.39-6.11-14.18-3.35"/>
<path class="st0" d="M1344.55,150.88c2.62-12.22-11.02-34.96-22.56-24.42"/>
<path class="st0" d="M1310.43,108.14c4.73,4.99,6.31,0.55,11.02-0.56c4.73-1.67,7.89-2.22,13.12-1.67c6.3,0,5.24,1.11,8.4-3.32
	c0.52-0.55,0-4.45,0.52-5.56c1.06-2.21,4.21-2.76,5.26-4.99c2.09-6.09-2.62-13.86-3.15-19.97c-1.04-9.99-3.14-14.99-13.12-18.87"/>
<path class="st0" d="M1325.67,59.85c4.71,2.79,20.46,5,25.18,3.9c5.78-1.11,5.78-5.56,9.45-8.88c2.64-3.34,5.79-5.01,9.46-7.77"/>
<path class="st0" d="M1333.53,46.54c7.87-0.56,25.2-3.89,27.81,6.66"/>
<path class="st0" d="M1350.84,35.98c3.68,1.67,11.19,2.23,14.87,0.56"/>
<path class="st0" d="M1349.27,80.94c3.68-2.22,7.88-4.44,12.6-3.88c5.26,1.12,5.26,3.88,9.99,6.65c2.1,0.56,13.64,2.79,15.21,1.67
	c4.71-3.34-2.78-6.66,2.99-9.44"/>
<path class="st0" d="M1333.01,124.24c0-1.12,8.39-19.43,8.91-19.98c1.05-1.66,8.92,4.44,9.46,4.44c3.13,0.56,9.45,0,12.58-0.55
	c6.31-1.68,18.37-8.33,21.01,4.99c1.57,9.43-13.66,10.55-0.54,16.65"/>
<path class="st0" d="M1366.6,108.14c9.97,1.67,4.2,19.98,13.12,18.32"/>
<path class="st0" d="M1343.5,139.78c6.83,2.23,9.45-0.56,15.76-1.12c5.77-0.56,13.28,4.45,20.09,1.67"/>
<path class="st0" d="M1451.62,143.66c9.45-7.77,19.4,2.76,27.29,6.66c7.35,2.76,14.16,11.64,20.47,3.31"/>
<path class="st0" d="M1456.87,157.54c14.15-5.01,15.22,12.19,25.18,18.31c2.1,1.66,6.31,3.33,8.4,2.77
	c3.15-1.11,3.15-5.54,4.71-6.09c8.4-2.79,3.15,4.42,9.98,6.65"/>
<path class="st0" d="M1486.27,155.32c3.67,8.32-6.83,1.67-6.83,7.77c0,2.78,7.35,3.88,8.39,6.65c0.53,1.67,0,5.56,0,7.22"/>
<path class="st0" d="M1476.82,171.41c-2.63,8.89-3.15,13.31,4.2,18.87c6.81,5.56,14.15,6.66,11.02,17.75
	c-1.05,3.9-4.73,3.9-3.67,9.43c0.52,3.35,6.29,7.77,8.92,9.45c3.14,2.77,6.29,3.32,8.39,6.64c2.64,3.34-0.52,5.56,3.15,8.33"/>
<path class="st0" d="M1478.38,187.51c-3.68,4.98-7.87,3.33-12.59,3.88c-4.73,0-7.88,2.21-12.6,3.33
	c-10.5,2.23-14.18-5.54-23.62,3.89"/>
<path class="st0" d="M1428.52,225.8c4.21,8.33,5.77,3.34,9.44,0.56c4.73-2.78,8.93-5.55,14.18-8.33c12.6-6.65,6.31-14.42,12.6-25.53
	"/>
<path class="st0" d="M1429.06,219.15c7.35,0.55,9.44-11.12,1.04-9.46"/>
<path class="st0" d="M1425.9,230.24c3.68,8.88,1.04,18.31-2.63,26.07"/>
<path class="st0" d="M1420.65,238.56c2.1,4.45,1.05,9.43,5.25,12.22c5.25,3.32,12.6-1.13,15.21-5.56c2.1-3.9,3.68-8.32,5.77-12.22
	c3.15-5.53,4.73-6.09,2.63-12.75"/>
<path class="st0" d="M1448.98,229.14c12.08-0.55,23.62,9.98,30.45,19.41c7.35,10.01,17.31,8.88,28.33,5.56"/>
<path class="st0" d="M1508.31,244.68c-6.31-1.66-12.6,6.11-5.79,9.43"/>
<path class="st0" d="M1536.12,292.96c-2.11,11.64,8.91,8.32,15.22,9.98c9.45,2.8,13.12,12.78,4.71,20
	c-5.23,4.98-18.37,2.21-17.83,11.09c0.52,7.77,11.54,8.33,10.48,17.2"/>
<path class="st0" d="M1480.33,349.01c0-19.96,23.77,1.11,32.17-5.56c5.77-4.42,1.57-9.43,10.5-11.64c4.71-1.1,9.28,0,14.01,2.21"/>
<path class="st0" d="M1555.01,305.17c0.53-7.77,8.93-10,6.29-19.43"/>
<path class="st0" d="M1494.66,118.14c-3.15-7.77-12.06-8.33-15.21-14.43c-3.68-7.22,2.61-17.2,8.39-8.88
	c6.82-5.01,0.53-13.33,11.56-13.88c6.81-0.55,17.31,3.89,23.61,5c3.14,0.55,4.2,2.77,7.34,2.77c4.21,0.55,8.4-2.77,12.6-1.66
	c4.73,1.1,5.26,3.87,10.51,2.77c6.82-1.11,8.4-3.32,3.15-8.88c-1.58-2.22-5.77,1.1-7.35-3.33c0.53,0.56,1.04-10.56,1.04-10
	c1.06-5.54-2.62-6.1,4.21-8.88c5.23-2.21,9.45,2.23,14.16,2.78c9.98,1.12,15.22-2.23,22.56-6.65c6.3-3.34,7.35-5.01,13.13-0.56
	c3.13,2.77,3.13,5.54,7.87,8.33c4.2,2.76,8.93,4.42,14.17,3.32c7.87-1.66,4.72-4.44,12.59,0c7.35,3.33,7.88,7.22,13.12,12.22
	c3.16,3.32,8.93,6.65,13.14,7.77c4.2,1.66,5.23-0.56,9.96-0.56c5.26,0,8.4,3.88,13.12,6.1c3.15,1.67,7.87,1.67,11.54,3.34
	c5.25,2.76,7.35,14.98,3.15,19.41c-4.2,5.56-11.02-0.55-15.22,7.77c-1.58,3.9,1.04,5.01-2.1,7.77c-2.64,3.34-6.31-1.11-7.88,5.01
	c-4.72,12.76,14.69,8.87,5.24,18.86c-5.77,6.11-15.73,3.9-21.5,10c-2.12,2.23-3.15,5.54-4.73,7.77c-2.62,2.23-5.77-0.56-6.29,4.44
	c-0.54,8.88,11.02,4.45,14.15,8.88c5.26,8.88-6.81,9.44-11.02,10.55c-9.97,1.12-8.92,3.33-9.97,13.31
	c-1.57,13.88-15.21,22.21-21.52,34.43c-3.68,7.2-3.13,9.43-12.06,7.77c-3.15-0.56-5.77-3.35-8.93-3.35c-3.15,0-6.31,3.35-9.45,3.9
	c0,7.22,11.02,9.98,12.06,16.65c1.06,5.54-6.29,7.77-7.87,14.99"/>
<path class="st0" d="M1526.68,151.98c7.33-10.53,11.01,3.34,15.74,6.11c9.96,5.55,9.45-7.77,15.21-9.99
	c7.35-2.23,10.5,8.89,14.7,11.65c3.15,2.21,7.35,1.66,11.02,4.45c3.68,2.21,5.25,6.65,8.93,8.88c4.73,3.87,17.85,8.88,15.76,17.2
	c-0.54,1.1-6.31,4.99-7.35,6.66c-2.11,3.32,1.56,4.98-2.63,7.77c-6.82,3.87-12.06-2.23-15.21-5.56c-4.73-5-11.02-9.98-17.86-13.33
	c-4.71-1.66-12.06-2.22-15.73-1.66c-6.31,0.55-6.31,2.22-11.55,6.11"/>
<path class="st0" d="M1583.35,199.15c-1.57,5-7.35,9.99-6.81,15.55c0.53,3.33,6.81,11.09,8.39,14.99c1.57,3.87,5.25,7.77,6.29,11.09
	c1.05,4.45-2.1,7.22,0.53,11.67"/>
<path class="st0" d="M1608.03,188.07c6.29-1.12,7.87,4.98,13.12,5.53c6.81,0.56,6.29-4.98,11.02-8.88
	c15.22-11.64,8.9,9.44,14.16,13.33"/>
<path class="st0" d="M1542.42,156.99c0.52-7.77-4.2-13.33-4.73-21.1c-0.52-16.1,9.98-5,17.85-4.44c3.68,0,5.26-2.77,9.98-2.22
	c9.45,1.66,8.39,7.22,12.58,11.11c5.25,4.98,12.6,1.67,19.95,6.09c5.25,3.34,9.98,17.78,18.37,16.66c4.19-0.56,3.15-4.99,5.77-7.21
	c3.15-2.79,5.26-2.79,9.45-4.44c3.68-2.21-0.52-5,5.77-4.44c3.67,0,6.3,5.55,8.93,5c7.88-2.21,3.15-10.53,14.69-8.87
	c7.89,1.1,17.48,4.99,24.82,6.11"/>
<path class="st0" d="M1630.6,150.88c-2.64,12.21,12.6,3.32,12.6,13.32c0,11.09-12.08,0.56-16.27,1.11c-1.06,0-12.08,9.43-12.08,9.98
	c0.54,5.56,15.22,8.89,5.25,18.32"/>
<path class="st0" d="M1634.27,168.08c4.2,11.66,8.39,3.33,16.28,6.11"/>
<path class="st0" d="M1664.18,192.49c7.87-0.55,8.93,6.11,13.12,11.11c2.63,2.77,8.93,2.22,4.2,7.21c-1.56,1.67-9.45-0.56-12.58,0
	c-18.37,4.44,9.44,19.42,3.67,32.2c-1.58,3.32-11.56,14.98-14.69,17.2c-4.73,3.31-14.18,1.1-11.56,10.54
	c2.1,6.66,12.07,6.11,9.45,15.54c-2.1,7.77-9.45,5.56-14.7,5.01"/>
<path class="st0" d="M1680.98,204.72c7.87-5.56,12.08,6.1,13.64,12.19c2.11,7.77,0,14.44,5.24,19.44
	c6.31,6.66,9.45,4.42,11.02,14.44c2.63,14.97,5.25,11.09,18.89,16.1c7.34,3.31,11.02,7.21,19.42,7.77c1.57,0,6.29,1.66,7.87,0.55
	c4.73-3.34,0-7.77,1.58-10.01c5.77-8.33,10.5,6.66,16.79,7.22c9.44,0,10.5-9.98,14.69-14.99c4.73-5.53,14.18-8.32,20.47-3.87
	l6.31,10.53c-1.06,5.56-5.77,3.9-8.93,7.77c-2.64,3.34-0.52,6.66-1.58,10.57c-1.06,3.87-4.19,6.08-6.29,9.98
	c-3.15,7.77-1.06,16.1-7.35,22.21"/>
<path class="st0" d="M1709.84,246.89c10.49-11.09,35.17,16.65,49.32,16.65"/>
<path class="st0" d="M1764.42,264.64c5.77-9.43,14.17-4.42,21.52,0"/>
<path class="st0" d="M1757.96,262.98c0.54,2.78,2.26,10.55,3.32,12.78c1.56,3.87,5.23,5.54,6.81,9.43
	c2.64,6.66-4.19,14.99,3.15,20.55"/>
<path class="st0" d="M1760.6,276.31c4.71-0.55,12.23,0,16.42,2.76c2.1,1.11,0.52,4.45,3.15,6.11c1.57,0.55,4.19-0.55,5.77,0
	c2.1,1.1,4.72,0,6.29,2.21c1.58,3.9-2.62,5.01-2.1,7.22c0.53,4.46,3.15,7.22,6.83,9.98"/>
<path class="st0" d="M1813.07,259.67c6.83-1.1,16.43,5.53,16.96,12.75c0.52,7.22-7.35,9.45-7.35,16.09
	c0.52,6.11,9.44,8.33,13.12,13.33c2.1,2.21,2.62,5.01,4.71,7.77c2.12,1.66,8.4,1.66,7.89,6.11c-1.58,12.19-27.81,0.55-16.28,22.76
	c3.68,7.22,6.29,9.43,7.87,17.75c0.52,3.32,0,8.33,1.58,11.64c1.57,3.9,5.25,5.56,6.29,10.02"/>
<path class="st0" d="M1845.76,423.95c8.93-2.8,12.6,7.76,20.47,6.65"/>
<path class="st0" d="M1844.72,319.59c-1.06,8.32,3.68,6.11,6.29,9.46c3.15,3.87,2.1,8.32,4.2,12.19c4.73,7.22,7.89,1.66,14.18,0.55
	c7.87-0.55,6.31,1.1,8.93,7.22c3.15,8.32,13.63,16.65,2.1,18.3c-4.2,0.55-8.39-2.76-12.06,0c-3.15,2.8-3.15,10.01-4.73,13.33"/>
<path class="st0" d="M1848.92,313.51c4.73-4.46,4.73-9.46,12.08-5.56c5.77,3.32,2.1,6.11,4.71,11.09c3.15,5.01,8.41,4.45,11.03,9.43
	c1.57,3.9,0,7.77,2.63,11.67c4.2,7.77,14.16,8.87,15.73,19.41c1.58,8.32-9.44,15.54-13.63,6.67"/>
<path class="st0" d="M1894.06,366.21c0.53,3.9,4.2,7.77,4.2,11.67c0,6.11-2.63,4.97-6.31,8.32c-2.61,2.77-3.67,5.53-6.29,8.33
	c-3.15,2.21-6.29-1.66-7.35,4.42"/>
<path class="st0" d="M1857.32,306.29c3.14-7.77,11.02-2.8,15.73-0.55c0.52-5.01,4.2-10.01,9.98-6.11c4.72,2.76,1.04,9.43,5.78,12.74
	"/>
<path class="st0" d="M1917.67,463.92c5.77,3.31,8.4,9.43,15.22,7.77c2.62-1.13,4.2-6.11,7.87-6.66c2.62-1.1,6.81,2.21,9.45,1.11
	c8.39-5.01-1.06-31.64,17.31-18.86"/>
<path class="st0" d="M1704.08,99.81c5.23-2.78,5.23,1.11,8.91,2.78c3.67,1.66,6.31,3.31,10.5,4.98c3.15,1.12,9.96,3.34,12.08,6.1
	c2.1,2.78,1.04,6.11,2.1,8.88c5.25,11.67,12.6,8.32,22.56,10c12.6,2.22,13.12,12.21,22.04,17.21c8.4,4.42,24.66,2.76,34.11,4.98
	c6.82,1.68,15.75,3.89,22.58,2.23c2.1-0.56,4.71-3.35,7.35-4.45c4.71-1.1,6.81-0.55,11.02-2.76c2.1-1.67,8.39-6.11,8.91-8.33
	c1.57-4.45-3.68-6.66-2.62-10c1.57-4.98,3.67-2.22,7.35-3.33c1.58-0.55,3.15,1.66,4.73,1.1c2.1-0.55,2.1-3.32,3.68-3.87
	c4.72-1.67,17.31-1.12,19.41-6.11c7.35-16.64-34.11-2.22-28.34-19.43c2.62-8.33,17.31,1.11,16.27-14.98
	c-0.53-5.55-12.07-14.98-4.72-19.43c4.72-2.77,15.21,4.45,20.46,5.56c10.5,2.21,15.21,3.87,20.99,13.87
	c3.67,7.21,5.24,9.44,13.11,12.21c4.21,1.66,8.93,1.1,13.66,3.89c3.15,2.23,5.25,7.22,7.87,8.89c8.4,4.42,29.39-13.88,26.23,7.77
	c-1.04,7.21-7.35,7.77-9.44,12.75c-2.1,7.77,7.88,10.56,5.77,17.21c-1.04,3.88-5.77,3.33-8.39,4.99c-3.15,1.66-4.2,3.34-7.35,6.11
	c-4.19,3.32-13.66,4.99-13.12,12.76"/>
<path class="st0" d="M1970.16,185.27c1.57-3.87,5.25-4.42,8.92-3.87"/>
<path class="st0" d="M1872.54,97.58c-8.41-17.75-26.78,3.34-37.8,2.23c-6.81-0.56-12.06-3.88-17.84-6.66
	c-7.88-3.89-14.18-0.56-21.52-2.23c-8.93-1.66-14.18-10.54-22.56-12.75c-3.15-0.56-9.98-2.79-12.6,0.55
	c-3.15,4.98,3.68,7.22,3.15,10.54c-1.57,9.99-26.77-4.43-35.7-2.21c-5.24,1.66-14.69,7.77-17.83,12.76"/>
<path class="st0" d="M2014.26,211.93c5.23,1.66,13.63,9.43,13.63,9.43"/>
<path class="st0" d="M1260.58,190.84c0.55,9.43,1.06,12.77-2.09,19.98c-4.2,9.44-2.1,7.77,4.21,16.66
	c4.72,6.65,5.77,12.19,6.81,19.41c1.06,6.66,5.77,13.88,5.25,21.1c-1.58,9.43-8.38,12.19,0,21.07c4.73,4.45,13.13,11.12,18.37,13.33
	c6.82,2.21,12.6-2.21,19.43-1.66c5.77,0.55,13.12,6.66,17.83,9.43c8.4,5.01,19.43,9.98,26.23,16.1c7.35,6.11,4.21,8.87,3.15,18.33
	c-0.52,4.42,0.52,8.33-1.04,11.64c-1.57,2.76-4.73,5.56-6.3,8.88c-3.16,7.22-4.2,11.67-1.04,18.89c2.09,3.87,4.19,7.19,5.77,11.09
	c1.57,4.42,1.04,8.32,2.1,12.78c2.62,7.76,10.5,11.08,15.73,17.2c5.25,6.08,7.35,12.75,14.69,17.2c4.22,2.76,4.22,2.21,8.93,3.32
	c4.73,0.55,6.31,1.1,11.02,2.8c3.67,1.11,5.77,3.32,9.98,2.21c4.2-1.1,4.71-4.45,7.34-6.11c4.21-1.66,11.02,0,12.59-4.42
	c4.73-14.44-24.66-17.79-15.22-34.98c3.68-6.66,5.26-9.43,6.29-17.2c1.06-9.98,4.73-7.77,8.93-15.54
	c3.15-5.01,1.58-13.88,3.15-19.41c1.57-6.66,8.55-7.22,12.74-12.23"/>
<path class="st0" d="M1268.48,244.68c1.58-4.45,5.77-7.22,7.87-9.99c0-0.57,0-4.45,1.06-5.55c1.04-2.22,3.14-3.9,4.71-5.56"/>
<path class="st0" d="M1362.94,233.02c1.58,16.65,1.04,36.08,1.58,52.72c0.52,9.43,6.81,42.17-6.83,41.06"/>
<path class="st0" d="M1367.65,307.95c13.13,2.21,29.39,0,43.05,0c6.81,0,13.12,3.87,17.83,0c4.21-3.35,2.1-8.88,8.41-9.43"/>
<path class="st0" d="M1302.06,301.82c0.52,2.8-0.52,10,0.52,12.24c1.06,2.21,4.2,2.76,5.25,6.64c1.58,4.45,1.58,18.88,1.06,23.88
	c-1.06,9.43-7.35,8.33-11.56,15.51c-1.58,2.24-3.14,7.77-2.62,10.57c1.04,4.97,4.2,3.31,6.29,7.77c1.58,2.21,1.06,6.67,2.1,9.43
	c1.06,3.87,3.68,4.46,3.68,8.88c-0.52,12.22-14.16,2.76-3.14,16.09c6.29,7.22,6.81,6.66,15.73,5.01c2.1,0,7.35,0.55,8.93-0.55
	c3.15-2.8,1.05-7.77,3.15-10.01c4.71-5.53,11.02-1.66,15.21-6.08c3.15-3.9,0-10.57,7.35-8.87"/>
<path class="st0" d="M1197.09,204.71c-0.52,7.22,7.87,20.52,2.1,26.08c-3.67,3.89-12.06,0-16.27,3.89
	c-2.62,2.77-3.13,7.76-6.81,11.1c-3.15,3.87-7.89,3.87-12.08,5.56c-6.83,2.76-4.71,4.42-9.44,9.43c-5.77,6.66-14.18,3.87-23.1,3.87"
	/>
<path class="st0" d="M1153.52,262.98c0,12.22,1.06,15.54-10.48,14.99c-12.08-0.55-11.02,3.32-11.56,14.44c0,1.1,0.54,3.87,0,4.99
	c-1.04,2.23-3.14,2.78-3.68,3.89c0,0.55-2.09,2.76-3.14,3.88c-1.06,1.68,0.52,4.44-0.53,6.1c-3.14,5.01-15.22,2.8-21.51,2.8"/>
<path class="st0" d="M1154.06,267.43c11.02,11.09,22.04,21.63,34.1,31.64c11.02,8.32,28.88,13.3,37.8,23.86
	c3.14,3.32,2.1,10.54,7.35,11.09c4.71,0.55,5.23-3.87,8.38-5.56c2.64-1.66,6.84-0.55,9.45-2.21c3.15-1.66,3.15-7.22,5.77-9.98
	c2.64-3.34,5.79-4.45,8.93-6.11c6.31-3.87,11.56-8.87,17.33-12.19"/>
<path class="st0" d="M1442.19,367.31c3.14,0.55,9.96,2.8,13.12,2.24c4.19-1.11,6.29-4.45,9.96-6.66"/>
<path class="st0" d="M1481.55,377.32c-2.1,4.42-8.93,10.54-7.87,15.54c2.1,6.63,10.49,4.98,11.54-1.69"/>
<path class="st0" d="M1483.64,396.18c-0.52,7.77,5.78,7.22,9.98,10.53c3.68,2.8,2.62,5.56,7.35,7.22c2.1,1.1,11.03-0.55,12.59,1.67
	c3.15,3.89-3.67,10-6.29,13.32c-4.73,6.67-6.82,6.67-13.12,9.43c-5.26,2.8-8.41,7.77-14.18,8.9c-5.77,1.11-11.02-1.13-16.79,0
	c-3.15,0.56-3.15,3.33-7.87,2.77c-3.15,0-4.73-3.35-7.35-4.46c-4.19-1.66-7.72-0.55-10.34-4.97"/>
<path class="st0" d="M1477.87,447.81c-4.19,8.88-7.34,12.19-6.29,22.73c0.52,6.66,1.57,12.22,1.57,18.33"/>
<path class="st0" d="M1426.96,444.47c1.57,7.2,8.92,16.09,5.24,23.31c-1.57,3.35-7.87,2.77-7.87,7.77c0,2.21,5.78,6.11,6.84,8.32
	c1.57,2.79-1.06,6.11,1.57,9.43c2.1,2.25,8.9,3.9,12.06,6.66c5.77,5.01,9.45,11.67,17.85,11.12"/>
<path class="st0" d="M1404.39,446.69c0.54,6.11,5.25,16.09,3.67,19.98c-0.52,2.76-5.77,3.87-7.35,7.22
	c-1.04,2.76,0.54,6.66-0.52,9.43c-1.57,3.34-5.25,5.01-6.29,8.32c-0.54,2.78,1.04,6.11,1.04,8.32c0,7.22,1.06,11.67,3.15,18.32
	c1.04,4.44,3.16,10.55,4.19,15.54c1.06,11.11-1.57,4.44-7.87,10c-4.73,3.87-5.77,12.75-4.73,18.31c1.06,7.22,9.45,11.1,7.89,17.76
	c-9.46,3.34-9.46-7.77-15.23-11.09c-3.14-1.1-6.81,0.55-9.44-0.55c-3.68-1.11-5.77-4.45-9.44-5.56c-5.78-1.1-13.13,3.34-16.8-2.76
	c-3.15-5.56,3.67-18.89,0-23.86c-1.57-2.79-4.73-2.23-7.87-2.23c-6.31,0-2.64,1.12-7.35,3.89c-7.34,3.32-10.49,3.32-14.18-5.01
	c-1.57-3.87,1.06-5.53-3.15-8.32c-1.56-1.11-7.87,0.56-10.48,0.56c-5.25,0-11.02-0.56-16.28,0.55"/>
<path class="st0" d="M1312.03,697.55c8.4-2.22,14.69,8.89,20.46-2.22c2.63-5,1.06-13.33,1.06-18.31c0-7.77-0.52-14.99,0.52-22.2
	c1.05-8.32,5.77-9.99,7.34-18.32c1.06-7.76-2.1-13.87,5.78-16.66c4.21-1.11,14.69,3.34,17.33-0.55c6.81-9.43-8.92-6.65-11.55-5.54
	c-7.35,1.66-14.7,2.22-22.04,1.11c-15.74-2.23-31.49-1.11-47.22-2.79"/>
<path class="st0" d="M1354.53,612.64c-2.1-4.99-5.25-6.1-6.81-11.66c-1.06-3.88-0.54-12.22,0.52-16.1c2.09-7.77,3.15-2.77,8.38-7.77
	c3.68-3.32,4.21-7.77,5.25-13.33"/>
<path class="st0" d="M1365.03,616.53c7.35,1.11,12.08,0,17.85-3.88c4.71-3.33,10.48-12.76,14.69-14.43
	c5.23-1.67,17.84,6.66,19.93,11.09c2.11,5.01,1.06,15.54,0.54,20.54c-0.54,6.65-2.63,16.65-8.4,20.52
	c-3.15,1.67-15.73,2.23-18.89,0.55c-3.15-1.66-11.54-13.3-13.12-17.2c-1.05-3.32,0-6.66-2.1-9.43c-2.64-3.89-7.89-0.55-7.35-7.22"/>
<path class="st0" d="M1333.55,672.03c12.06-1.66,3.15,12.21,9.96,14.43c9.45,3.88,6.31-12.78,15.76-12.22
	c4.71,0.55,3.67,6.66,10.5,2.79c3.68-1.67,3.13-5.55,5.23-8.33c3.67-5.55,11.39-11.02,14.18-17.77"/>
<path class="st0" d="M1404.39,650.93c3.15,7.77,6.31,17.22,3.15,24.43c-2.1,4.44-6.83,3.33-5.77,9.44c0.52,4.43,3.67,6.65,7.87,4.98
	"/>
<path class="st0" d="M1387.08,700.34c-5.26,0.56-14.69,14.43-4.73,16.1c5.77,1.11,13.12-13.87,5.77-16.1"/>
<path class="st0" d="M1400.72,599.33c4.92-11.1,21.01-17.2,26.77-6.66c3.14,5.55-4.2,10.53,1.58,13.88
	c8.39,5.54,9.44-6.11,8.39-11.67c-1.58-8.88-14.17-18.31-4.71-24.97c8.9-7.22,29.54,6.11,35.31-7.22"/>
<path class="st0" d="M1423.82,476.66c-7.87-1.1-7.35,3.35-12.08,6.67c-4.71,3.34-7.87,3.34-13.64,3.34"/>
<path class="st0" d="M1397.58,513.85c12.06-0.55,9.45-18.86,9.45-27.77"/>
<path class="st0" d="M1412.28,483.87c1.04,6.66-1.57,13.33,6.29,13.88c7.35,0,8.39-10.55,11.02-15.56"/>
<path class="st0" d="M1394.95,499.41c3.68-2.21,7.35-4.99,12.08-5.55"/>
<path class="st0" d="M1402.29,537.71c5.77,10.54,19.43,11.65,19.43,23.87c0,7.77-3.68,16.65-3.15,24.97"/>
<path class="st0" d="M1420.67,553.81c12.6-9.43,10.5,9.98,11.02,17.2"/>
<path class="st0" d="M1382.89,436.7c-6.31,2.77-11.02,1.1-16.8,2.77c-8.4,2.23-12.08,10.55-21,6.1
	c-5.26-2.76-11.54-11.64-17.85-2.76c-3.66,4.45-1.04,14.44-2.1,19.99c-1.04,5.54-0.52,15.53-2.62,20.53
	c-2.62,7.77-9.96,8.88-12.59,18.3c-2.1,8.33-0.52,12.22-9.97,13.33c-2.63,0.55-5.25-1.11-7.35-0.55c-2.64,0-6.31,2.76-9.44,3.33"/>
<path class="st0" d="M1278.96,508.29c8.93-3.32,2.1-9.98,6.31-13.87c4.19-4.43,8.39,2.78,11.54,1.12c7.87-2.24,5.77-21.1,2.62-26.1
	c-1.56-2.76-11.02-3.32-7.35-9.43c3.15-5.55,12.08,2.21,13.66,2.79c14.69,2.77,3.67-14.98,19.4-13.32"/>
<path class="st0" d="M1306.77,417.84c-3.14,9.98-12.58,12.75-7.35,22.76c2.11,3.87,5.79,7.22,7.89,10.54c2.1,3.32,0,6.66,5.77,8.32"
	/>
<path class="st0" d="M1290.52,461.67c-5.79-10.54-8.93,3.9-10.5,6.11c-3.15,4.46-11.54,2.22-14.7,8.33"/>
<path class="st0" d="M1270.05,462.22c3.68-2.21,8.39-2.21,11.55,1.13"/>
<path class="st0" d="M1301,382.86c-1.03,8.33-7.34,10.57-11.02,16.65c-3.67,6.66-2.61,14.43-6.81,21.1
	c-5.77,8.32-7.89,3.34-14.7,6.66c-6.31,3.87-3.68,10.54-5.77,16.65"/>
<path class="st0" d="M1294.71,372.87c-6.82-1.66-11.02,4.45-16.79,5.56c-3.67,0.55-13.12,1.11-16.79,0
	c-8.93-2.24-18.91-17.75-27.3-5.01c-1.58,2.76-3.68,12.22-3.68,15.54c-0.52,5.01,2.62,9.43,1.58,13.89
	c-1.58,5.01-6.83,6.66-7.88,12.76c-0.52,5.55,3.15,8.9,3.67,13.87"/>
<path class="st0" d="M1171.37,283.53c-12.6,1.1-7.35,12.19-6.83,22.21c0.54,12.75,0.54,22.17,3.67,33.85
	c2.63,8.88,6.31,17.75-3.14,19.96c-7.35,1.69-15.24-2.21-23.1-1.11c-8.39,1.66-14.18,2.24-12.06,11.67
	c1.04,4.97,3.68,16.65,7.35,17.2c8.91,1.66,9.97-9.43,15.22,4.42c1.58,4.45-0.52,5.56,3.67,8.35c0.52,0.55,10.5,1.11,11.02,1.11
	c5.25-1.69,4.71-4.45,6.29-8.88c2.64-6.66,3.68-10.01,8.41-14.99c1.58-2.24,3.68-2.24,5.25-4.45c1.04-1.1,0-3.87,1.56-5.56
	c4.21-4.97,8.92-4.42,14.69-4.97c8.93-0.55,21.01,1.1,27.3-3.9c9.45-6.66,3.16-17.2,3.68-26.63"/>
<path class="st0" d="M1101.05,349.01c5.77-1.1,12.08-1.66,16.8,3.32c4.73,5.01,2.62,11.12,11.54,11.67"/>
<path class="st0" d="M1208.63,362.34c-1.04,9.43,2.1,9.43,7.35,13.85c1.06,0.59,3.67,0.59,4.73,1.69c1.57,1.11,1.04,4.42,1.57,4.97
	c2.1,1.11,6.98,2.25,9.59,1.69"/>
<path class="st0" d="M1221.75,381.77c-5.77,15.54-36.2,4.99-36.2,19.43c-0.54,3.32,3.14,5.53,3.14,8.32
	c1.06,4.97-0.52,6.09-1.56,11.09c-1.06,3.9-2.64,5.01-2.11,9.43c1.06,4.45,4.73,5.56,4.21,11.12"/>
<path class="st0" d="M1204.44,391.19c1.06,8.32,4.73,16.08,6.82,23.85c1.04,6.11-0.53,13.33-1.06,18.89"/>
<path class="st0" d="M1211.79,389.54c0,9.43,3.68,14.42,5.77,22.19c1.06,5.56,0,12.78,0,18.31"/>
<path class="st0" d="M1186.07,403.4c-8.4,1.11-9.96,1.11-15.74-5.01"/>
<path class="st0" d="M1154.58,399.5c2.62,4.46-1.06,7.22-0.52,11.12c0.52,2.21,5.25,2.76,5.25,4.99c-0.54,2.79-4.21,2.23-5.25,4.44
	c-3.15,5.01-5.77,4.45-1.58,9.98c3.16,4.45,11.02,2.79,6.83,11.67"/>
<path class="st0" d="M1151.43,422.26c-13.64-2.77-15.74-38.86-29.91-14.99"/>
<path class="st0" d="M1140.94,413.94c-1.57,4.46-3.67,8.33-6.31,12.23"/>
<path class="st0" d="M1133.06,382.85c-4.71,2.8-9.44-3.87-14.16-1.1c-3.15,2.22-1.06,5.56-2.63,7.77c-1.04,2.21-3.68,1.66-5.25,5.01
	"/>
<path class="st0" d="M1118.36,380.64c-6.29-6.11-8.38-13.88-18.37-7.22"/>
</svg>
