<?xml version="1.0" encoding="utf-8"?>
<!-- Generator: Adobe Illustrator 24.3.0, SVG Export Plug-In . SVG Version: 6.00 Build 0)  -->
<svg version="1.1" id="Capa_1" xmlns="http://www.w3.org/2000/svg" xmlns:xlink="http://www.w3.org/1999/xlink" x="0px" y="0px"
	 viewBox="0 0 750 1334" style="enable-background:new 0 0 750 1334;" xml:space="preserve">
<style type="text/css">
	.st0{fill:none;stroke:#00B4AA;stroke-width:0.75;stroke-miterlimit:10;}
	.st1{fill:none;stroke:#00B4AA;stroke-width:0.78;stroke-miterlimit:10;}
	.st2{fill:#FFFFFF;}
</style>
<path class="st0" d="M119.3,1279.3c4.8,6.5,14.3,21.8,19.1,27.8c7.6,12.1,16.2,14.1,29.5,13.1c5.7,0,12.3,3,15.2-3
	c4.8-12.1-7.6-9-13.3-12.1c-12.4-6-22.8-12.1-30.4-25.2c-3.8-7-4.8-14.1-9.5-20.1c-6.6-10.1-10.4-9.1-10.4-23.1
	c0.9-32.2,38-44.3,2.8-65.4c-12.3-8.1-21.8-14.1-10.4-29.2c3.8-6,11.4-6,14.3-13.1c1.9-5-1.9-13.1,0-19.1c4.7-17.1,17.1-15.1-1-27.2
	c-13.3-8.1-22.8-20.1,0-18.1c14.3,1,18.1,7,19-14.1c0-16.1-10.4-30.2,12.4-31.2c15.2-1,29.5,8,41.8-10.1c7.6-10.1,8.8-35.3,1.6-45
	c-3.2-4.4-13.8-15.1-18.6-16.2"/>
<path class="st0" d="M212.5,786.2c0,8,12.8,24.1,6.5,34.9c-11.8,17-33.3,28.4-31.7,30.8"/>
<path class="st0" d="M1.9,741.4c0,12.5-1.2,13.6-6.2,20.5s-12.5,5.5-16.2,13.7c-5,9.6-1.2,20.5,0,30.1c1.2,32.8-13.7,79.3,1.2,109.4
	c10,19.2,27.5,19.2,23.8,46.5c-1.3,10.9-7.5,19.2-8.7,28.7c-3.8,13.7-1.3,21.9,0,36.9c2.5,13.7-1.3,35.6,2.5,47.9
	s16.2,13.7,21.2,24.6c2.5,6.8-3.8,16.4,0,21.9c3.8,6.8,16.2,4.1,20,11c8.7,13.7-3.8,30.1-2.5,43.8c1.2,12.3,8.7,27.4,11.3,39.7
	c3.7,17.8,8.7,21.9,17.5,38.3c7.5,12.3,3.7,23.2,20,26c13.7,2.7,22.6-16.1,33.8-1"/>
<path class="st0" d="M187.7,850.7c-8.6,5.8-27.3,6.8-32.4,14.1c-6.8,10.2,8.6,23.2,11.9,32c6.8,17.4-11.5,48.6,14.1,51.5"/>
<path class="st0" d="M1.9,741.4c4-10.7,0-32.5,17.2-38.3c8.9-3,18.7,20.1,28,21.4c0-12.1,12-20.1,24-14.8c10.7,5.3,8,20.1,16,28.2
	c17.3,16.1,57.3,4,69.4,28.2c8,17.4-17.4,37.5,6.6,49.6c33.8,16.2,35.4-37.1,49.4-29.5"/>
<path class="st1" d="M776.7,100.4c-3.7-1.2-7.2-2.4-10.5-3.7c-7.6-2.5-12.2-8.4-22.1-6.8v-0.8C722,88.2,706,95,684.6,99.2
	c-19.1,4.2-30.5,34.6-45,49.8c-6.9,7.6-16.8,14.3-26,18.6c-13,5.9-22.1,3.4-25.2,20.2c-1.5,8.4,0.8,23.6,6.8,29.5
	c9.2,9.3,16.8-0.8,25.2-5.1c12.2-6.7,16-2.5,20.6,11c1.5,4.2,6.1,28.7,7.6,29.5c6.1,5,25.2-9.3,26.7-15.2c2.3-4.2-0.8-11,1.5-15.2
	c2.3-5.9,8.4-6.7,10.7-11.8c6.8-14.3-9.9-18.5-6.1-32.9c3.8-13.5,17.5-11.8,24.4-20.2c6.8-7.6,7.6-21.9,19.8-17.7
	c16,5.1-1.5,16.9-7.6,24.4c-13.7,16.9-2.3,42.2,17.6,36.3c6.8-2.5,17.5-9.3,25.2-6.7c13,4.2,6.9,14.3-3.8,16
	c-6.1,0.8-17.6-5.9-22.2,0.8c-5.3,9.3,6.1,6.8,5.3,11.8c-2.3,8.4-6.8,5.9-12.2,7.6c-6.1,1.7-7.6-3.4-12.2,5.9
	c-1.5,3.4,0.8,10.1,0,13.5c0-0.8-10.7,11.8-9.2,11c-9.9,5.9-3.8-2.5-12.2-3.4c-10.7-0.8-17.5,12.6-28.2,12.6
	c-7.6,0-6.9-6.8-12.2-8.4c-6.8-1.7-10.7,4.2-16.8,3.4c-19.1-0.9-9.2-11.8-8.4-22.8c1.5-16.9-14.5-11.8-16.8,0.8
	c-1.5,8.4,9.9,19.4,2.3,27c-4.6,5.9-20.6,3.4-28.2,10.1c-6.9,5.9-13,15.2-20.6,20.2c-3.8,3.4-8.4,5-11.4,8.4s-4.6,11.8-9.2,13.5
	c-5.3,0.8-21.4-17.7-18.3,2.5c-7.6,1.6-20.6-2.6-23,7.5c-3.8,13.5,8.4,8.4,14.5,11c12.2,5.1,25.2,37.1,6.1,43.9
	c-14.5,5-38.2-8.5-53.4,0c-9.1,5-5.4,16.8-6.1,27c-1.5,11-6.1,14.3-10.7,22.8c14.5,6.8-3,21.1,15.3,24.5c10.7,1.7,19.8-3.4,24.4,11
	c8.4-10.1,12.2-1.7,22.1-5c7.6-2.5,4.6-5.1,10.7-11c3.8-4.2,11.4-5.9,13.7-10.1c1.5-4.2-2.3-12.6,0-17.7c1.5-5,6.1-8.4,9.9-11
	c12.2-7.6,13-4.2,19.1-17.7c4.6-10.1,3-11,15.2-10.1c4.6,0,10.7,2.5,15.3,0.8c2.3-0.8,1.5-5.9,3-5.9c3.8-1.7,6.1,0.8,9.2,0
	c9.9-2.5,18.3-5.9,24.4,7.6c2.3,5.1-0.8,11.8,3,16.9c2.3,1.7,12.2,4.2,14.5,5c4.6,2.5,16,5.1,19.1,8.5c4.6,5.9,1.5,12.6,3.1,19.4
	c6.8,29.5,6.1-18.5,18.3-12.6c6.1-13.5-36.6-32.9-42-43.8c-5.3-10.1-3.8-27,9.2-19.4c4.6,2.5,6.9,12.6,10.7,16
	c4.6,4.2,9.2,3.4,13.7,6.8c7.6,4.2,17.6,12.6,21.4,21.1c1.5,4.2,1.5,6.7,2.3,11c1.5,6.7,0.8,8.4,3.8,13.5c2.3,5,7.6,9.3,9.2,13.5
	c1.5,3.4,3.8,15.2,6.1,16.9c9.2,8.4,17.6-7.6,17.6-15.2c0-6.7-6.1-16-3.8-22.8c3.1-8.4,16-5.9,23.7-6.7c3.8,5.9,0,10.1,0.8,16.8
	c0.8,7.6,5.3,11,8.4,17.7c2.3,4.2,3.8,9.2,8.4,11.8c2.3,1.7,5.3,0,8.4,0.9c0,0,7.6,5,6.8,5c6.1,0.8,6.9-2.5,13.7-3.4
	c6.1-0.8,9.9,4.2,16,4.2c8.4-0.8,20.6-15.2,27.5-1.7"/>
<path class="st1" d="M522.9,227.3c-1.4,0-4.3-0.6-4.6-2.2c-0.9-3.5,3.4-2.9,4.3-4.8c3.2-6.6-10-6.6-13.2-4.4c-7.7,4.4-9.1,22.1-6,30
	c2.6,6.7,11.2,10.1,16,13.6c2.6,2.2,8,10.4,5.4,14.2s-8.3-0.6-11.2,3.5c-3.1,3.8-4.6,11.7-0.9,14.9c1.7,1.6,4.9,0,4.3,3.8
	c-0.3,2.8-4.3,2.5-6,3.5c-3.7,1.3-7.2,4.4-5.7,9.8c2.3,8.2,9.1-1.9,13.2-3.5c6.6-2.8,11.7,2.2,17.7,1.3c3.5-0.3,4-3.2,6.3-4.4
	c2.3-1.6,4.6-0.3,6.8-0.9c5.7-1.6,2.6-6.6,5.7-11.4c1.4-2.2,4.3-2.2,4.6-5.4s-2.6-6-4.6-7.6c-2.3-1.9-5.2-2.5-7.2-4.8
	c-2.6-2.5-3.7-6.3-5.7-9.5c-3.1-5.1-12-9.8-12.9-16.4c-1.2-7.9,6.3-5.1,8.6-10.1c4.9-10.4-10.3-8.8-14.3-8.8"/>
<path class="st1" d="M485.4,253.3c-5.4,2.5-4.9,8.2-10.6,9.2c-5.4,0.9-9.7,0.3-9.7,8.2c0,4.7,6,7,4.6,11.4c-1.4,4.7-8,2.9-6.9,9.8
	c2,13,17.2-0.6,22.3-1.9c4.6-0.9,8.9,0.3,11.8-5.4c2.3-4.4-0.9-8.9,0.6-13.6c2.3-7,7.2-7.3,1.7-14.5
	C494.3,250.1,491.7,250.4,485.4,253.3"/>
<path class="st1" d="M618.5,414.5c-8,0-7.2,6.7-7.7,13.3c-0.6,7.3-0.8,12.6,7.7,12.4c8.3-0.6,9.1-6,9.1-13.9c0-6.3-0.3-12.3-8-11.7"
	/>
<path class="st1" d="M616.8,396.5c-8.9,1.3-1.4,14.2,5.7,9.8c5.1-3.5,0.3-11.7-5.2-10.1"/>
<path class="st1" d="M665.7,448.3c-4.9,0-17.8-3.5-17.2,5.1c0.3,4.1,2.3,4.4,5.4,5.7c4.3,1.6,3.5,2.2,6.3,5.4
	c11.5,13.9,16.3-18,5.2-16.4"/>
<path class="st1" d="M528.1,385c-0.8,16.8,10.7,5,16.8,5.9c9.2,0.8,13.2,13.5,23.1,11.8"/>
<path class="st1" d="M467.1,402.7c6.1,4.2,13-1.7,16.8,1.7c10.7,6.8-2.3,10.1-4.6,16.9c-3.8,11.8,1.5,26.1-8.4,37.1"/>
<path class="st1" d="M758.6,106.8c-2.3-5.1-9.9-11.8-15.2-11.8c-6.9,0.8-5.3,4.2-9.9,8.4c-13,12.7-10.7,0.8-25.2,2.5
	c-16.8,1.7,1.5,9.3,6.9,15.2c9.1,8.4,8.4,12.7,5.3,25.3"/>
<path class="st1" d="M699.9,111c-5.3,3.4-10.7,0-15.2,2.5s-6.9,9.3-10.7,12.7c-3.8,5.1-9.2,5.9-13,11.8c-2.3,4.2-2.3,11.8-5.3,16.9
	c-6.9,11.8-18.3,11-16,26.1c2.3,10.1,13,23.6-3.1,31.2"/>
<path class="st1" d="M563.2,301.5c9.9,1.7,8.4,13.5,19.1,16c7.6,1.7,25.9-5,26.7,11c0.8,7.6-6.1,10.1-9.9,15.2
	c-0.8,1.7,0.8,6.8,0,9.3c-0.8,1.7-6.9,0-6.9,2.5c0,6.8,5.3,8.5,7.6,15.2c0.8,3.4,0,9.2,0,13.5"/>
<path class="st1" d="M598.4,363.9c7.6,0,7.6-8.5,14.5-11c3-0.8,6.9,3.4,9.9,2.5c4.6-0.8,5.3-2.5,8.4-4.2c9.2-4.2,29-10.1,25.9,11"/>
<path class="st1" d="M605.2,335.2c8.4,5.1,35.9-2.5,34.3,11"/>
<path class="st1" d="M593.8,315.9c-0.8-14.3,15.3-27.8,6.1-41.3"/>
<path class="st1" d="M576.2,290.6c3.8,8.4,9.9,14.3,18.3,11.8"/>
<path class="st1" d="M637.3,341.1c4.6-11,16-5,20.6-16.9c-3.8-0.9-13.7-5.1-14.5-10.1c-0.8-7.6,9.2-8.4,13.7-11.8
	c13-11,0.8-18.6,4.6-34.6"/>
<path class="st1" d="M661.7,297.3c6.9,0.9,11.4,6.8,17.6,9.3c5.3,1.7,15.2-0.8,16,8.4c0.8,16.9-28.3,11-37.4,11"/>
<path class="st1" d="M655.6,350.4c16.8-2.5,25.2,0,27.5-21.9"/>
<path class="st1" d="M662.5,369c4.6-8.4,19.9-11.8,15.3-23.6"/>
<path class="st1" d="M678.5,351.3c4.6,6.7,29.8,6.7,24.4,16.9c-6.1,12.6-21.3-9.3-21.3,16"/>
<path class="st1" d="M702.2,371.5c12.2,8.4-0.8,16-3.1,25.3"/>
<path class="st1" d="M705.2,401c10.7-8.4,10.7,2.5,14.5,11c3.8,9.3,8.4,10.1-3.8,18.5"/>
<path class="st1" d="M723.5,422.1c12.2-0.9,13.7-15.2,24.4-16c7.7,0,21.4,5.1,17.6,14.4"/>
<path class="st1" d="M739.5,409.5c-1.5-15.2-12.2-9.3-20.6-5.1"/>
<path class="st1" d="M733.5,399.3c3.8-18.6-16-53.1-32.8-37.1"/>
<path class="st1" d="M683.8,334.4c6.9,7.6,9.2,0.8,16-0.9c6.9-2.5,11.5-3.4,19.1-2.5c9.2,0,7.6,1.7,12.2-5c0.8-0.8,0-6.8,0.8-8.4
	c1.5-3.4,6.1-4.2,7.6-7.6c3-9.3-3.8-21.1-4.6-30.3c-1.5-15.2-4.6-22.8-19.1-28.7"/>
<path class="st1" d="M706,261c6.8,4.2,29.8,7.6,36.6,5.9c8.4-1.7,8.4-8.5,13.7-13.5c3.8-5.1,8.4-7.6,13.8-11.8"/>
<path class="st1" d="M717.4,240.8c11.4-0.9,36.6-5.9,40.5,10.1"/>
<path class="st1" d="M742.6,224.8c5.3,2.5,16.3,3.4,21.6,0.9"/>
<path class="st1" d="M740.3,293.1c5.3-3.4,11.5-6.7,18.3-5.9c7.6,1.7,7.6,5.9,14.5,10.1c3,0.9,19.8,4.2,22.1,2.5
	c6.9-5.1-4-10.1,4.3-14.3"/>
<path class="st1" d="M716.7,358.9c0-1.7,12.2-29.5,13-30.4c1.5-2.5,13,6.7,13.8,6.7c4.5,0.9,13.7,0,18.3-0.8
	c9.2-2.5,26.7-12.6,30.5,7.6c2.3,14.3-19.9,16-0.8,25.3"/>
<path class="st1" d="M731.9,382.5c9.9,3.4,13.7-0.9,22.9-1.7c8.4-0.9,19.3,6.8,29.2,2.5"/>
<path class="st0" d="M204,994c78-14.7,150-60.1,198-124.6c28.3-38.2,48.5-83.3,53.7-131c2.5-23.5,1.2-48-8.6-69.4
	s-29.3-39-52.3-41.8c-23.2-2.8-47.4,11-57.2,32.7c-4,8.8-5.7,19-3.5,28.5c3.4,14.5,15.4,25.6,28.9,31.2s28.3,6.5,42.9,6.8
	c23.8,0.5,50.3-1.8,66.3-19.8c7-8,11.1-18.2,14.1-28.5c19.5-67.4-3.3-140.5,8.3-209.8C505.7,400.5,551.7,340,613,312"/>
<path d="M174,1008.2c-11.8-0.1-21.2-9.7-21.2-21.5c0,0,0,0,0,0c0.3-11.8,9.6-21.2,21.3-21.2c11.8,0,21.3,9.6,21.3,21.4
	S185.8,1008.3,174,1008.2z M165.3,987c0,4.6,0,9.1,0,13.7c0,1.5,0.5,2.1,2,2c2.6-0.1,5.3-0.1,7.9,0c1.5,0,1.8-0.7,1.8-2
	s-0.1-2.5-1.9-2.4c-1.4,0.1-2.8,0-4.3,0s-2-0.5-2-2s0-2.6,0-3.9c0-4.2,0-4.2,4.2-4.4c1.2,0,1.9-0.3,1.9-1.7s-0.5-2-1.9-2
	c-0.8,0-1.6,0-2.4,0c-1.1,0-1.8-0.5-1.8-1.7c0-1.9,0-3.8,0-5.7c-0.1-0.8,0.4-1.5,1.2-1.6c0.1,0,0.3,0,0.4,0c1.6,0,3.1-0.1,4.7,0
	c1.7,0.1,1.8-0.9,1.8-2.2s-0.2-2.1-1.8-2c-2.5,0.1-5,0.1-7.5,0c-1.8-0.1-2.5,0.5-2.5,2.4C165.3,978,165.3,982.5,165.3,987z
	 M179.1,986.9c0,4.5,0,9,0,13.5c0,1.3,0,2.4,1.9,2.3s2-0.8,2-2.2c0-9,0-18.1,0-27.1c0-1.5-0.3-2.2-2-2.2s-1.9,1-1.9,2.4
	C179.1,977.9,179.1,982.4,179.1,986.9L179.1,986.9z"/>
<path d="M630,321.2c-11.7-0.1-21.1-9.6-21-21.3c0.1-11.7,9.6-21.1,21.3-21c11.7,0.1,21.1,9.6,21,21.3
	C651.2,311.9,641.7,321.3,630,321.2z M621.2,300.1c0,4.5,0,9,0,13.5c0,1.4,0.4,2.1,2,2c2.6-0.1,5.2-0.1,7.7,0
	c1.7,0.1,2.1-0.6,2.1-2.2s-0.5-2.3-2.1-2.2c-1.2,0.1-2.4,0-3.7,0c-1.7,0.1-2.5-0.5-2.4-2.3c0.1-1.3,0-2.6,0-3.8c0-4.3-0.2-4,3.9-4
	c1.4,0,2.2-0.3,2.2-1.9s-0.8-1.8-2.1-1.8c-0.7,0-1.4,0-2,0c-1.3,0-2-0.5-2-1.9c0-1.8,0-3.5,0-5.3c0-1.3,0.5-1.9,1.8-1.8
	s2.8-0.1,4.3,0c1.7,0.1,2-0.7,2-2.2s-0.4-2.1-2-2c-2.5,0.1-5,0.1-7.5,0c-1.8-0.1-2.3,0.6-2.3,2.4
	C621.3,291.2,621.3,295.7,621.2,300.1L621.2,300.1z M635.1,300.1c0,4.4,0,8.9,0,13.3c0,1.3,0,2.4,1.9,2.3s2-0.8,2-2.2
	c0-8.9,0-17.9,0-26.9c0-1.5-0.3-2.2-2-2.2s-1.9,0.8-1.9,2.1C635.2,291.1,635.1,295.6,635.1,300.1L635.1,300.1z"/>
<path class="st2" d="M181,971.1c-1.5,0-1.9,0.7-1.9,2.1c0,4.5,0,9,0,13.4l0,0c0,4.7,0,9.4,0,14c0,1.3,0.4,2,1.9,2c1.5,0,2-0.5,2-2
	c0-9.2,0-18.3,0-27.5C183,971.7,182.5,971.1,181,971.1z"/>
<path class="st2" d="M174.2,998.3c-6.1-0.1-5.2,0.6-5.3-5.3c0-4.4,0-4.5,4.5-4.8c1.3-0.1,1.6-0.7,1.6-1.9s-0.4-1.7-1.6-1.8
	c-4.5-0.4-4.5-0.4-4.5-4.9c0-0.5,0-1.1,0-1.6c-0.2-1.8,0.5-2.7,2.4-2.5c1.3,0.1,2.7,0,4.1,0c1.6,0.1,1.7-1,1.7-2.1
	c0-1.2-0.1-2.1-1.7-2.1c-2.7,0.1-5.3,0.1-8,0c-1.6,0-2.2,0.5-2.1,2.1c0,4.7,0,9.2,0,13.7c0,4.5,0,9.1,0,13.7c0,1.6,0.6,2.2,2.1,2.1
	c2.5-0.1,4.9-0.1,7.3,0c1.8,0.1,2.4-0.6,2.4-2.4C177.1,998,175.6,998.3,174.2,998.3z"/>
<path class="st2" d="M637,284.3c-1.5,0-1.9,0.7-1.9,2.1c0,4.5,0,9,0,13.4l0,0c0,4.7,0,9.4,0,14c0,1.3,0.4,2,1.9,2c1.5,0,2-0.5,2-2
	c0-9.2,0-18.3,0-27.5C639,284.9,638.6,284.3,637,284.3z"/>
<path class="st2" d="M630.2,311.4c-6.1-0.1-5.2,0.6-5.3-5.3c0-4.4,0-4.5,4.5-4.8c1.3-0.1,1.6-0.7,1.6-1.9c0-1.1-0.4-1.7-1.6-1.8
	c-4.5-0.4-4.5-0.4-4.5-4.9c0-0.5,0-1.1,0-1.6c-0.2-1.8,0.5-2.7,2.4-2.5c1.3,0.1,2.7,0,4.1,0c1.6,0.1,1.7-1,1.7-2.1
	c0-1.2-0.1-2.1-1.7-2.1c-2.7,0.1-5.3,0.1-8,0c-1.6,0-2.2,0.5-2.1,2.1c0,4.7,0,9.2,0,13.7c0,4.5,0,9.1,0,13.7c0,1.6,0.6,2.2,2.1,2.1
	c2.5-0.1,4.9-0.1,7.3,0c1.8,0.1,2.4-0.6,2.4-2.4C633.1,311.2,631.7,311.5,630.2,311.4z"/>
</svg>
