<svg id="Capa_1" data-name="Capa 1" xmlns="http://www.w3.org/2000/svg" width="750" height="1334" viewBox="0 0 750 1334"><defs><style>.cls-1,.cls-2{fill:none;stroke:#00b4aa;stroke-miterlimit:10;}.cls-1{stroke-width:0.75px;}.cls-2{stroke-width:0.78px;}</style></defs><path class="cls-1" d="M119.35,1279.33c4.84,6.49,14.35,21.8,19.1,27.84,7.62,12.07,16.18,14.08,29.5,13.08,5.69,0,12.33,3,15.19-3,4.76-12.06-7.62-9-13.31-12.06-12.38-6-22.82-12.08-30.44-25.15-3.81-7-4.75-14.08-9.5-20.12-6.64-10.06-10.45-9.05-10.45-23.12.94-32.2,38-44.26,2.82-65.38-12.33-8.05-21.83-14.08-10.44-29.16,3.81-6,11.43-6,14.26-13.07,1.92-5-1.89-13.08,0-19.12,4.74-17.1,17.12-15.08-1-27.15-13.31-8.05-22.82-20.12,0-18.11,14.26,1,18.07,7,19-14.09,0-16.08-10.44-30.17,12.38-31.16,15.23-1,29.5,8,41.85-10.06,7.6-10.07,8.78-35.27,1.65-45-3.25-4.44-13.79-15.07-18.64-16.22"/><path class="cls-1" d="M212.54,786.18c0,8.05,12.84,24.13,6.52,34.88-11.75,17-33.3,28.42-31.71,30.83"/><path class="cls-1" d="M1.9,741.36C1.9,753.9.66,755-4.32,761.88s-12.49,5.46-16.24,13.65c-5,9.6-1.25,20.53,0,30.12C-19.34,838.49-34.3,885-19.34,915.1c10,19.15,27.5,19.15,23.75,46.51-1.28,10.93-7.51,19.15-8.73,28.72-3.76,13.68-1.28,21.91,0,36.94,2.47,13.68-1.28,35.56,2.47,47.9s16.24,13.66,21.22,24.61c2.52,6.84-3.75,16.42,0,21.88,3.75,6.85,16.25,4.11,20,11,8.73,13.68-3.76,30.1-2.53,43.77,1.23,12.32,8.73,27.36,11.26,39.67,3.73,17.79,8.73,21.89,17.48,38.32,7.46,12.31,3.71,23.25,20,26,13.72,2.73,22.61-16.1,33.81-1"/><path class="cls-1" d="M187.72,850.66c-8.57,5.8-27.27,6.84-32.4,14.07-6.83,10.19,8.56,23.25,11.93,32,6.83,17.43-11.46,48.62,14.13,51.53"/><path class="cls-1" d="M1.9,741.36c4-10.71,0-32.49,17.17-38.29,8.93-3,18.68,20.11,28,21.44,0-12.09,12-20.11,24-14.76,10.65,5.35,8,20.11,16,28.16,17.35,16.1,57.35,4,69.39,28.17,8,17.43-17.37,37.54,6.65,49.62,33.77,16.21,35.35-37.09,49.39-29.52"/><path class="cls-2" d="M776.72,100.36c-3.67-1.21-7.2-2.43-10.48-3.7-7.63-2.53-12.19-8.43-22.12-6.75v-.84C722,88.23,706,95,684.59,99.19c-19.08,4.21-30.55,34.57-45,49.75-6.88,7.59-16.78,14.32-25.95,18.55-13,5.9-22.14,3.38-25.18,20.23-1.54,8.43.75,23.6,6.85,29.52,9.18,9.27,16.81-.84,25.21-5.07,12.19-6.73,16-2.53,20.59,11,1.53,4.22,6.12,28.67,7.63,29.52,6.13,5,25.2-9.27,26.72-15.18,2.29-4.22-.76-11,1.53-15.19,2.3-5.88,8.39-6.73,10.69-11.8,6.85-14.33-9.93-18.54-6.1-32.87,3.8-13.5,17.54-11.8,24.42-20.23,6.85-7.6,7.61-21.93,19.84-17.72,16,5.07-1.55,16.87-7.64,24.45-13.74,16.87-2.3,42.17,17.56,36.26,6.85-2.53,17.54-9.28,25.18-6.74,13,4.21,6.88,14.33-3.81,16-6.12.84-17.56-5.9-22.15.84-5.34,9.28,6.13,6.76,5.34,11.8-2.26,8.45-6.85,5.92-12.19,7.61-6.1,1.68-7.64-3.38-12.23,5.88-1.51,3.39.78,10.12,0,13.5,0-.84-10.69,11.8-9.15,11-9.93,5.92-3.82-2.52-12.22-3.36-10.68-.84-17.54,12.65-28.22,12.65-7.64,0-6.88-6.75-12.23-8.44-6.85-1.69-10.68,4.23-16.78,3.39-19.08-.85-9.15-11.81-8.39-22.77,1.52-16.87-14.5-11.8-16.79.84-1.54,8.43,9.91,19.4,2.29,27-4.58,5.91-20.61,3.36-28.24,10.12-6.89,5.9-13,15.17-20.62,20.24-3.81,3.37-8.39,5.05-11.44,8.41s-4.59,11.81-9.15,13.51c-5.34.84-21.37-17.71-18.32,2.54C519,326,506,321.79,503.69,331.9c-3.81,13.49,8.39,8.43,14.52,11,12.19,5.09,25.17,37.1,6.1,43.87-14.49,5-38.16-8.45-53.43,0-9.15,5-5.35,16.84-6.1,27-1.54,11-6.11,14.33-10.69,22.77,14.49,6.77-3,21.09,15.27,24.45,10.67,1.68,19.84-3.36,24.43,11,8.39-10.13,12.19-1.68,22.12-5.05,7.64-2.55,4.59-5.08,10.69-10.95,3.8-4.25,11.44-5.93,13.73-10.13,1.53-4.23-2.29-12.64,0-17.73,1.53-5,6.1-8.4,9.93-10.95,12.2-7.58,13-4.21,19.08-17.7,4.56-10.13,3-11,15.25-10.13,4.58,0,10.68,2.53,15.27.84,2.3-.84,1.54-5.88,3-5.88,3.83-1.69,6.13.84,9.17,0,9.91-2.54,18.31-5.92,24.42,7.57,2.3,5.08-.77,11.8,3,16.89,2.3,1.67,12.2,4.2,14.49,5,4.59,2.52,16,5.08,19.08,8.45,4.59,5.88,1.54,12.64,3.08,19.38,6.85,29.52,6.1-18.54,18.29-12.65,6.13-13.49-36.62-32.86-42-43.83-5.34-10.12-3.83-27,9.15-19.4,4.59,2.52,6.88,12.64,10.69,16,4.58,4.23,9.17,3.38,13.73,6.75,7.63,4.21,17.56,12.64,21.37,21.08,1.54,4.2,1.54,6.72,2.3,11,1.53,6.72.75,8.41,3.8,13.49,2.29,5,7.64,9.28,9.17,13.48,1.51,3.36,3.81,15.16,6.1,16.85,9.18,8.44,17.57-7.56,17.57-15.17,0-6.74-6.13-16-3.84-22.77,3.06-8.42,16-5.88,23.67-6.72,3.83,5.88,0,10.1.75,16.84.79,7.61,5.35,11,8.42,17.72,2.27,4.22,3.81,9.25,8.4,11.8,2.27,1.7,5.34,0,8.39.85,0,0,7.64,5.05,6.85,5.05,6.13.84,6.89-2.52,13.74-3.36,6.12-.84,9.93,4.2,16,4.2,8.41-.84,20.62-15.17,27.5-1.68"/><path class="cls-2" d="M522.87,227.33c-1.41,0-4.28-.62-4.56-2.2-.87-3.5,3.43-2.87,4.28-4.75,3.16-6.65-10-6.65-13.17-4.44-7.7,4.44-9.15,22.13-6,30,2.58,6.66,11.16,10.13,16,13.61,2.58,2.2,8,10.44,5.44,14.23s-8.3-.62-11.15,3.48c-3.15,3.8-4.6,11.7-.86,14.86,1.7,1.58,4.87,0,4.28,3.8-.29,2.82-4.28,2.53-6,3.47-3.71,1.27-7.17,4.44-5.72,9.8,2.29,8.22,9.14-1.9,13.16-3.48,6.58-2.84,11.73,2.22,17.73,1.28,3.46-.34,4-3.16,6.32-4.44,2.29-1.58,4.57-.3,6.85-.94,5.74-1.58,2.58-6.65,5.74-11.39,1.43-2.21,4.29-2.21,4.57-5.37s-2.58-6-4.57-7.59c-2.28-1.9-5.15-2.53-7.16-4.75-2.57-2.52-3.73-6.32-5.72-9.48-3.14-5.06-12-9.8-12.88-16.45-1.17-7.9,6.28-5.05,8.58-10.12,4.87-10.42-10.31-8.84-14.3-8.84"/><path class="cls-2" d="M485.38,253.26c-5.44,2.53-4.85,8.22-10.57,9.16-5.44.94-9.74.33-9.74,8.23,0,4.74,6,7,4.59,11.38-1.44,4.74-8,2.85-6.88,9.8,2,13,17.16-.63,22.31-1.9,4.59-.94,8.9.32,11.75-5.38,2.3-4.42-.87-8.85.57-13.59,2.29-7,7.16-7.26,1.73-14.54-4.87-6.33-7.45-6-13.76-3.16"/><path class="cls-2" d="M618.48,414.5c-8,0-7.17,6.66-7.74,13.29-.56,7.26-.85,12.64,7.74,12.35,8.29-.64,9.14-6,9.14-13.93,0-6.32-.28-12.34-8-11.71"/><path class="cls-2" d="M616.75,396.47c-8.86,1.29-1.42,14.24,5.74,9.83,5.13-3.5.29-11.71-5.15-10.12"/><path class="cls-2" d="M665.71,448.34c-4.87,0-17.75-3.46-17.19,5.07.29,4.12,2.3,4.41,5.44,5.69,4.3,1.59,3.45,2.22,6.31,5.38,11.45,13.89,16.32-18,5.16-16.44"/><path class="cls-2" d="M528.13,385c-.75,16.84,10.69,5,16.81,5.88,9.15.84,13.19,13.49,23.12,11.8"/><path class="cls-2" d="M467.09,402.69c6.1,4.23,13-1.68,16.79,1.69,10.69,6.76-2.3,10.12-4.59,16.88-3.8,11.81,1.54,26.13-8.39,37.1"/><path class="cls-2" d="M758.63,106.76c-2.3-5.07-9.91-11.81-15.25-11.81-6.88.84-5.34,4.22-9.93,8.42-13,12.66-10.69.85-25.2,2.54-16.79,1.69,1.53,9.27,6.88,15.18,9.14,8.42,8.38,12.65,5.34,25.3"/><path class="cls-2" d="M699.86,111c-5.35,3.37-10.69,0-15.25,2.52s-6.88,9.28-10.69,12.65c-3.83,5.06-9.17,5.9-13,11.81-2.29,4.22-2.29,11.8-5.35,16.87-6.88,11.8-18.32,11-16,26.13,2.29,10.12,13,23.61-3.06,31.19"/><path class="cls-2" d="M563.23,301.53c9.93,1.69,8.42,13.49,19.11,16,7.6,1.68,25.93-5.05,26.71,11,.76,7.59-6.12,10.12-9.93,15.16-.75,1.69.76,6.76,0,9.29-.75,1.68-6.88,0-6.88,2.51,0,6.77,5.34,8.45,7.64,15.2.75,3.38,0,9.25,0,13.5"/><path class="cls-2" d="M598.37,363.92c7.61,0,7.61-8.45,14.49-11,3-.84,6.88,3.35,9.93,2.51,4.56-.83,5.34-2.51,8.39-4.2,9.15-4.21,29-10.12,25.93,11"/><path class="cls-2" d="M605.22,335.25c8.39,5.06,35.87-2.53,34.35,11"/><path class="cls-2" d="M593.78,315.86c-.76-14.33,15.27-27.82,6.1-41.31"/><path class="cls-2" d="M576.21,290.57c3.83,8.43,9.93,14.32,18.32,11.8"/><path class="cls-2" d="M637.27,341.15c4.59-11,16-5,20.62-16.85-3.83-.85-13.73-5.08-14.51-10.12-.76-7.6,9.17-8.44,13.73-11.81,13-11,.78-18.57,4.59-34.57"/><path class="cls-2" d="M661.7,297.3c6.88.86,11.44,6.75,17.57,9.28,5.34,1.68,15.24-.84,16,8.44.75,16.85-28.26,11-37.41,11"/><path class="cls-2" d="M655.6,350.43c16.78-2.53,25.18,0,27.47-21.92"/><path class="cls-2" d="M662.45,369c4.59-8.42,19.87-11.81,15.28-23.61"/><path class="cls-2" d="M678.48,351.27c4.59,6.74,29.76,6.74,24.43,16.85-6.11,12.65-21.35-9.26-21.35,16.05"/><path class="cls-2" d="M702.15,371.51c12.22,8.41-.77,16-3.06,25.31"/><path class="cls-2" d="M705.2,401c10.68-8.44,10.68,2.52,14.51,11,3.8,9.28,8.39,10.13-3.83,18.55"/><path class="cls-2" d="M723.51,422.11c12.23-.85,13.74-15.19,24.42-16,7.65,0,21.38,5.06,17.57,14.35"/><path class="cls-2" d="M739.55,409.46c-1.52-15.18-12.2-9.29-20.62-5.08"/><path class="cls-2" d="M733.45,399.34c3.8-18.57-16-53.12-32.82-37.1"/><path class="cls-2" d="M683.82,334.41c6.89,7.58,9.18.84,16-.85,6.89-2.54,11.47-3.38,19.08-2.54,9.17,0,7.63,1.7,12.22-5,.76-.84,0-6.76.76-8.44,1.54-3.36,6.12-4.2,7.64-7.59,3-9.26-3.81-21.06-4.59-30.34-1.51-15.18-4.56-22.78-19.08-28.68"/><path class="cls-2" d="M706,261c6.85,4.24,29.76,7.6,36.61,5.92,8.4-1.68,8.4-8.45,13.74-13.49,3.83-5.07,8.42-7.6,13.76-11.8"/><path class="cls-2" d="M717.42,240.82c11.44-.85,36.64-5.91,40.45,10.11"/><path class="cls-2" d="M742.59,224.79c5.34,2.54,16.27,3.38,21.62.85"/><path class="cls-2" d="M740.3,293.09c5.34-3.36,11.46-6.74,18.32-5.9,7.64,1.7,7.64,5.9,14.53,10.11,3,.86,19.82,4.23,22.11,2.54,6.86-5.07-4-10.11,4.35-14.33"/><path class="cls-2" d="M716.66,358.86c0-1.7,12.2-29.52,13-30.35,1.53-2.53,13,6.74,13.76,6.74,4.55.85,13.74,0,18.29-.84,9.18-2.54,26.72-12.65,30.55,7.58,2.29,14.32-19.86,16-.79,25.29"/><path class="cls-2" d="M731.91,382.47c9.93,3.38,13.73-.85,22.91-1.7,8.38-.85,19.31,6.76,29.22,2.54"/><path class="cls-1" d="M204,994c78-14.73,150-60.09,198-124.64,28.34-38.16,48.55-83.34,53.67-131,2.53-23.48,1.23-48-8.6-69.41s-29.32-39-52.27-41.85c-23.18-2.84-47.41,11-57.2,32.65-4,8.85-5.72,19-3.53,28.46,3.35,14.47,15.4,25.58,28.88,31.18s28.34,6.5,42.89,6.79c23.76.47,50.33-1.77,66.26-19.78,7.05-8,11.14-18.24,14.12-28.55,19.48-67.39-3.27-140.48,8.26-209.75C505.7,400.51,551.69,340,613,312"/><path d="M174,1008.23a21.32,21.32,0,0,1-21.16-21.5c.31-11.75,9.56-21.24,21.28-21.22a21.36,21.36,0,0,1-.12,42.72ZM165.26,987c0,4.56,0,9.11,0,13.67,0,1.48.49,2.08,2,2,2.63-.08,5.28-.08,7.92,0,1.49,0,1.84-.66,1.83-2s-.09-2.47-1.9-2.39c-1.42.07-2.84,0-4.26,0s-2-.55-2-1.95,0-2.58,0-3.88c0-4.18,0-4.21,4.17-4.37,1.2,0,1.91-.32,1.92-1.72s-.48-2-1.89-2c-.81,0-1.63,0-2.44,0-1.15,0-1.76-.53-1.75-1.73,0-1.91,0-3.81,0-5.72a1.41,1.41,0,0,1,1.63-1.59c1.56,0,3.12-.07,4.67,0,1.72.09,1.79-.94,1.8-2.22s-.24-2.08-1.78-2c-2.5.08-5,.12-7.51,0-1.84-.1-2.52.49-2.47,2.41C165.34,978,165.26,982.46,165.26,987Zm13.86-.08c0,4.48,0,9,0,13.45,0,1.34,0,2.37,1.87,2.35s2-.79,2-2.25q-.06-13.54,0-27.1c0-1.47-.3-2.24-2-2.25s-1.88,1-1.87,2.36C179.14,977.91,179.12,982.39,179.12,986.87Z"/><path d="M630,321.24a21.17,21.17,0,1,1,21.31-21.05A21.19,21.19,0,0,1,630,321.24Zm-8.78-21.11c0,4.51,0,9,0,13.54,0,1.44.44,2.09,2,2,2.57-.08,5.15-.1,7.72,0,1.66.06,2.08-.64,2.07-2.16s-.45-2.29-2.09-2.19c-1.21.08-2.44-.05-3.65,0-1.7.1-2.54-.53-2.42-2.32.09-1.28,0-2.56,0-3.84,0-4.32-.19-4,3.94-4,1.36,0,2.19-.26,2.16-1.88s-.82-1.82-2.08-1.77c-.68,0-1.36,0-2,0-1.33,0-2-.5-2-1.9,0-1.76,0-3.51,0-5.26,0-1.26.52-1.86,1.83-1.81s2.85-.08,4.27,0c1.69.12,2-.7,2-2.19s-.42-2.1-2-2c-2.51.09-5,.12-7.52,0-1.84-.09-2.32.65-2.29,2.36C621.32,291.23,621.26,295.68,621.26,300.13Zm13.86-.05c0,4.44,0,8.88,0,13.32,0,1.34,0,2.35,1.88,2.33s2-.79,2-2.24q-.06-13.42,0-26.85c0-1.47-.31-2.24-2-2.23s-1.88.8-1.87,2.14C635.15,291.06,635.12,295.57,635.12,300.08Z"/></svg>