<?xml version="1.0" encoding="utf-8"?>
<!-- Generator: Adobe Illustrator 24.3.0, SVG Export Plug-In . SVG Version: 6.00 Build 0)  -->
<svg version="1.1" id="Capa_1" xmlns="http://www.w3.org/2000/svg" xmlns:xlink="http://www.w3.org/1999/xlink" x="0px" y="0px"
	 viewBox="0 0 768 1024" style="enable-background:new 0 0 768 1024;" xml:space="preserve">
<style type="text/css">
	.st0{fill:none;stroke:#00B4AA;stroke-width:0.64;stroke-miterlimit:10;}
	.st1{fill:none;stroke:#00B4AA;stroke-width:0.66;stroke-miterlimit:10;}
	.st2{fill:none;stroke:#00B4AA;stroke-width:0.72;stroke-miterlimit:10;}
	.st3{fill:none;stroke:#00B4AA;stroke-width:0.57;stroke-miterlimit:10;}
	.st4{fill:#FFFFFF;}
</style>
<path class="st0" d="M105.8,980c4.1,5.4,12.3,18.3,16.4,23.3c6.5,10.1,13.9,11.8,25.3,11c4.9,0,10.6,2.5,13-2.5
	c4.1-10.1-6.5-7.6-11.4-10.1c-10.6-5.1-19.6-10.1-26.1-21.1c-3.3-5.9-4.1-11.8-8.2-16.9c-5.7-8.4-9-7.6-9-19.4
	c0.8-27,32.6-37.1,2.4-54.9c-10.6-6.8-18.7-11.8-9-24.5c3.3-5.1,9.8-5.1,12.2-11c1.7-4.2-1.6-11,0-16c4.1-14.3,14.7-12.7-0.8-22.8
	c-11.4-6.8-19.6-16.9,0-15.2c12.2,0.8,15.5,5.9,16.3-11.8c0-13.5-9-25.3,10.6-26.1c13.1-0.9,25.3,6.8,35.9-8.4
	c6.5-8.5,7.5-29.6,1.4-37.8c-2.8-3.7-11.8-12.6-16-13.6"/>
<path class="st0" d="M185.8,566.3c0,6.8,11,20.2,5.6,29.2c-10.1,14.3-28.6,23.8-27.2,25.9"/>
<path class="st0" d="M5,528.7c0,10.5-1.1,11.5-5.3,17.2s-10.7,4.6-13.9,11.5c-4.3,8-1.1,17.2,0,25.3c1.1,27.5-11.8,66.6,1.1,91.8
	c8.6,16.1,23.6,16.1,20.4,39c-1.1,9.2-6.5,16.1-7.5,24.1c-3.2,11.5-1.1,18.4,0,31c2.1,11.4-1.1,29.8,2.1,40.2s13.9,11.5,18.2,20.7
	c2.2,5.7-3.2,13.8,0,18.3c3.2,5.8,14,3.5,17.2,9.2c7.5,11.5-3.2,25.2-2.2,36.7c1.1,10.3,7.5,23,9.7,33.3c3.2,14.9,7.5,18.4,15,32.1
	c6.4,10.3,3.2,19.5,17.1,21.8c11.8,2.3,19.4-13.5,29-0.9"/>
<path class="st0" d="M164.5,620.4c-7.4,4.9-23.4,5.7-27.8,11.8c-5.9,8.5,7.4,19.5,10.2,26.8c5.9,14.6-9.8,40.8,12.1,43.2"/>
<path class="st0" d="M5,528.7c3.4-9,0-27.3,14.7-32.1c7.7-2.5,16,16.9,24.1,18c0-10.1,10.3-16.9,20.6-12.4
	c9.2,4.5,6.8,16.9,13.7,23.6c14.9,13.5,49.2,3.4,59.6,23.6c6.9,14.6-14.9,31.5,5.7,41.6c29,13.6,30.4-31.1,42.4-24.8"/>
<path class="st1" d="M830.5,74.9c-3.2-1-6.2-2-9-3.1c-6.5-2.1-10.5-7.1-19-5.7v-0.7c-19-0.7-32.8,4.9-51.1,8.5
	c-16.4,3.5-26.2,29-38.7,41.7c-6.4,6.6-13.9,11.8-22.3,15.6c-11.1,4.9-19,2.8-21.6,17c-1.3,7.1,0.6,19.8,5.9,24.8
	c7.9,7.8,14.4-0.7,21.6-4.2c10.5-5.6,13.8-2.1,17.7,9.2c1.3,3.6,5.3,24.1,6.6,24.8c5.3,4.2,21.6-7.8,22.9-12.7
	c2-3.5-0.7-9.2,1.3-12.7c2-4.9,7.2-5.6,9.2-9.9c5.9-12-8.5-15.6-5.2-27.6c3.3-11.3,15-9.9,21-17c5.9-6.4,6.5-18.4,17-14.9
	c13.8,4.2-1.3,14.2-6.6,20.5c-11.8,14.2-2,35.4,15.1,30.4c5.9-2.1,15.1-7.8,21.6-5.6c11.2,3.5,5.9,12-3.3,13.4
	c-5.3,0.7-15.1-5-19,0.7c-4.6,7.8,5.3,5.7,4.6,9.9c-1.9,7.1-5.9,5-10.5,6.4c-5.2,1.4-6.5-2.8-10.5,4.9c-1.3,2.8,0.7,8.5,0,11.3
	c0-0.7-9.2,9.9-7.8,9.2c-8.5,5-3.3-2.1-10.5-2.8c-9.2-0.7-15,10.6-24.2,10.6c-6.6,0-5.9-5.7-10.5-7.1c-5.9-1.4-9.2,3.6-14.4,2.8
	c-16.4-0.7-7.8-9.9-7.2-19.1c1.3-14.2-12.4-9.9-14.4,0.7c-1.3,7.1,8.5,16.3,2,22.6c-3.9,5-17.7,2.8-24.2,8.5
	c-5.9,4.9-11.2,12.7-17.7,17c-3.3,2.8-7.2,4.2-9.8,7.1s-3.9,9.9-7.8,11.3c-4.6,0.7-18.3-14.9-15.7,2.1c-6.6,1.4-17.7-2.1-19.7,6.4
	c-3.3,11.3,7.2,7.1,12.5,9.2c10.5,4.3,21.6,31.1,5.2,36.8c-12.4,4.2-32.8-7.1-45.9,0c-7.8,4.2-4.6,14.1-5.2,22.6
	c-1.3,9.2-5.2,12-9.2,19.1c12.4,5.7-2.6,17.7,13.1,20.5c9.2,1.4,17-2.8,21,9.2c7.2-8.5,10.5-1.4,19-4.2c6.6-2.1,3.9-4.3,9.2-9.2
	c3.3-3.6,9.8-5,11.8-8.5c1.3-3.5-2-10.6,0-14.9c1.3-4.2,5.2-7.1,8.5-9.2c10.5-6.4,11.1-3.5,16.4-14.9c3.9-8.5,2.6-9.2,13.1-8.5
	c3.9,0,9.2,2.1,13.1,0.7c2-0.7,1.3-4.9,2.6-4.9c3.3-1.4,5.3,0.7,7.9,0c8.5-2.1,15.7-5,21,6.4c2,4.3-0.7,9.9,2.6,14.2
	c2,1.4,10.5,3.5,12.4,4.2c3.9,2.1,13.8,4.3,16.4,7.1c3.9,4.9,1.3,10.6,2.6,16.3c5.9,24.8,5.2-15.5,15.7-10.6
	c5.3-11.3-31.4-27.6-36-36.8c-4.6-8.5-3.3-22.6,7.8-16.3c3.9,2.1,5.9,10.6,9.2,13.5c3.9,3.5,7.9,2.8,11.8,5.7
	c6.5,3.5,15.1,10.6,18.3,17.7c1.3,3.5,1.3,5.6,2,9.2c1.3,5.6,0.6,7.1,3.3,11.3c2,4.2,6.5,7.8,7.9,11.3c1.3,2.8,3.3,12.7,5.2,14.1
	c7.9,7.1,15.1-6.4,15.1-12.7c0-5.7-5.3-13.4-3.3-19.1c2.6-7.1,13.8-4.9,20.3-5.6c3.3,4.9,0,8.5,0.7,14.1c0.7,6.4,4.6,9.2,7.2,14.9
	c2,3.5,3.3,7.8,7.2,9.9c2,1.4,4.6,0,7.2,0.7c0,0,6.6,4.2,5.9,4.2c5.3,0.7,5.9-2.1,11.8-2.8c5.2-0.7,8.5,3.5,13.8,3.5
	c7.2-0.7,17.7-12.7,23.6-1.4"/>
<path class="st1" d="M612.6,181.4c-1.2,0-3.7-0.5-3.9-1.9c-0.8-2.9,3-2.4,3.7-4c2.7-5.6-8.6-5.6-11.3-3.7
	c-6.6,3.7-7.8,18.6-5.2,25.2c2.2,5.6,9.6,8.5,13.8,11.4c2.2,1.9,6.9,8.8,4.7,11.9s-7.1-0.5-9.6,2.9c-2.7,3.2-3.9,9.8-0.7,12.5
	c1.5,1.3,4.2,0,3.7,3.2c-0.2,2.4-3.7,2.1-5.2,2.9c-3.2,1.1-6.2,3.7-4.9,8.2c2,6.9,7.9-1.6,11.3-2.9c5.6-2.4,10.1,1.9,15.2,1.1
	c3-0.3,3.5-2.6,5.4-3.7c2-1.3,3.9-0.3,5.9-0.8c4.9-1.3,2.2-5.6,4.9-9.6c1.2-1.9,3.7-1.9,3.9-4.5s-2.2-5-3.9-6.4
	c-2-1.6-4.4-2.1-6.1-4c-2.2-2.1-3.2-5.3-4.9-8c-2.7-4.2-10.3-8.2-11.1-13.8c-1-6.6,5.4-4.2,7.4-8.5c4.2-8.7-8.8-7.4-12.3-7.4"/>
<path class="st1" d="M580.4,203.2c-4.7,2.1-4.2,6.9-9.1,7.7c-4.7,0.8-8.4,0.3-8.4,6.9c0,4,5.2,5.8,3.9,9.6c-1.2,4-6.9,2.4-5.9,8.2
	c1.7,10.9,14.7-0.5,19.2-1.6c3.9-0.8,7.6,0.3,10.1-4.5c2-3.7-0.8-7.4,0.5-11.4c2-5.8,6.2-6.1,1.5-12.2
	C588,200.5,585.8,200.8,580.4,203.2"/>
<path class="st1" d="M694.6,338.5c-6.9,0-6.2,5.6-6.6,11.1c-0.5,6.1-0.7,10.6,6.6,10.4c7.1-0.5,7.8-5.1,7.8-11.7
	c0-5.3-0.2-10.4-6.9-9.8"/>
<path class="st1" d="M693.2,323.3c-7.6,1.1-1.2,11.9,4.9,8.2c4.4-2.9,0.2-9.8-4.4-8.5"/>
<path class="st1" d="M735.2,366.9c-4.2,0-15.2-2.9-14.8,4.2c0.2,3.5,2,3.7,4.7,4.8c3.7,1.3,3,1.9,5.4,4.5c9.8,11.6,14-15.1,4.4-13.8
	"/>
<path class="st1" d="M617.1,313.7c-0.6,14.1,9.2,4.2,14.4,4.9c7.8,0.7,11.3,11.3,19.8,9.9"/>
<path class="st1" d="M564.7,328.5c5.2,3.5,11.1-1.4,14.4,1.4c9.2,5.7-2,8.5-3.9,14.2c-3.3,9.9,1.3,21.9-7.2,31.1"/>
<path class="st1" d="M815,80.3c-2-4.2-8.5-9.9-13.1-9.9c-5.9,0.7-4.6,3.5-8.5,7.1c-11.1,10.6-9.2,0.7-21.6,2.1
	c-14.4,1.4,1.3,7.8,5.9,12.7c7.8,7.1,7.2,10.6,4.6,21.2"/>
<path class="st2" d="M772,80c-5.2,3-10.4,0-14.9,2.2s-6.7,8.1-10.4,11.1c-3.7,4.4-9,5.2-12.7,10.3c-2.2,3.7-2.2,10.3-5.2,14.8
	c-6.7,10.3-17.9,9.6-15.7,22.9c2.2,8.9,12.7,20.7-3,27.4"/>
<path class="st1" d="M647.2,243.7c8.5,1.4,7.2,11.3,16.4,13.4c6.5,1.4,22.3-4.2,22.9,9.2c0.7,6.4-5.3,8.5-8.5,12.7
	c-0.6,1.4,0.7,5.7,0,7.8c-0.6,1.4-5.9,0-5.9,2.1c0,5.7,4.6,7.1,6.6,12.7c0.6,2.8,0,7.8,0,11.3"/>
<path class="st1" d="M677.4,296c6.5,0,6.5-7.1,12.4-9.2c2.6-0.7,5.9,2.8,8.5,2.1c3.9-0.7,4.6-2.1,7.2-3.5c7.8-3.5,24.9-8.5,22.3,9.2
	"/>
<path class="st1" d="M683.3,272c7.2,4.2,30.8-2.1,29.5,9.2"/>
<path class="st1" d="M673.4,255.7c-0.7-12,13.1-23.3,5.2-34.7"/>
<path class="st1" d="M658.4,234.5c3.3,7.1,8.5,12,15.7,9.9"/>
<path class="st1" d="M710.8,276.9c3.9-9.2,13.8-4.2,17.7-14.1c-3.3-0.7-11.8-4.3-12.5-8.5c-0.7-6.4,7.9-7.1,11.8-9.9
	c11.1-9.2,0.7-15.6,3.9-29"/>
<path class="st1" d="M731.8,240.1c5.9,0.7,9.8,5.7,15.1,7.8c4.6,1.4,13.1-0.7,13.8,7.1c0.6,14.1-24.3,9.2-32.1,9.2"/>
<path class="st1" d="M726.5,284.7c14.4-2.1,21.6,0,23.6-18.4"/>
<path class="st1" d="M732.4,300.3c3.9-7.1,17.1-9.9,13.1-19.8"/>
<path class="st1" d="M746.2,285.4c3.9,5.7,25.5,5.7,21,14.1c-5.2,10.6-18.3-7.8-18.3,13.5"/>
<path class="st1" d="M766.5,302.4c10.5,7.1-0.7,13.4-2.6,21.2"/>
<path class="st1" d="M793.3,325.7c3.3-15.6-13.8-44.6-28.2-31.1"/>
<path class="st1" d="M750.7,271.3c5.9,6.4,7.9,0.7,13.8-0.7c5.9-2.1,9.8-2.8,16.4-2.1c7.9,0,6.5,1.4,10.5-4.2c0.7-0.7,0-5.7,0.7-7.1
	c1.3-2.8,5.3-3.5,6.6-6.4c2.6-7.8-3.3-17.7-3.9-25.5c-1.3-12.7-3.9-19.1-16.4-24.1"/>
<path d="M134.6,735c-0.2-10,8.1-17.8,18.2-17.9c9.9-0.3,18.1,7.5,18.4,17.4c0.3,9.9-7.5,18.1-17.4,18.4c-0.4,0-0.8,0-1.2,0
	C142.5,752.8,134.3,745,134.6,735z M145.3,735c0,3.8,0,7.7,0,11.5c0,1.3,0.5,1.8,1.8,1.8c2.1-0.1,4.1-0.1,6.2,0c1.5,0.1,2-0.5,2-2
	c0-1.9-1.2-1.7-2.4-1.7c-5.1,0-4.4,0.5-4.4-4.5c0-3.7,0-3.7,3.8-4.1c1.1-0.1,1.3-0.6,1.3-1.6s-0.3-1.5-1.4-1.5
	c-3.8-0.3-3.8-0.4-3.8-4.1c0-0.5,0-0.9,0-1.4c-0.1-1.5,0.4-2.2,2-2.1c1.1,0.1,2.3,0,3.4,0c1.4,0.1,1.4-0.8,1.4-1.8s-0.1-1.8-1.4-1.8
	c-2.2,0.1-4.5,0.1-6.7,0c-1.4,0-1.8,0.5-1.8,1.8C145.4,727.4,145.3,731.2,145.3,735L145.3,735z M157,734.8c0,3.9,0,7.9,0,11.8
	c0,1.1,0.3,1.6,1.6,1.6s1.7-0.4,1.7-1.7c0-7.7,0-15.4,0-23.1c0-1.2-0.4-1.7-1.7-1.7s-1.6,0.6-1.6,1.8
	C157.1,727.3,157,731.1,157,734.8L157,734.8z"/>
<path d="M685.6,234.5c-0.2-10,8.1-17.8,18.2-17.9c9.9-0.2,18.1,7.6,18.3,17.5c0.2,9.9-7.6,18.1-17.5,18.3c-0.3,0-0.6,0-0.8,0
	C693.5,252.3,685.3,244.5,685.6,234.5z M696.4,234.5c0,3.8,0,7.6,0,11.5c0,1.4,0.5,1.8,1.8,1.8c2-0.1,4.1-0.1,6.2,0
	c1.5,0.1,2-0.5,2-2c0-1.9-1.2-1.7-2.4-1.7c-5.1,0-4.4,0.5-4.5-4.5c0-3.7,0-3.8,3.8-4.1c1.1-0.1,1.3-0.6,1.3-1.6s-0.3-1.4-1.3-1.5
	c-3.8-0.3-3.8-0.4-3.8-4.1c0-0.5,0-0.9,0-1.4c-0.1-1.5,0.4-2.3,2-2.1c1.1,0.1,2.3,0,3.4,0c1.4,0.1,1.4-0.8,1.4-1.8s-0.1-1.8-1.4-1.8
	c-2.2,0.1-4.5,0.1-6.7,0c-1.3,0-1.8,0.4-1.8,1.8C696.4,226.9,696.4,230.7,696.4,234.5L696.4,234.5z M708.1,234.3c0,3.9,0,7.9,0,11.8
	c0,1.1,0.3,1.6,1.6,1.6s1.7-0.4,1.7-1.7c0-7.7,0-15.4,0-23.1c0-1.2-0.4-1.7-1.7-1.7s-1.6,0.6-1.6,1.8
	C708.1,226.8,708,230.6,708.1,234.3L708.1,234.3z"/>
<path class="st3" d="M178.5,746.5c89,0,205-84,255-134.2c26.4-26.5,53.9-50.8,64.9-83.7c5.4-16.2,7.6-33.8,2-50.6
	c-6.5-18.5-21.3-32.7-40-38.5c-19.9-5.9-43-0.2-54.5,13.5c-4.7,5.6-7.6,12.5-7,19.6c0.9,10.8,10,20.7,21,27s23.9,9.4,36.6,12.1
	c20.7,4.3,44.3,7.2,60.7-2.8c7.3-4.5,12.2-11,16.3-17.9c26.3-44.5,16.4-100.1,35.9-147.2c19.1-46,67.6-81.2,125.1-90.6"/>
<path class="st4" d="M178.9,692.3C178.9,692.3,178.9,692.3,178.9,692.3c0,0-0.1,0-0.1,0C178.8,692.3,178.8,692.3,178.9,692.3z"/>
<path class="st4" d="M158.6,722c-1.3,0-1.6,0.6-1.6,1.8c0,3.8,0,7.5,0,11.3l0,0c0,3.9,0,7.9,0,11.8c0,1.1,0.3,1.6,1.6,1.6
	c1.2,0,1.7-0.4,1.7-1.7c0-7.7,0-15.4,0-23.1C160.3,722.5,159.9,722,158.6,722z"/>
<path class="st4" d="M178.7,692.3c-0.5,0-1.1,0-1.6-0.1C177.6,692.2,178.2,692.3,178.7,692.3z"/>
<path class="st4" d="M179.1,692.3c0.1,0,0.1,0,0.2,0c-0.1,0-0.3,0-0.4,0C178.9,692.3,179,692.3,179.1,692.3z"/>
<path class="st4" d="M152.9,744.8c-5.1,0-4.4,0.5-4.4-4.5c0-3.7,0-3.7,3.8-4.1c1.1-0.1,1.3-0.6,1.3-1.6s-0.3-1.5-1.4-1.5
	c-3.8-0.3-3.8-0.4-3.8-4.1c0-0.5,0-0.9,0-1.4c-0.1-1.5,0.4-2.2,2-2.1c1.1,0.1,2.3,0,3.4,0c1.4,0.1,1.4-0.8,1.4-1.8
	c0-1-0.1-1.8-1.4-1.8c-2.2,0.1-4.5,0.1-6.7,0c-1.3,0-1.8,0.5-1.8,1.8c0,3.9,0,7.7,0,11.5c0,3.8,0,7.7,0,11.5c0,1.3,0.5,1.8,1.8,1.8
	c2.1-0.1,4.1-0.1,6.2,0c1.5,0.1,2-0.5,2-2C155.3,744.6,154.1,744.8,152.9,744.8z"/>
<path class="st4" d="M709.6,221.3c-1.3,0-1.6,0.6-1.6,1.8c0,3.8,0,7.5,0,11.3l0,0c0,3.9,0,7.9,0,11.8c0,1.1,0.3,1.6,1.6,1.6
	c1.2,0,1.7-0.4,1.7-1.7c0-7.7,0-15.4,0-23.1C711.3,221.8,710.9,221.3,709.6,221.3z"/>
<path class="st4" d="M703.9,244.1c-5.1,0-4.4,0.5-4.4-4.5c0-3.7,0-3.7,3.8-4.1c1.1-0.1,1.3-0.6,1.3-1.6s-0.3-1.5-1.4-1.5
	c-3.8-0.3-3.8-0.4-3.8-4.1c0-0.5,0-0.9,0-1.4c-0.1-1.5,0.4-2.2,2-2.1c1.1,0.1,2.3,0,3.4,0c1.4,0.1,1.4-0.8,1.4-1.8
	c0-1-0.1-1.8-1.4-1.8c-2.2,0.1-4.5,0.1-6.7,0c-1.3,0-1.8,0.5-1.8,1.8c0,3.9,0,7.7,0,11.5c0,3.8,0,7.7,0,11.5c0,1.3,0.5,1.8,1.8,1.8
	c2.1-0.1,4.1-0.1,6.2,0c1.5,0.1,2-0.5,2-2C706.3,243.9,705.1,244.1,703.9,244.1z"/>
</svg>
