<svg id="Capa_1" data-name="Capa 1" xmlns="http://www.w3.org/2000/svg" width="768" height="1024" viewBox="0 0 768 1024"><defs><style>.cls-1,.cls-2,.cls-3,.cls-4{fill:none;stroke:#00b4aa;stroke-miterlimit:10;}.cls-1{stroke-width:0.64px;}.cls-2{stroke-width:0.66px;}.cls-3{stroke-width:0.72px;}.cls-4{stroke-width:0.57px;}</style></defs><path class="cls-1" d="M105.81,980c4.14,5.44,12.31,18.29,16.39,23.35,6.54,10.13,13.89,11.82,25.32,11,4.89,0,10.59,2.53,13-2.53,4.08-10.12-6.54-7.6-11.43-10.12-10.63-5.07-19.59-10.13-26.13-21.1-3.27-5.9-4.08-11.82-8.16-16.88-5.7-8.44-9-7.59-9-19.4.81-27,32.63-37.14,2.42-54.86-10.58-6.75-18.74-11.8-9-24.46,3.27-5.06,9.81-5.06,12.24-11,1.65-4.23-1.62-11,0-16,4.07-14.35,14.7-12.65-.81-22.79-11.43-6.75-19.59-16.87,0-15.18,12.24.83,15.51,5.9,16.31-11.83,0-13.49-9-25.31,10.63-26.14,13.08-.86,25.32,6.75,35.93-8.44,6.52-8.45,7.54-29.59,1.41-37.76-2.79-3.72-11.84-12.64-16-13.6"/><path class="cls-1" d="M185.8,566.3c0,6.75,11,20.24,5.6,29.25-10.08,14.29-28.59,23.85-27.22,25.88"/><path class="cls-1" d="M5,528.69c0,10.52-1.07,11.45-5.35,17.22s-10.72,4.58-13.94,11.45c-4.29,8-1.07,17.22,0,25.27,1.06,27.55-11.79,66.57,1.06,91.82,8.61,16.07,23.6,16.07,20.38,39C6,722.65.69,729.54-.37,737.57c-3.22,11.48-1.09,18.38,0,31C1.76,780-1.46,798.4,1.76,808.75S15.7,820.21,20,829.4c2.17,5.74-3.21,13.77,0,18.35,3.22,5.75,14,3.46,17.18,9.2,7.49,11.48-3.23,25.25-2.17,36.73,1.06,10.33,7.5,23,9.66,33.28,3.21,14.92,7.5,18.36,15,32.14,6.41,10.33,3.19,19.51,17.13,21.81,11.78,2.3,19.4-13.51,29-.87"/><path class="cls-1" d="M164.49,620.39c-7.35,4.87-23.41,5.74-27.81,11.81-5.86,8.55,7.35,19.5,10.25,26.84,5.86,14.63-9.84,40.79,12.12,43.24"/><path class="cls-1" d="M5,528.69c3.43-9,0-27.26,14.74-32.12,7.67-2.53,16,16.87,24.05,18,0-10.15,10.3-16.87,20.63-12.39,9.15,4.48,6.84,16.87,13.72,23.63,14.9,13.5,49.24,3.39,59.57,23.63,6.87,14.63-14.91,31.5,5.71,41.63,29,13.6,30.35-31.12,42.4-24.76"/><path class="cls-2" d="M830.49,74.9c-3.16-1-6.18-2-9-3.1-6.55-2.12-10.46-7.08-19-5.67v-.7c-19-.71-32.75,4.95-51.09,8.49-16.38,3.53-26.23,29-38.67,41.74a72.09,72.09,0,0,1-22.28,15.56c-11.14,4.95-19,2.83-21.61,17-1.33,7.08.64,19.81,5.88,24.77,7.88,7.78,14.43-.71,21.64-4.25,10.47-5.65,13.76-2.12,17.67,9.19,1.32,3.55,5.26,24.06,6.56,24.77,5.26,4.23,21.63-7.78,22.93-12.74,2-3.54-.65-9.19,1.32-12.74,2-4.94,7.2-5.65,9.17-9.9,5.88-12-8.52-15.56-5.23-27.58,3.26-11.33,15.05-9.9,21-17,5.88-6.38,6.54-18.4,17-14.87,13.76,4.25-1.33,14.15-6.56,20.51-11.79,14.16-2,35.38,15.08,30.42,5.88-2.12,15.06-7.78,21.61-5.64,11.15,3.52,5.91,12-3.26,13.43-5.26.7-15.08-5-19,.7-4.58,7.79,5.26,5.67,4.58,9.9-1.94,7.09-5.88,5-10.47,6.38-5.23,1.41-6.55-2.83-10.49,4.94-1.29,2.84.67,8.49,0,11.32,0-.7-9.18,9.91-7.85,9.19-8.53,5-3.28-2.12-10.5-2.82-9.17-.7-15,10.61-24.22,10.61-6.56,0-5.91-5.66-10.5-7.07-5.88-1.42-9.17,3.55-14.41,2.84-16.37-.71-7.85-9.91-7.2-19.1,1.3-14.16-12.44-9.91-14.41.7-1.32,7.07,8.5,16.27,2,22.63-3.94,5-17.7,2.83-24.25,8.5-5.91,4.94-11.15,12.72-17.7,17-3.27,2.82-7.21,4.23-9.82,7.06s-3.94,9.9-7.85,11.32c-4.59.71-18.35-14.85-15.73,2.14-6.56,1.41-17.7-2.14-19.67,6.35-3.27,11.32,7.2,7.07,12.46,9.19,10.48,4.26,21.61,31.12,5.24,36.8-12.44,4.23-32.76-7.09-45.87,0-7.85,4.23-4.59,14.13-5.23,22.62-1.32,9.21-5.24,12-9.18,19.11,12.44,5.67-2.61,17.69,13.11,20.51,9.16,1.41,17-2.82,21,9.2,7.2-8.5,10.47-1.41,19-4.23,6.56-2.14,3.94-4.27,9.18-9.2,3.27-3.56,9.82-5,11.79-8.49,1.31-3.55-2-10.61,0-14.87,1.31-4.23,5.23-7.06,8.52-9.19,10.47-6.36,11.12-3.54,16.38-14.85,3.91-8.5,2.62-9.2,13.09-8.5,3.93,0,9.17,2.12,13.11.71,2-.71,1.32-4.94,2.61-4.94,3.3-1.42,5.27.71,7.88,0,8.5-2.13,15.71-5,21,6.35,2,4.26-.67,9.9,2.61,14.17,2,1.4,10.48,3.52,12.44,4.22,3.94,2.12,13.76,4.26,16.38,7.09,3.94,4.94,1.32,10.61,2.64,16.26,5.88,24.77,5.24-15.55,15.7-10.61,5.26-11.32-31.43-27.57-36-36.77-4.59-8.49-3.29-22.64,7.85-16.29,3.94,2.12,5.91,10.61,9.17,13.45,3.94,3.54,7.88,2.84,11.79,5.66,6.55,3.53,15.08,10.61,18.35,17.69,1.32,3.52,1.32,5.64,2,9.2,1.31,5.64.64,7.06,3.27,11.32,2,4.22,6.55,7.78,7.87,11.31,1.29,2.82,3.26,12.72,5.23,14.14,7.88,7.08,15.09-6.35,15.09-12.73,0-5.66-5.27-13.43-3.3-19.11,2.62-7.06,13.76-4.93,20.32-5.64,3.29,4.94,0,8.48.65,14.14.67,6.38,4.58,9.2,7.22,14.86,1.95,3.54,3.27,7.77,7.21,9.91,1.95,1.42,4.59,0,7.2.71,0,0,6.56,4.23,5.89,4.23,5.26.71,5.91-2.11,11.79-2.82,5.25-.7,8.52,3.53,13.76,3.53,7.22-.71,17.7-12.73,23.61-1.41"/><path class="cls-2" d="M612.57,181.43c-1.22,0-3.67-.53-3.92-1.85-.75-2.94,3-2.4,3.67-4C615,170,603.74,170,601,171.87c-6.61,3.72-7.85,18.57-5.16,25.2,2.22,5.58,9.59,8.49,13.76,11.41,2.22,1.85,6.88,8.76,4.67,11.94s-7.12-.52-9.57,2.92c-2.7,3.19-3.94,9.82-.74,12.47,1.47,1.33,4.19,0,3.68,3.19-.25,2.37-3.68,2.12-5.16,2.91-3.18,1.07-6.15,3.72-4.91,8.22,2,6.9,7.86-1.59,11.31-2.92,5.64-2.38,10.06,1.87,15.22,1.07,3-.28,3.45-2.65,5.41-3.72,2-1.33,3.93-.26,5.89-.79,4.92-1.32,2.21-5.58,4.92-9.55,1.23-1.86,3.69-1.86,3.93-4.51s-2.21-5-3.93-6.37c-2-1.59-4.41-2.12-6.14-4-2.21-2.12-3.21-5.3-4.91-8-2.7-4.24-10.33-8.22-11.06-13.8-1-6.63,5.4-4.23,7.37-8.49,4.18-8.74-8.85-7.42-12.28-7.42"/><path class="cls-2" d="M580.38,203.18c-4.67,2.13-4.16,6.9-9.07,7.69-4.67.79-8.36.27-8.36,6.9,0,4,5.15,5.83,3.94,9.55-1.24,4-6.88,2.39-5.91,8.22,1.73,10.88,14.73-.53,19.16-1.59,3.94-.79,7.63.27,10.09-4.52,2-3.7-.76-7.42.48-11.4,2-5.84,6.15-6.09,1.48-12.2-4.17-5.31-6.39-5-11.81-2.65"/><path class="cls-2" d="M694.64,338.46c-6.88,0-6.15,5.59-6.64,11.15-.48,6.09-.73,10.61,6.64,10.36,7.12-.54,7.85-5.06,7.85-11.69,0-5.3-.24-10.35-6.87-9.82"/><path class="cls-2" d="M693.16,323.34c-7.61,1.08-1.22,11.94,4.93,8.24,4.4-2.94.24-9.82-4.42-8.49"/><path class="cls-2" d="M735.19,366.85c-4.18,0-15.24-2.9-14.76,4.25.25,3.46,2,3.7,4.67,4.78,3.69,1.33,3,1.86,5.42,4.52,9.82,11.65,14-15.13,4.42-13.8"/><path class="cls-2" d="M617.08,313.72c-.64,14.13,9.18,4.23,14.44,4.93,7.85.71,11.32,11.32,19.84,9.9"/><path class="cls-2" d="M564.69,328.55c5.23,3.55,11.13-1.41,14.41,1.42,9.17,5.67-2,8.49-3.94,14.16-3.27,9.91,1.32,21.93-7.21,31.12"/><path class="cls-2" d="M815,80.27c-2-4.25-8.51-9.91-13.09-9.91-5.9.71-4.58,3.54-8.52,7.07-11.14,10.61-9.17.71-21.63,2.12-14.42,1.42,1.31,7.78,5.9,12.74,7.85,7.07,7.2,10.62,4.59,21.23"/><path class="cls-3" d="M772,80c-5.22,3-10.44,0-14.9,2.21s-6.72,8.14-10.44,11.09c-3.74,4.44-8.95,5.17-12.67,10.35-2.24,3.69-2.24,10.35-5.22,14.79-6.72,10.34-17.9,9.6-15.66,22.9,2.24,8.87,12.68,20.7-3,27.35"/><path class="cls-2" d="M647.22,243.68c8.52,1.41,7.22,11.32,16.4,13.43,6.53,1.41,22.26-4.23,22.93,9.2.65,6.37-5.26,8.5-8.53,12.72-.64,1.42.66,5.68,0,7.8-.64,1.4-5.9,0-5.9,2.11,0,5.67,4.59,7.08,6.56,12.74.64,2.84,0,7.77,0,11.33"/><path class="cls-2" d="M677.38,296c6.53,0,6.53-7.08,12.44-9.19,2.62-.71,5.9,2.81,8.52,2.11,3.92-.71,4.59-2.11,7.21-3.53,7.85-3.53,24.9-8.49,22.26,9.2"/><path class="cls-2" d="M683.26,272c7.2,4.24,30.79-2.13,29.49,9.2"/><path class="cls-2" d="M673.44,255.7c-.65-12,13.11-23.34,5.24-34.66"/><path class="cls-2" d="M658.36,234.49c3.29,7.06,8.52,12,15.73,9.9"/><path class="cls-2" d="M710.78,276.92c3.94-9.2,13.76-4.24,17.69-14.14-3.28-.71-11.79-4.26-12.45-8.49-.65-6.38,7.87-7.08,11.79-9.9,11.14-9.2.66-15.58,3.94-29"/><path class="cls-2" d="M731.75,240.13c5.9.72,9.82,5.67,15.08,7.78,4.58,1.42,13.08-.7,13.76,7.09.64,14.13-24.26,9.2-32.12,9.2"/><path class="cls-2" d="M726.51,284.71c14.41-2.12,21.61,0,23.58-18.4"/><path class="cls-2" d="M732.39,300.26c3.94-7.06,17.06-9.91,13.11-19.81"/><path class="cls-2" d="M746.15,285.41c3.94,5.66,25.55,5.66,21,14.14-5.25,10.61-18.34-7.77-18.34,13.46"/><path class="cls-2" d="M766.47,302.39c10.49,7.06-.66,13.44-2.62,21.24"/><path class="cls-2" d="M793.34,325.74c3.26-15.58-13.76-44.57-28.17-31.13"/><path class="cls-2" d="M750.74,271.27c5.91,6.35,7.87.7,13.76-.72,5.91-2.13,9.84-2.83,16.38-2.13,7.87,0,6.55,1.42,10.48-4.22.65-.71,0-5.68.65-7.09,1.33-2.82,5.26-3.52,6.57-6.37,2.61-7.76-3.28-17.67-3.94-25.46-1.3-12.73-3.92-19.1-16.38-24.05"/><path d="M134.57,735c-.24-10,8.08-17.78,18.18-17.87a17.91,17.91,0,1,1-.1,35.8C142.47,752.82,134.3,745,134.57,735Zm10.77,0c0,3.82,0,7.65,0,11.47,0,1.35.47,1.82,1.8,1.76,2.06-.08,4.12-.1,6.17,0,1.51.08,2-.47,2-2,0-1.93-1.21-1.7-2.41-1.71-5.11-.05-4.41.53-4.45-4.49,0-3.71,0-3.74,3.79-4.07,1.08-.09,1.32-.62,1.32-1.56s-.3-1.45-1.35-1.54c-3.77-.34-3.77-.37-3.77-4.14a12.5,12.5,0,0,0,0-1.37c-.13-1.5.4-2.25,2-2.1,1.13.1,2.29,0,3.42,0,1.38.06,1.39-.82,1.4-1.8s-.09-1.8-1.43-1.76c-2.23.06-4.46.07-6.68,0-1.35,0-1.81.45-1.79,1.78C145.38,727.38,145.34,731.2,145.34,735Zm11.68-.2c0,3.94,0,7.87,0,11.8,0,1.13.33,1.64,1.56,1.64s1.71-.43,1.71-1.69q-.06-11.54,0-23.08c0-1.23-.39-1.72-1.67-1.73s-1.62.63-1.6,1.78C157.05,727.3,157,731.06,157,734.82Z"/><path d="M685.59,234.5c-.23-10,8.08-17.77,18.19-17.87a17.91,17.91,0,1,1-.1,35.81C693.5,252.34,685.33,244.53,685.59,234.5Zm10.78,0c0,3.82,0,7.64,0,11.47,0,1.35.47,1.81,1.8,1.76,2.05-.08,4.11-.1,6.16,0,1.52.08,2-.47,2-2,0-1.93-1.21-1.71-2.42-1.72-5.1,0-4.41.54-4.45-4.48,0-3.71,0-3.75,3.8-4.07,1.08-.1,1.32-.62,1.32-1.56s-.3-1.45-1.35-1.54c-3.78-.34-3.77-.37-3.77-4.14,0-.46,0-.92,0-1.37-.14-1.5.4-2.26,2-2.11,1.13.11,2.28,0,3.42,0,1.37.06,1.39-.82,1.4-1.8s-.09-1.8-1.44-1.76c-2.22.06-4.45.07-6.67,0-1.35,0-1.81.45-1.79,1.78C696.41,226.89,696.37,230.72,696.37,234.54Zm11.68-.2c0,3.93,0,7.87,0,11.8,0,1.13.34,1.64,1.57,1.64s1.71-.43,1.7-1.7q0-11.54,0-23.07c0-1.23-.38-1.72-1.67-1.73s-1.61.62-1.6,1.78C708.07,226.82,708.05,230.58,708.05,234.34Z"/><path class="cls-4" d="M178.5,746.5c89,0,205-84,255-134.23,26.35-26.48,53.86-50.85,64.86-83.72,5.43-16.21,7.65-33.83,2-50.63a61.57,61.57,0,0,0-40-38.49c-19.89-5.92-43-.22-54.51,13.47-4.7,5.59-7.59,12.48-7,19.57.94,10.82,10,20.72,21,27s23.9,9.39,36.58,12.06c20.72,4.34,44.27,7.25,60.67-2.82,7.26-4.47,12.24-11,16.26-17.85,26.26-44.45,16.36-100.09,35.92-147.21,19.11-46,67.62-81.16,125.07-90.6"/></svg>