<?xml version="1.0" encoding="utf-8"?>
<!-- Generator: Adobe Illustrator 24.3.0, SVG Export Plug-In . SVG Version: 6.00 Build 0)  -->
<svg version="1.1" id="Capa_1" xmlns="http://www.w3.org/2000/svg" xmlns:xlink="http://www.w3.org/1999/xlink" x="0px" y="0px"
	 viewBox="0 0 1920 1080" style="enable-background:new 0 0 1920 1080;" xml:space="preserve">
<style type="text/css">
	.st0{fill:none;stroke:#00B4AA;stroke-width:0.75;stroke-miterlimit:10;}
	.st1{fill:#FFFFFF;}
</style>
<path class="st0" d="M-29.3,303.3c1.9,4.7,3.2,9.6,4.5,13.2c3.1,7.8,3.1,14.4,2.5,22.9c-0.6,13.1-1.9,21.6-11.1,30.1
	c-4.3,3.3-6.8,5.2-9.3,9.1c-0.6,1.3,1.2,4.5,0,5.9c-1.9,2.6-5,2-6.2,3.9c-9.9,10.5-17.3,26.8-9.3,41.9c0.6,2,6.2,7.2,6.2,7.2
	c1.2,7.9-1.2,4.6-5.6,8.5c-6.2,5.9-6.2,0.6-6.8,10.4c-0.6,3.3,0.6,10.5,1.2,13.7c1.8,13.1,9.9,9.2,16.1,19.6
	c8,12.5,8.7,24.9,19.2,36c17.3,18.3,18.5,52.3,40.8,67.4c11.1,7.2,21.6,5.2,31.5,16.3c5.6,5.9,16.7,12.4,19.2,19.6
	c1.9,6.5,0.6,17.7,1.2,24.2c0,8.5,0.6,17,0.6,25.5v8.5l-1.2,0.7c-0.6,17,5.6,32.1,7.4,48.4c1.9,17.7-1.8,36.6,0.6,55
	c1.8,11.9,2.6,24,2.5,36c0,11.1-5.6,20.3-4.3,30.1c0.6,9.8,7.4,18.3,8.7,28.1c0.6,5.9,0.6,14.4,3.7,19.6c3.1,5.9,3.7,3.3,8.1,6.5
	c17.3,13.7,14.8,47.8,24.1,67.4c3.7,9.2,4.3,16.3,6.8,24.8c3.1,10.5,13.6,20.9,19.8,30.8s11.8,15,22.9,10.5
	c4.3-1.3,4.9-7.8,11.8-3.9c4.4,2.6,5,9.8,8.1,13.7c5,7.8,10.5,9.2,19.2,8.5c3.7,0,8,2,9.9-2c3.1-7.8-5-5.9-8.7-7.8
	c-8.1-3.9-14.8-7.8-19.8-16.3c-2.5-4.6-3.1-9.2-6.2-13.1c-4.3-6.5-6.8-5.9-6.8-15c0.6-20.9,24.7-28.8,1.8-42.5
	c-8-5.2-14.2-9.2-6.8-19c2.5-3.9,7.4-3.9,9.3-8.5c1.2-3.3-1.2-8.5,0-12.4c3.1-11.1,11.1-9.8-0.6-17.7c-8.7-5.2-14.9-13.1,0-11.8
	c9.3,0.7,11.8,4.6,12.4-9.2c0-10.5-6.8-19.6,8.1-20.3c9.9-0.7,19.2,5.2,27.2-6.5c4.9-6.5,3.1-18.3,0-25.5
	c-4.3-9.8-16.7-18.3,0.6-16.3c7.4,0.7,11.8,3.9,20.4,0c9.9-3.3,6.2-3.3,8.7-11.1c1.2-3.3,1.8-5.9,3.1-9.2c1.2-2.6,4.3-5.2,5.6-10.5
	c2.5-11.8,4.3-19,12.4-28.1c12.4-12.4,17.9-19.7,15.4-38.7c-1.8-17-1.8-17.7,9.9-28.8"/>
<path class="st0" d="M296.2,695.2c14.2-19,43.3-4.6,56.3-23.5c5.6-8.5,8-20.3,11.8-29.5c4.3-9.8,11.1-20.9,11.8-32
	c0-15.7-11.8-39.2-3.7-53.6c2.5-4.6,6.8-6.5,10.5-9.8c6.2-6.5,5-10.5,8-18.3c4.4-11.8,16.7-15.1,18.6-28.1c1.2-7.8,0.6-19-0.6-26.8
	c-0.6-3.9-1.8-9.8-4.3-13.1c-5-6.5-5-3.3-11.8-3.9c-10.5-1.3-13.6-7.2-22.3-13.7c-10.5-7.2-17.9-9.8-30.3-11.1l-11.1-2
	c-4.3-0.6-7.4,0-11.1,0c-9.9-1.3-6.8-3.9-12.4-9.8c-4.3-4.5-13-9.1-18.6-10.4c-8.7-1.3-9.3,3.3-16.1,3.9c-0.6-3.9-0.6-8.5-3.1-11.8
	l-0.6-2c-6.2-7.2-10.5-3.3-13-14.4c-0.6-3.3,0.6-7.2,0-9.8c-1.9-3.9-6.2-3.9-7.4-7.9c-2.5-6.5,1.2-13.8-2.5-20.9
	c-3.1-5.9-11.8-12.5-17.3-15.7c-19.8-12.4-42.1,2.6-55.7-18.3c-6.2-9.1-8.7-12.4-17.3-17.7c-6.2-3.9-11.8-11.1-17.3-16.4
	c-8.7-8.5-8.7-11.8-20.4-8.5c-9.9,3.3-17.3,3.3-28.5,0c-5-1.3-9.9-2-14.2-3.9s-9.3-7.2-14.2-8.5c-8.7-1.3-13,9.8-21.6,6.5
	c0.6-2.6,7.4-9.1,4.3-12.4c-1.9-2.6-9.9,2.6-11.8,3.3c-8.7,4.6-21.6,5.9-28.5,11.1c-8.6,6.6-5.5,24.9-14.8,27.5
	c-8.7,2.6-6.8-5.2-10.5-8.5"/>
<path class="st0" d="M41.8,264.4c-2.5,2.6,9.1,32.2-6.6,21.8c-5-2.6-3.3-34.8-13.2-11.3c-9.1,23.5,16.5,43.6,34.6,46.2
	c13.2,1.7,18.1-0.9,18.1,14c0,5.3-4.1,10.5-3.3,15.7c0.8,7,8.2,10.4,9.1,15.7c3.3,16.5-10.7,9.6-19.8,14c-15.7,7-7.4,15.7-4.1,27
	c3.3,13.1-4.1,20.9-5.8,32.3c-0.8,7,5,7.8-1.6,14c-3.3,3.5-11.5,0-16.5,2.6c-18.1,8.7-19.8,55,1.6,63.7c6.6,2.6,9.1-6.1,15.7-1.7
	c4.9,2.6,1.6,9.6,5.8,13.9c14,13.1,23.1-7.8,34.6-10.5c16.5-3.5,13.2,19.2,20.6,26.2c7.4,7.8,21.4,0.9,29.7,7.8
	c5,5.2,3.3,10.5,7.4,14.8c4.9,6.1,9.1,7,12.4,13.1c0.8,1.8-1.7,7-0.8,8.7c2.4,4.4,5.8,3.5,9.9,7c8.2,7,19.8,12.2,19,26.2
	c-0.8,13.1-10.7,13.1-2.5,27c4.1,7,10.7,10.5,14.8,16.6c5,6.1,5.8,13.1,12.4,17.5c10.7,6.1,28-1.8,23.1,18.3c0,3.5-6.6,4.4-7.4,7.9
	s3.3,5.2,3.3,7.8c0,7,4.1,11.3,0,18.3c-6.6,9.6-22.3,7.8-20.6,24.4c1.6,14.8,18.1,10.5,28,19.2c2.5,2.6,0.8,6.1,5,9.6
	c3.3,2.6,7.4,2.6,11.5,2.6"/>
<path class="st0" d="M-43.1,380.4c11.5,1.7,13.1,14.8,24.7,16.6c5,0.9,9.1-5.2,15.7-1.7s4.9,7,8.2,12.2c8.3,10.5,14,12.2,25.6,16.6
	c5.8,2.6,11.5,4.4,14.8,9.6c3.3,4.4,0.8,9.6,5.8,14"/>
<path class="st0" d="M77.2,373.4c8.3,3.5,5.8,12.2,11.6,15.7c9.1,6.1,18.1,0,23.1-7.9c7.4-13.9-12.4-27.9,2.5-33.1
	c10.7-3.5,26.4,8.7,31.3-11.3c1.6-7.8-3.3-10.4,0-19.2s10.7-10.5,10.7-21"/>
<path class="st0" d="M146.5,335.9c28.1,2.7-9.9,71.5,36.3,41.9c1.6-0.9,4.9,0,7.4-0.9c3.3-1.7,1.7-7,6.6-8.7
	c10.7-2.6,9.1,7,14.9,9.6c19.8,8.7,20.6-15.7,34.6-23.5"/>
<path class="st0" d="M217.5,328c-14.9,11.3-0.8,29.6-10.7,43.6"/>
<path class="st0" d="M182,323.7c0,9.6-11.6,18.3-9.1,27.9c2.5,6.1,9.1,5.2,11.5,12.2c0.8,2.6,0,8.7,0,11.3"/>
<path class="st0" d="M60.5,535.6c1.7,7.8,6.6,14,6.6,22.7c0,9.6-4.9,16.6-6.6,26.2C58,601,77,615.9,56.4,621.1"/>
<path class="st0" d="M62.2,618.5c19.8,0,15.7,45.4,23.9,57.6c2.5,3.5,8.2,2.6,9.9,9.6c1.7,7.8-0.8,8.7-4.1,13.1s-8.2,3.5-10.7,8.7
	c-3.3,6.1-0.8,13.1,0,19.2c0.8,20.9-9.1,50.6,0.8,69.8c6.6,12.2,18.2,12.2,15.7,29.7c-0.8,7-5,12.2-5.8,18.3c-2.5,8.7-0.8,14,0,23.5
	c1.6,8.7-0.8,22.7,1.6,30.5s10.7,8.7,14,15.7c1.7,4.4-2.5,10.5,0,14c2.5,4.4,10.7,2.6,13.2,7c5.8,8.7-2.5,19.2-1.7,27.9
	c0.8,7.8,5.8,17.4,7.4,25.3c2.5,11.3,5.8,14,11.6,24.4c4.9,7.8,2.4,14.8,13.2,16.6c9.1,1.8,15.7-10.5,23.1-0.9"/>
<path class="st0" d="M210.6,760.7c-4.1,3.5-13.2,1.7-15.7,6.1c-3.3,6.1,4.1,14,5.8,19.2c3.3,10.5-4.1,31.4,8.2,33.1"/>
<path class="st0" d="M91.9,680.4c2.5-7,4.9-18.3,14-18.3c5.8,0.9,11.6,13.1,17.3,13.9c0-7.9,7.4-13.1,14.9-9.6
	c6.6,3.5,4.9,13.1,9.9,18.3c10.7,10.5,35.4,2.6,42.9,18.3c4.9,11.3-10.7,24.4,4.1,32.3c19,9.6,19.8-19.2,30.5-19.2"/>
<path class="st0" d="M178.5,639.4c-12.4-16.6-19-8.7-30.5,0.9c-14.9,12.2-9.1,10.5-8.3,28.8"/>
<path class="st0" d="M1951.9,352.4c-1.9,11.5,1.8,18.7-1.9,30.1c-2.5,9.3-1.2,17.2-8.7,20.1c-9.3,3.6-14.2-5-21.6-6.5
	c-9.3-1.5-12.4,9.3-22.3,6.5c-7.4-1.4-17.3-5.7-24.1-8.6c-8.7-3.6-14.2-12.9-23.5-12.2c-13.6,1.4-8,10.8-11.8,20.1
	c-5.6,16.5-13,0-21-3.6c-3.1-1.4-6.8,0.7-9.3-0.7c-4.3-2.2-3.7-5.8-6.8-8.6c-7.4-5.8-16.1-2.9-23.5-7.9l0,0
	c-3.1-2.9-9.9-5.7-10.5-10.8c-1.2-5.8,3.1-6.5,4.9-11.5c3.7-12.9-0.6-20.1-11.1-20.1c-16.7,0-33.4,5.7-50.1,7.2
	c-9.9,0.7-17.9,1.4-27.2,7.2c-7.4,4.3-13,10-22.2,7.9c-13-2.9-10.5-5-19.2,7.2c-7.4,10.8-19.2,15.1-22.9,28.7
	c-2.5,8.6-1.2,18.6-7.4,25.8c-5.6,6.5-13,12.9-18.5,19.4c-3.1,2.9-8,5.8-9.9,10c-2.5,4.3-0.6,8.6-1.9,12.2
	c-3.7,10-13.6,12.2-16.1,23c-1.8,10,2.5,21.6,3.7,30.9c1.2,12.2-1.9,18.7-4.3,30.2c-4.3,19.4-0.6,40.9,9.9,56
	c6.8,10,16.1,17.2,21.7,27.3c5,10,9.9,17.9,17.3,25.8c11.1,12.2,19.8,10.8,31.5,6.5c9.9-4.3,19.8,1.4,31.5-0.7
	c18.6-3.6,36.5-26.6,52.6-3.6c2.5,2.9,4.3,8.6,7.4,10c4.9,1.4,6.8-3.6,10.5-4.3c10.5,0,16.7,8.6,16.7,20.1v1.4l-0.6-2.1
	c1.2,21.5-14.2,35.2-1.2,53.8c5.6,8.6,14.2,13.6,18.6,23c4.3,8.6,3.1,18.7,6.2,28c3.1,10,2.5,18.7,4.3,29.4
	c2.5,14.3,3.1,13.6-3.7,25.8c-12.8,21-12.5,47.4,0.6,68.2c5.6,8.6,12.4,20.8,11.8,32.3c0,13.6-3.7,15.1,3.7,29.4
	c5,9.3,6.8,19.4,10.5,29.4c3.7,9.3,9.9,16.5,11.1,27.3c1.2,10.1-3.1,20.8,5,28.7c7.4,6.4,16.1,0,24.7-1.4c12.4-2.2,28.4-3.6,39-12.2
	c6.8-6.4,10.5-16.5,16.7-24.4c6.8-7.9,14.2-13.6,17.9-24.4c2.5-7.2,1.9-16.5,4.3-23.7c3.7-10,12.4-10,19.2-17.2
	c4.9-6.5,5.6-13.7,4.3-23s-5.6-17.2-1.8-26.5c3.1-8.6,13-15.8,19.8-20.8c9.3-7.2,21-13.7,25.4-25.8c3.7-9.3-0.6-18.7-1.9-28.7
	c-0.6-10,0.6-18.7-1.8-28c-3.7-10.8-3.7-12.9-3.1-23.7c0.6-20.1-6.2-40.9,13.6-52.4l-0.6-0.7c8.7-7.2,13.6-16.5,21-23.7
	s16.7-13,22.9-21.5c12.4-16.5,19.8-41.6,26.6-62.5c1.9-7.2,8-25.1-3.7-27.2c-5.6-0.7-15.5,11.5-22.2,12.2c-6.2,0.7-16.7,1.4-22.9,0
	c-13.6-2.9-9.3-10-12.3-21.5c-3.7-15.1-21.6-16.5-28.4-28.7c-3.7-5.8-0.6-15.1-4.3-22.2c-5-7.9-9.9-7.9-12.4-18
	c-1.2-7.2,0-15-1.9-22.2c-1.8-10-8-12.9-13.6-20.1c-5-7.9-6.8-15.8-9.9-25.1c-2.5-7.9-8.7-15-9.9-23.7c4.3-1.4,17.9,7.9,21.7,11.5
	c6.2,7.2,11.1,22.2,15.5,31.6c3.7,7.9,9.9,18,11.7,26.6c1.9,10.8-2.5,15,6.8,22.2c3.7,2.9,7.4,2.9,11.1,7.2
	c2.5,2.9,4.3,7.9,6.2,11.5c5,8.6,9.9,17.2,11.8,28c0.6,7.9-2.5,17.9,5.6,20.8c6.8,2.2,20.4-7.2,26.6-8.6
	c11.8-2.9,24.1-0.7,31.5-12.2c6.2-8.6,8.7-14.4,16.7-21.5c7.7-5.9,14.9-12.4,21.6-19.4c4.9-5,16.7-20.1,16.7-28.7
	c0-12.9-17.9-15.8-24.7-22.2c-6.8-7.2-5.6-19.4-15.5-10c-6.2,6.4-5.6,17.2-16.7,14.3c-2.5-0.7-9.9-7.9-11.1-10.8
	c-3.1-5.7,1.2-8.6-0.6-14.3c-2.5-5-11.8-5.8-15.5-10.1c-4.3-4.3-6.2-12.2-8.1-18l-1.2-2.1c2.5-13.7,12.4-8.6,17.3-2.2
	c7.4,10,7.4,16.5,17.9,21.5c7.4,3.6,16.1,8.6,24.1,7.9c4.3-0.7,6.2-7.9,12.4-3.6c4.3,3.6,1.9,8.6,4.3,12.2
	c5.6,5.8,16.7,2.9,23.5,3.6c6.2,0.7,13,4.3,18.6,4.3c10.5,0,20.4-10,30.9-2.1c5.6,5,6.2,15.1,11.1,22.2c1.9,2.1,3.7,2.1,5.6,4.3
	c0.6,2.2-0.6,5.8,0,7.2c3.1,5.8,4.3,8.6,9.9,9.3c11.1,2.1,3.1-5.8,10.5-9.3c8-4.3,7.4,5.8,7.4,12.2s-3.1,13.7-2.5,20.1
	c0.6,8.6,6.2,11.5,9.3,19.4c3.7,7.2,0.6,15.1,3.7,23c2.5,7.9,8.7,12.2,11.1,20.8c4.3,13.7,9.3,24.4,14.8,37.3l-0.6-2.1
	c5.6,10,12.4-4.3,16.1-9.3c7.4-10,3.7-10,4.3-23.7c0.6-10,2.5-20.8,3.1-30.9c0.6-12.2,7.4-15.1,14.8-23c6.2-7.2,15.4-12.9,20.4-21.5
	c6.2-10,4.9-13.6,14.2-20.8c5.6-4.3,16.1-12.2,23.5-7.9c5.6,2.9,2.5,5,4.9,9.3c2.5,4.3,5.7,8.1,9.3,11.5c7.4,7.9,10.5,15.1,13,26.6
	c1.2,7.2-0.6,20.8,8,20.8c8,0,7.4-17.2,14.2-14.3c3.7,2.2,6.8,21.5,8.6,26.5c6.8,15.3,10,32,9.3,48.8c0,8.6-1.9,15.1,1.2,23
	c3.7,7.9,11.1,15.1,15.5,23.7c3.7,7.9,6.2,18.6,11.7,25.1c6.8,8.6,15.4,13.6,14.8,0.7c-0.6-7.9-2.5-21.5-4.3-28.7
	c-3.1-10-13-12.2-19.2-20.1c-14.9-16.5-16.1-27.2-13.6-49.5c1.9-13.7,4.9-13,14.2-7.2c10.5,6.5,12.4,9.3,17.3,19.4
	c1.2,2.9,5,6.4,6.2,8.6c0.6,2.1,1.9,12.2,3.1,12.9c7.4,6.5,11.7-6.5,15.5-10.8c6.2-8.6,15.4-11.5,17.3-23c1.2-8.6-0.6-25.2-4.3-31.6
	c-8-15.1-37.7-35.2-24.1-56c5.6-8.6,15.4-8.6,22.3-2.9c2.5,1.4,0.6,11.5,8.6,7.9c1.9-0.7,1.9-8.6,4.9-10.8c2.5-2.1,6.8-0.7,9.3-2.1
	c5-2.1,6.8-7.9,12.4-8.6h-1.2c30.3-5.7,36.5-46.6,38.4-75.4c-11.7-0.7-2.5-7.2-3.1-13.6c-0.6-5-11.1-16.5-14.2-20.8
	s-13-13.7-14.2-18.7c-1.2-8.6,9.3-14.4,13.6-19.4c-6.2-7.2-15.5,1.4-22.9-1.4c-3.1-1.5-15.5-12.2-15.5-15.8c0-5,16.1-19.4,20.4-18.7
	c9.9,2.2-1.2,16.5,7.4,20.1c10.5,4.3,12.4-19.4,23.5-2.1c3.1,4.3,0.6,5.8,5.6,10.8c3.7,3.6,6.8,2.9,9.9,8.6
	c4.3,7.9,1.9,15.1,4.3,22.2c1.9,6.5,0.6,6.5,7.4,6.5c1.2,0,9.9-3.6,11.1-4.3c20.4-17.9-19.2-32.3-22.3-46.6
	c-1.2-9.3,6.8-12.2,7.4-21.5c0.6-8.6-5-21.5,9.9-16.5c4.3,1.4,3.1,7.9,9.3,7.2c6.8-0.7,5.6-3.6,5.6-10.1c0.6-4.3-2.5-9.3-1.9-14.4
	c0.6-5.7,3.1-9.3,4.3-14.3c1.9-7.9,2.5-16.5,3.7-25.1c2.5-11.5-0.6-12.2-5.6-22.3c-6.2-10.8-6.2-16.5-17.9-20.8
	c-7.4-2.1-14.2,0-21-2.1c-4.9-1.4-4.9-2.9-8.7-5c-1.8-1.4-7.4-4.3-8.7-5.8c-4.9-3.6-3.7,1.4-4.9-6.5c-0.6-3.6,1.2-10.8,2.5-14.4
	c3.1-7.2,8-20.1,14.9-23c3.1-1.4,9.9-0.7,13.6,0s8.6,5,11.8,5c4.9,0,6.2-4.3,9.9-5.7c6.8-1.4,8.1,3.6,13,5c3.7,1.4,8.7,3.6,13,1.4
	c8-2.9,3.7-2.2,3.7-8.6c0-5-2.5-23,9.3-15.8c5.6,3.6,7.4,20.8,17.3,10c3.7-2.9,0.6-10,5-12.9c5.6-4.3,9.3,0,9.9,5.7
	c1.2,6.5-4.3,8.6-5.6,13.7c-1.2,6.4,1.9,10,0.6,15.8s-7.4,2.1-6.8,10c0,4.3,6.2,9.3,8,12.2c6.2,9.3,12.4,18.7,19.8,26.6
	c3.1,3.6,17.3,20.8,21.6,18.7c6.2-2.9-0.6-7.9-0.6-10.8c0-2.2-0.6-3.6-0.6-5.8c0.6-3.6,4.3-3.6,4.9-5.7c1.2-5-1.2-7.9-1.9-13.6
	c0-1.4,4.3-2.1,4.3-6.5c-0.6-2.9-4.3-5-5-7.2c-1.9-4.3-2.5-11.5-5.6-14.4c-4.3-6.4-9.3-2.9-14.2-6.4c-9.9-7.9-5.6-18.7,4.9-18
	c5.6,0.7,8.7,5,14.2,5c4.3-0.7,9.9-5,13.6-6.5h-0.6c7.4-5,5.6-14.3,15.4-16.5c7.4-1.4,18.5,2.2,8-8.6c-3.1-4.3-24.1-11.5-10.5-19.4
	c7.4-4.3,22.2,10,29.7,10.8c2.5,0.7,8,2.2,9.9,0c4.9-5.7-1.2-6.5-2.5-10.8c-5.6-13.7-8.1-10.8-19.8-13.7c-17.3-5-35.9-5.7-52.6-12.9
	c-19.2-7.2-51.3-20.1-71.7-13.6c1.2,2.9,3.1,7.2,4.3,9.3c-6.8,3.6-14.2-5-21-7.2c-9.3-2.2-20.4,0-29.7,0.7
	c-10.5,0-14.2-2.9-24.1-7.2c-8.7-3.6-20.4-1.4-29.7-2.1c-13.6,0-18.5-0.7-29.7-8.6c-13-8.6-24.8-7.9-39-7.9
	c-6.8,0-17.9-2.2-22.9,2.9c-5.6,5,0.6,8.6-8,10.8c-3.7,0.7-9.3-2.1-13-2.1c-8,0-6.8,3.6-13,5.7c-8.6,2.9-13.6-5-19.2-10
	c-10.5-9.2-27.8-15.7-41.4-15c-4.9,0.7-8.6,5-14.8,5.7c-8,0.7-16.1-5-24.7-5.7c-14.2-0.7-30.3,9.3-43.9,4.3
	c1.9-8.6,14.2-4.3,14.2-15.1c0-8.6-9.3-10-14.9-9.3h0.6c-6.8,0-13,2.9-18.5,2.2s-13.6-4.3-18.6-6.5c-6.2-2.1-10.5-7.2-17.3-3.6
	c-6.2,2.9-4.3,7.9-8.6,10.8c-3.7,2.1-8.7,1.4-12.4,1.4c-7.4,0-13.6,0-20.4,2.1c-3.1,0-8,1.4-11.1,2.2c-7.4,2.9-4.3,2.9-8.7,7.2
	s0,4.3-7.4,6.5c-3.1,0.7-7.4-1.4-10.5,0c-13.6,5,1.9,6.5,2.5,15.1c-5.6,2.2-40.8-8.6-39,5.8c0.6,2.1,7.4,8.6,9.3,10.1
	c1.2,0.7-0.6,4.3,1.2,5.7c2.5,2.2,6.2,0.7,8.1,2.2c4.9,3.6,4.3,0.7,4.3,9.3c0,3.6,0.6,7.9-1.2,10.8c-5.6,7.2-19.2,3.6-19.2-5.7
	c0-5,3.7-7.2,3.1-12.9c-1.2-5-7.4-12.2-9.3-15.8c-5.6-9.3-7.4-18.7-18.6-17.9c-12.4,0.7-16.1,9.3-7.4,19.4
	c4.3,4.3,19.1,17.2,4.3,15.8c-8-0.7-13.6-10-22.3-10.8c-11.1-0.7-14.8,7.2-23.5,10.8c-6.8,2.9-18.6,0-26,0s-42.1,16.5-43.9,13.6
	c-1.2-3.6,6.2-5.7,5-9.3s-8.7-5-11.8-3.6c-13,5.8,5,12.2-4.9,20.8c-2.5,2.9-8-0.7-11.7,1.4c-5,2.9-3.1,6.5-5.6,8.6
	c-6.8,7.2-9.9,0-18.5,0c-5,0-1.9,5.7-9.3,2.1c-0.6,0-8-8.6-8-10.1c-0.6-7.2,11.8-3.6,17.3-3.6s17.3,2.9,19.2-4.3
	c3.1-10-11.7-11.5-16.7-13.6c-13.6-5-30.3-9.3-42.7-14.4c-6.2-2.1-9.9-7.2-17.9-5.8v-0.7c-17.9-0.7-30.9,5-48.2,8.6
	c-15.5,3.6-24.8,29.4-36.5,42.4c-5.9,6.6-13,11.9-21,15.8c-10.5,5-17.9,2.9-20.4,17.2c-1.2,7.2,0.6,20.1,5.6,25.1
	c7.4,7.9,13.6-0.7,20.4-4.3c9.9-5.7,13-2.1,16.7,9.3c1.2,3.6,5,24.4,6.2,25.1c5,4.3,20.4-7.9,21.7-12.9c1.8-3.6-0.6-9.3,1.2-12.9
	c1.9-5,6.8-5.7,8.7-10c5.6-12.2-8-15.8-4.9-28c3.1-11.5,14.2-10,19.8-17.2c5.5-6.5,6.2-18.7,16.1-15.1c13,4.3-1.3,14.4-6.2,20.8
	c-11.1,14.4-1.9,35.9,14.2,30.9c5.6-2.2,14.2-7.9,20.4-5.7c10.5,3.6,5.6,12.2-3.1,13.6c-5,0.7-14.2-5-18,0.7c-4.3,7.9,5,5.8,4.3,10
	c-1.8,7.2-5.6,5-9.9,6.5c-4.9,1.4-6.2-2.9-9.9,5c-1.2,2.9,0.6,8.6,0,11.5c0-0.7-8.7,10.1-7.4,9.3c-8,5-3.1-2.1-9.9-2.9
	c-8.7-0.7-14.2,10.8-22.9,10.8c-6.2,0-5.6-5.7-9.9-7.2c-5.6-1.4-8.7,3.6-13.6,2.9c-15.4-0.7-7.4-10.1-6.8-19.4
	c1.2-14.4-11.7-10.1-13.6,0.7c-1.2,7.2,8,16.5,1.9,23c-3.7,5-16.7,2.9-22.9,8.6c-5.6,5-10.5,12.9-16.7,17.2
	c-3.1,2.9-6.8,4.3-9.3,7.2s-3.7,10-7.4,11.5c-4.3,0.7-17.3-15.1-14.8,2.2c-6.2,1.4-16.7-2.2-18.6,6.4c-3.1,11.5,6.8,7.2,11.8,9.3
	c9.9,4.3,20.4,31.6,4.9,37.3c-11.7,4.3-30.9-7.2-43.3,0c-7.4,4.3-4.3,14.3-4.9,23c-1.2,9.3-4.9,12.2-8.7,19.4
	c11.8,5.8-2.5,18,12.4,20.8c8.6,1.4,16.1-2.9,19.8,9.3c6.8-8.6,9.9-1.4,17.9-4.3c6.2-2.2,3.7-4.3,8.7-9.3c3.1-3.6,9.3-5,11.1-8.6
	c1.2-3.6-1.9-10.8,0-15.1c1.2-4.3,4.9-7.1,8.1-9.3c9.9-6.5,10.5-3.6,15.4-15.1c3.7-8.6,2.5-9.3,12.4-8.6c3.7,0,8.7,2.1,12.4,0.7
	c1.9-0.7,1.2-5,2.5-5c3.1-1.4,5,0.7,7.4,0c8-2.2,14.8-5,19.8,6.4c1.9,4.3-0.6,10,2.5,14.4c1.9,1.4,9.9,3.6,11.7,4.3
	c3.7,2.1,13,4.3,15.5,7.2c3.7,5,1.2,10.8,2.5,16.5c5.6,25.1,4.9-15.8,14.8-10.8c5-11.5-29.7-28-34-37.3c-4.3-8.6-3.1-23,7.4-16.5
	c3.7,2.1,5.6,10.8,8.7,13.6c3.7,3.6,7.4,2.9,11.1,5.8c6.2,3.6,14.2,10.8,17.3,18c1.2,3.6,1.2,5.7,1.9,9.3c1.2,5.7,0.6,7.2,3.1,11.5
	c1.9,4.3,6.2,7.9,7.4,11.5c1.2,2.9,3.1,12.9,4.9,14.4c7.4,7.2,14.2-6.4,14.2-12.9c0-5.7-5-13.6-3.1-19.4c2.5-7.2,13-5,19.2-5.7
	c3.1,5,0,8.6,0.6,14.3c0.6,6.5,4.3,9.3,6.8,15.1c1.8,3.6,3.1,7.9,6.8,10c1.8,1.5,4.3,0,6.8,0.7c0,0,6.2,4.3,5.6,4.3
	c5,0.7,5.6-2.1,11.1-2.9c5-0.7,8.1,3.6,13,3.6c6.8-0.7,16.7-12.9,22.3-1.4"/>
<path class="st0" d="M1956.5,239.5c-2.8,2.1-3.7,4.8-7.2,6.2c-3.7,1.3-8.1,0.5-11.6,2.4c-4.9,2.7-2.5,5.6-2.3,10.5
	c0.2,3.8-1.4,7.8-5.3,7.3c-7.7-1.3-8.1-15-15.3-17.2c-11.6-3.2-16,13.5-20,22.6c-1.8,4.6-5.3,8.4-6.5,13.2
	c-1.2,5.4,2.1,7.8,4.9,11.9c2.3,3.5,5.1,10.5,9.7,8.1c1.6-0.8,2.3-3,4.6-3.8c3-0.8,6,1.1,9,0c2.3-0.8,4-3.8,5.8-5.4
	c2.6-1.8,5.7-2.8,8.8-3c7.2-0.8,14.6,3.2,20.7,7c5.6,3.2,10.2,6.7,16.4,5.1c4.4-1.4,11.6-2.2,14.8-5.9c6.5-8.1-3.7-17.2-9-21
	c-4.6-3.2-9.8-5.6-14.6-8.3c-2.6-1.4-7.9-3-9.3-5.9c-3-7.5,5.6-6.2,8.1-9.4C1961.6,250,1962.3,239.7,1956.5,239.5"/>
<path class="st0" d="M1681.7,142.1c-1.1,0-3.5-0.5-3.7-1.9c-0.7-3,2.8-2.4,3.5-4c2.6-5.7-8.1-5.7-10.7-3.8
	c-6.2,3.8-7.4,18.8-4.9,25.6c2.1,5.7,9,8.6,13,11.6c2.1,1.9,6.5,8.9,4.4,12.1s-6.7-0.5-9,3c-2.6,3.2-3.7,10-0.7,12.7
	c1.4,1.3,4,0,3.5,3.2c-0.2,2.4-3.5,2.1-4.9,2.9c-3,1.1-5.8,3.8-4.6,8.4c1.9,7,7.4-1.6,10.7-3c5.3-2.4,9.5,1.9,14.4,1.1
	c2.8-0.3,3.3-2.7,5.1-3.8c1.9-1.4,3.7-0.3,5.6-0.8c4.7-1.3,2.1-5.7,4.7-9.7c1.2-1.9,3.5-1.9,3.7-4.6s-2.1-5.1-3.7-6.5
	c-1.8-1.6-4.2-2.1-5.8-4c-2.1-2.1-3-5.4-4.6-8.1c-2.6-4.3-9.8-8.3-10.4-14c-1-6.7,5.1-4.3,7-8.6c4-8.9-8.3-7.5-11.6-7.5"/>
<path class="st0" d="M1651.3,164.1c-4.4,2.1-3.9,7-8.6,7.8c-4.4,0.8-7.9,0.3-7.9,7c0,4,4.9,5.9,3.7,9.7c-1.2,4-6.5,2.4-5.6,8.3
	c1.6,11,13.9-0.5,18.1-1.6c3.7-0.8,7.2,0.3,9.5-4.6c1.8-3.8-0.7-7.5,0.4-11.6c1.9-5.9,5.8-6.2,1.4-12.4
	C1658.5,161.4,1656.5,161.7,1651.3,164.1"/>
<path class="st0" d="M1759.2,301.4c-6.5,0-5.8,5.7-6.3,11.3c-0.5,6.2-0.7,10.8,6.3,10.5c6.7-0.5,7.4-5.1,7.4-11.9
	c0-5.4-0.2-10.5-6.5-10"/>
<path class="st0" d="M1757.8,286.1c-7.2,1.1-1.2,12.1,4.7,8.4c4.2-3,0.2-10-4.2-8.6"/>
<path class="st0" d="M1797.4,330.2c-3.9,0-14.4-3-13.9,4.3c0.2,3.5,1.9,3.8,4.4,4.9c3.5,1.4,2.8,1.9,5.1,4.6
	c9.3,11.8,13.2-15.3,4.2-14"/>
<path class="st0" d="M1686,276.3c-0.6,14.3,8.7,4.3,13.6,5c7.4,0.7,10.7,11.5,18.7,10"/>
<path class="st0" d="M1636.5,291.4c4.9,3.6,10.5-1.4,13.6,1.4c8.7,5.8-1.9,8.6-3.7,14.4c-3.1,10,1.2,22.2-6.8,31.6"/>
<path class="st0" d="M1876.4,114.1c3.1-8.6,14.2-10,15.5-18c1.2-5.7-2.5-5-4.3-9.3c-1.9-5-1.9-7.9-3.1-12.9
	c-1.7-8.1-4.6-15.8-8.7-23c-8.7-15.1-1.2-6.5,3.7-19.4"/>
<path class="st0" d="M1872.7,39.4c-1.9-4.3-8-10-12.4-10c-5.6,0.7-4.3,3.6-8,7.2c-10.5,10.8-8.7,0.7-20.4,2.2
	c-13.6,1.4,1.2,7.9,5.6,12.9c7.4,7.2,6.8,10.8,4.3,21.5"/>
<path class="st0" d="M1825.1,43c-4.3,2.9-8.7,0-12.3,2.2s-5.6,7.9-8.7,10.8c-3.1,4.3-7.4,5-10.5,10c-1.8,3.6-1.8,10-4.3,14.4
	c-5.6,10-14.8,9.3-13,22.2c1.9,8.6,10.5,20.1-2.5,26.6"/>
<path class="st0" d="M1875.8,127c-0.6,8.6-0.6,15.1,2.5,22.2c5.6,14.4,11.1,2.2,20.4,9.3c4.3,2.9,1.9,5.8,4.3,8.6
	c1.9,2.1,9.9,6.5,10.5,9.3c3.1,10-8.7,5-9.3,15.1c8.7,2.2,15.5,1.4,21.7,6.5c4.3,5,8.7,15.1,16.7,18c7.4,2.1,18-7.9,24.1,1.4
	c8.7,12.2-8,14.4-8.7,24.4"/>
<path class="st0" d="M1714.4,205.2c8,1.4,6.8,11.5,15.5,13.6c6.2,1.4,21-4.3,21.7,9.3c0.6,6.5-5,8.6-8,12.9c-0.6,1.4,0.6,5.8,0,7.9
	c-0.6,1.4-5.6,0-5.6,2.1c0,5.8,4.3,7.2,6.2,12.9c0.6,2.9,0,7.9,0,11.5"/>
<path class="st0" d="M1742.9,258.4c6.2,0,6.2-7.2,11.7-9.3c2.5-0.7,5.6,2.9,8.1,2.1c3.7-0.7,4.3-2.1,6.8-3.6
	c7.4-3.6,23.5-8.6,21,9.3"/>
<path class="st0" d="M1748.4,233.9c6.8,4.3,29.1-2.1,27.8,9.3"/>
<path class="st0" d="M1739.2,217.4c-0.6-12.2,12.4-23.7,4.9-35.2"/>
<path class="st0" d="M1724.9,195.9c3.1,7.2,8,12.2,14.8,10.1"/>
<path class="st0" d="M1774.4,239c3.7-9.3,13-4.3,16.7-14.4c-3.1-0.7-11.1-4.3-11.8-8.6c-0.6-6.5,7.4-7.2,11.1-10
	c10.5-9.3,0.6-15.8,3.7-29.4"/>
<path class="st0" d="M1794.2,201.6c5.6,0.7,9.3,5.8,14.2,7.9c4.3,1.4,12.3-0.7,13,7.2c0.6,14.3-22.9,9.3-30.3,9.3"/>
<path class="st0" d="M1789.2,246.9c13.6-2.1,20.4,0,22.3-18.7"/>
<path class="st0" d="M1794.8,262.6c3.7-7.2,16.1-10,12.4-20.1"/>
<path class="st0" d="M1807.8,247.6c3.7,5.7,24.1,5.7,19.8,14.3c-4.9,10.8-17.3-7.9-17.3,13.7"/>
<path class="st0" d="M1827,264.8c9.9,7.2-0.6,13.6-2.5,21.5"/>
<path class="st0" d="M1829.4,289.9c8.7-7.2,8.7,2.1,11.8,9.3c3.1,7.9,6.8,8.6-3.1,15.8"/>
<path class="st0" d="M1844.3,307.9c9.9-0.7,11.1-12.9,19.8-13.6c6.2,0,17.3,4.3,14.2,12.2"/>
<path class="st0" d="M1880.8,312.2c4.3-4.3,11.7-2.9,13-11.5"/>
<path class="st0" d="M1857.3,297.1c-1.2-12.9-9.9-7.9-16.7-4.3"/>
<path class="st0" d="M1852.3,288.5c3.1-15.8-13-45.2-26.6-31.6"/>
<path class="st0" d="M1812.1,233.2c5.6,6.4,7.4,0.7,13-0.7c5.6-2.2,9.3-2.9,15.5-2.2c7.4,0,6.2,1.4,9.9-4.3c0.6-0.7,0-5.8,0.6-7.2
	c1.2-2.9,5-3.6,6.2-6.5c2.5-7.9-3.1-17.9-3.7-25.8c-1.2-12.9-3.7-19.4-15.5-24.4"/>
<path class="st0" d="M1830.1,170.8c5.6,3.6,24.1,6.5,29.7,5c6.8-1.4,6.8-7.2,11.1-11.5c3.1-4.3,6.8-6.5,11.2-10.1"/>
<path class="st0" d="M1839.3,153.6c9.3-0.7,29.7-5,32.8,8.6"/>
<path class="st0" d="M1859.7,139.9c4.3,2.2,13.2,2.9,17.5,0.7"/>
<path class="st0" d="M1857.9,198.1c4.3-2.9,9.3-5.7,14.8-5c6.2,1.4,6.2,5,11.8,8.6c2.5,0.7,16.1,3.6,17.9,2.2
	c5.6-4.3-3.3-8.6,3.5-12.2"/>
<path class="st0" d="M1838.7,254.1c0-1.4,9.9-25.1,10.5-25.8c1.2-2.1,10.5,5.7,11.2,5.7c3.7,0.7,11.1,0,14.8-0.7
	c7.4-2.2,21.6-10.8,24.8,6.4c1.8,12.2-16.1,13.6-0.6,21.5"/>
<path class="st0" d="M1878.3,233.2c11.7,2.2,4.9,25.8,15.5,23.7"/>
<path class="st0" d="M1851.1,274.1c8.1,2.9,11.1-0.7,18.6-1.4c6.8-0.7,15.7,5.8,23.7,2.2"/>
<path class="st0" d="M1753.4,340.2c0.6,12.2,1.2,16.5-2.5,25.8c-4.9,12.2-2.5,10,5,21.5c5.6,8.6,6.8,15.8,8,25.1
	c1.2,8.6,6.8,18,6.2,27.3c-1.9,12.2-9.9,15.8,0,27.2c5.6,5.8,15.5,14.4,21.7,17.2c8,2.9,14.8-2.9,22.9-2.1c6.8,0.7,15.5,8.6,21,12.2
	c9.9,6.5,22.9,12.9,30.9,20.8c8.7,7.9,5,11.5,3.7,23.7c-0.6,5.7,0.6,10.8-1.2,15c-1.9,3.6-5.6,7.2-7.4,11.5
	c-3.7,9.3-4.9,15.1-1.2,24.4c2.5,5,4.9,9.3,6.8,14.3c1.9,5.7,1.2,10.8,2.5,16.5c3.1,10,12.4,14.3,18.5,22.2s8.7,16.5,17.3,22.2
	c5,3.6,5,2.9,10.5,4.3c5.6,0.7,7.4,1.4,13,3.6c4.3,1.4,6.8,4.3,11.8,2.9s5.6-5.8,8.6-7.9c5-2.1,13,0,14.8-5.7
	c5.6-18.7-29.1-23-17.9-45.2c4.3-8.6,6.2-12.2,7.4-22.2c1.2-12.9,5.6-10.1,10.5-20.1c3.7-6.5,1.9-18,3.7-25.1
	c1.8-8.6,10.1-9.3,15-15.8"/>
<path class="st0" d="M1762.7,409.8c1.8-5.8,6.8-9.3,9.3-12.9c0-0.7,0-5.8,1.2-7.2c1.2-2.9,3.7-5,5.6-7.2"/>
<path class="st0" d="M1874,394.7c1.9,21.5,1.2,46.6,1.9,68.2c0.6,12.2,8,54.5-8,53.1"/>
<path class="st0" d="M1879.5,491.6c15.5,2.9,34.6,0,50.7,0c8,0,15.4,5,21,0c5-4.3,2.5-11.5,9.9-12.2"/>
<path class="st0" d="M1802.3,483.7c0.6,3.6-0.6,12.9,0.6,15.8s4.9,3.6,6.2,8.6c1.9,5.8,1.9,24.4,1.2,30.9
	c-1.2,12.2-8.7,10.8-13.6,20.1c-1.9,2.9-3.7,10.1-3.1,13.7c1.2,6.4,4.9,4.3,7.4,10c1.9,2.9,1.2,8.6,2.5,12.2c1.2,5,4.3,5.8,4.3,11.5
	c-0.6,15.8-16.7,3.6-3.7,20.8c7.4,9.3,8,8.6,18.5,6.5c2.5,0,8.7,0.7,10.5-0.7c3.7-3.6,1.2-10,3.7-13c5.6-7.2,13-2.2,17.9-7.9
	c3.7-5,0-13.7,8.7-11.5"/>
<path class="st0" d="M1678.6,358.1c-0.6,9.3,9.3,26.5,2.5,33.7c-4.3,5-14.2,0-19.2,5c-3.1,3.6-3.7,10-8,14.4c-3.7,5-9.3,5-14.2,7.2
	c-8,3.6-5.6,5.7-11.1,12.2c-6.8,8.6-16.7,5-27.2,5"/>
<path class="st0" d="M1627.2,433.5c0,15.8,1.2,20.1-12.3,19.4c-14.2-0.7-13,4.3-13.6,18.7c0,1.4,0.6,5,0,6.5c-1.2,2.9-3.7,3.6-4.3,5
	c0,0.7-2.5,3.6-3.7,5c-1.2,2.2,0.6,5.7-0.6,7.9c-3.7,6.5-17.9,3.6-25.3,3.6"/>
<path class="st0" d="M1627.9,439.2c13,14.3,26,28,40.2,40.9c13,10.8,34,17.2,44.5,30.9c3.7,4.3,2.5,13.6,8.7,14.3
	c5.6,0.7,6.2-5,9.9-7.2c3.1-2.1,8.1-0.7,11.1-2.9c3.7-2.1,3.7-9.3,6.8-12.9c3.1-4.3,6.8-5.8,10.5-7.9c7.4-5,13.6-11.5,20.4-15.8"/>
<path class="st0" d="M1922.8,671.1c0.6,7.9,6.2,20.8,4.3,25.8c-0.6,3.6-6.8,5-8.7,9.3c-1.2,3.6,0.6,8.6-0.6,12.2
	c-1.9,4.3-6.2,6.5-7.4,10.8c-0.6,3.6,1.2,7.9,1.2,10.8c0,9.3,1.2,15.1,3.7,23.7c1.2,5.8,3.7,13.7,4.9,20.1
	c1.2,14.4-1.9,5.7-9.3,12.9c-5.6,5-6.8,16.5-5.6,23.7c1.2,9.3,11.1,14.3,9.3,23c-11.2,4.3-11.2-10-17.9-14.3
	c-3.7-1.4-8,0.7-11.1-0.7c-4.3-1.4-6.8-5.8-11.1-7.2c-6.8-1.4-15.5,4.3-19.8-3.6c-3.7-7.2,4.3-24.4,0-30.9c-1.8-3.6-5.6-2.9-9.3-2.9
	c-7.4,0-3.1,1.5-8.7,5c-8.7,4.3-12.4,4.3-16.7-6.5c-1.9-5,1.2-7.1-3.7-10.8c-1.8-1.4-9.3,0.7-12.3,0.7c-6.2,0-13-0.7-19.2,0.7"/>
<path class="st0" d="M1814,995.5c9.9-2.9,17.3,11.5,24.1-2.9c3.1-6.5,1.2-17.2,1.2-23.7c0-10-0.6-19.4,0.6-28.7
	c1.2-10.8,6.8-12.9,8.7-23.7c1.2-10-2.5-17.9,6.8-21.5c5-1.4,17.3,4.3,20.4-0.7c8-12.2-10.5-8.6-13.6-7.2c-8.5,2.3-17.3,2.8-26,1.4
	c-18.6-2.9-37.1-1.4-55.7-3.6"/>
<path class="st0" d="M1864.1,885.7c-2.5-6.5-6.2-7.9-8-15.1c-1.2-5-0.6-15.8,0.6-20.8c2.5-10,3.7-3.6,9.9-10c4.3-4.3,5-10,6.2-17.2"
	/>
<path class="st0" d="M1876.5,890.7c8.7,1.4,14.2,0,21-5c5.6-4.3,12.4-16.5,17.3-18.7c6.2-2.2,21,8.6,23.5,14.3
	c2.5,6.5,1.2,20.1,0.6,26.6c-0.6,8.6-3.1,21.5-9.9,26.5c-3.7,2.2-18.5,2.9-22.3,0.7s-13.6-17.2-15.4-22.2c-1.2-4.3,0-8.6-2.5-12.2
	c-3.1-5-9.3-0.7-8.7-9.3"/>
<path class="st0" d="M1839.4,962.5c14.2-2.2,3.7,15.8,11.7,18.7c11.1,5,7.4-16.5,18.6-15.8c5.6,0.7,4.3,8.6,12.4,3.6
	c4.3-2.2,3.7-7.2,6.2-10.8c4.3-7.2,13.4-14.3,16.7-23"/>
<path class="st0" d="M1922.8,935.2c3.7,10.1,7.4,22.3,3.7,31.6c-2.5,5.7-8,4.3-6.8,12.2c0.6,5.7,4.3,8.6,9.3,6.4"/>
<path class="st0" d="M1902.4,999.1c-6.2,0.7-17.3,18.7-5.6,20.8c6.8,1.4,15.4-18,6.8-20.8"/>
<path class="st0" d="M1918.5,868.5c5.8-14.3,24.8-22.2,31.6-8.6c3.7,7.2-5,13.6,1.9,18c9.9,7.2,11.1-7.9,9.9-15.1
	c-1.9-11.5-16.7-23.7-5.6-32.3c10.5-9.3,34.8,7.9,41.6-9.3"/>
<path class="st0" d="M1945.7,709.8c-9.3-1.4-8.7,4.3-14.2,8.6s-9.3,4.3-16.1,4.3"/>
<path class="st0" d="M1914.8,757.9c14.2-0.7,11.1-24.4,11.1-35.9"/>
<path class="st0" d="M1911.7,739.3c4.3-2.9,8.7-6.5,14.2-7.2"/>
<path class="st0" d="M1897.5,658.2c-7.4,3.6-13,1.4-19.8,3.6c-9.9,2.9-14.2,13.7-24.7,7.9c-6.2-3.6-13.6-15-21-3.6
	c-4.3,5.8-1.2,18.7-2.5,25.8s-0.6,20.1-3.1,26.5c-3.1,10-11.7,11.5-14.8,23.7c-2.5,10.8-0.6,15.8-11.8,17.2
	c-3.1,0.7-6.2-1.4-8.7-0.7c-3.1,0-7.4,3.6-11.1,4.3"/>
<path class="st0" d="M1775,750.7c10.5-4.3,2.5-12.9,7.4-17.9c4.9-5.7,9.9,3.6,13.6,1.5c9.3-2.9,6.8-27.3,3.1-33.8
	c-1.8-3.6-13-4.3-8.7-12.2c3.7-7.2,14.2,2.9,16.1,3.6c17.3,3.6,4.3-19.4,22.9-17.2"/>
<path class="st0" d="M1807.8,633.8c-3.7,12.9-14.8,16.5-8.7,29.4c2.5,5,6.8,9.3,9.3,13.6s0,8.6,6.8,10.8"/>
<path class="st0" d="M1788.7,690.5c-6.8-13.6-10.5,5-12.4,7.9c-3.7,5.8-13.6,2.9-17.3,10.8"/>
<path class="st0" d="M1764.5,691.2c4.3-2.9,9.9-2.9,13.6,1.5"/>
<path class="st0" d="M1801,588.5c-1.2,10.8-8.7,13.7-13,21.5c-4.3,8.6-3.1,18.7-8,27.3c-6.8,10.8-9.3,4.3-17.3,8.6
	c-7.4,5-4.3,13.6-6.8,21.5"/>
<path class="st0" d="M1793.6,575.6c-8-2.2-13,5.8-19.8,7.2c-4.3,0.7-15.5,1.4-19.8,0c-10.5-2.9-22.3-23-32.2-6.5
	c-1.9,3.6-4.3,15.8-4.3,20.1c-0.6,6.5,3.1,12.2,1.9,18c-1.9,6.5-8.1,8.6-9.3,16.5c-0.6,7.2,3.7,11.5,4.3,17.9"/>
<path class="st0" d="M1648.3,460.1c-14.8,1.4-8.7,15.8-8,28.7c0.6,16.5,0.6,28.7,4.3,43.8c3.1,11.5,7.4,23-3.7,25.8
	c-8.7,2.2-17.9-2.9-27.2-1.4c-9.9,2.2-16.7,2.9-14.2,15.1c1.2,6.4,4.3,21.5,8.7,22.2c10.5,2.1,11.7-12.2,17.9,5.7
	c1.9,5.8-0.6,7.2,4.3,10.8c0.6,0.7,12.4,1.4,13,1.4c6.2-2.2,5.6-5.8,7.4-11.5c3.1-8.6,4.3-13,9.9-19.4c1.9-2.9,4.3-2.9,6.2-5.8
	c1.2-1.4,0-5,1.8-7.2c5-6.4,10.5-5.7,17.3-6.4c10.5-0.7,24.8,1.4,32.2-5c11.1-8.6,3.7-22.2,4.3-34.4"/>
<path class="st0" d="M1565.4,544.7c6.8-1.4,14.2-2.1,19.8,4.3s3.1,14.4,13.6,15.1"/>
<path class="st0" d="M1692.2,562c-1.2,12.2,2.5,12.2,8.7,17.9c1.2,0.8,4.3,0.8,5.6,2.2c1.8,1.4,1.2,5.7,1.8,6.4
	c2.5,1.4,8.2,2.9,11.3,2.2"/>
<path class="st0" d="M1707.6,587.1c-6.8,20.1-42.7,6.5-42.7,25.1c-0.6,4.3,3.7,7.2,3.7,10.8c1.2,6.4-0.6,7.9-1.8,14.3
	c-1.2,5-3.1,6.5-2.5,12.2c1.2,5.8,5.6,7.2,5,14.4"/>
<path class="st0" d="M1687.2,599.3c1.2,10.8,5.6,20.8,8,30.8c1.2,7.9-0.6,17.2-1.2,24.4"/>
<path class="st0" d="M1695.9,597.2c0,12.2,4.3,18.6,6.8,28.7c1.2,7.2,0,16.5,0,23.7"/>
<path class="st0" d="M1665.6,615.1c-9.9,1.4-11.7,1.4-18.5-6.5"/>
<path class="st0" d="M1628.5,610c3.1,5.8-1.2,9.3-0.6,14.4c0.6,2.9,6.2,3.6,6.2,6.5c-0.6,3.6-5,2.9-6.2,5.8
	c-3.7,6.5-6.8,5.8-1.9,12.9c3.7,5.8,13,3.6,8,15.1"/>
<path class="st0" d="M1624.8,639.5c-16.1-3.6-18.5-50.2-35.2-19.4"/>
<path class="st0" d="M1612.4,628.7c-1.8,5.6-4.3,10.9-7.4,15.8"/>
<path class="st0" d="M1603.1,588.5c-5.6,3.6-11.1-5-16.7-1.4c-3.7,2.9-1.2,7.2-3.1,10c-1.2,2.9-4.3,2.2-6.2,6.5"/>
<path class="st0" d="M1585.8,585.7c-7.4-7.9-9.9-18-21.6-9.3"/>
<path class="st0" d="M225,856.1c161.2,71.5,346,83.7,507.8,33.5C828.4,860,917,808.4,980.3,734c31.2-36.7,56.6-79.9,62.5-128.2
	s-10.2-102.4-49.5-135.5c-39.8-33.5-100.3-40-142.9-15.4c-17.4,10-32,25.1-38.7,43.9c-10.2,28.7-0.4,62.4,18.3,88.5
	s45.2,46,71.8,64.5c43.5,30.2,95.3,59.2,145.1,48.4c22.1-4.8,41.3-17.1,58.4-30.9c112.3-90.1,152.8-242.1,252.5-345.2
	c97.3-100.7,251-146.5,396.2-118"/>
<path d="M201,864.2c-11.7-0.1-21.1-9.6-21-21.3c0.1-11.7,9.6-21.1,21.3-21c11.7,0.1,21.1,9.6,21,21.3c0,0,0,0,0,0
	C222.2,854.9,212.7,864.3,201,864.2z M192.2,843.1c0,4.5,0,9,0,13.5c0,1.4,0.4,2.1,2,2c2.6-0.1,5.1-0.1,7.7,0
	c1.7,0.1,2.1-0.6,2.1-2.2s-0.4-2.3-2.1-2.2c-1.2,0.1-2.4,0-3.6,0c-1.7,0.1-2.5-0.5-2.4-2.3c0.1-1.3,0-2.6,0-3.8c0-4.3-0.2-4,3.9-4
	c1.4,0,2.2-0.3,2.2-1.9s-0.8-1.8-2.1-1.8c-0.7,0-1.4,0-2,0c-1.3,0-2-0.5-2-1.9c0-1.8,0-3.5,0-5.3c0-1.3,0.5-1.9,1.8-1.8
	s2.9-0.1,4.3,0c1.7,0.1,2-0.7,2-2.2s-0.4-2.1-2-2c-2.5,0.1-5,0.1-7.5,0c-1.8-0.1-2.3,0.7-2.3,2.4
	C192.3,834.2,192.3,838.7,192.2,843.1L192.2,843.1z M206.1,843.1c0,4.4,0,8.9,0,13.3c0,1.3,0,2.3,1.9,2.3s2-0.8,2-2.2
	c0-9,0-17.9,0-26.8c0-1.5-0.3-2.2-2-2.2s-1.9,0.8-1.9,2.1C206.1,834.1,206.1,838.6,206.1,843.1L206.1,843.1z"/>
<path d="M1768,223.2c-11.8-0.1-21.2-9.7-21.2-21.5c0,0,0,0,0,0c0.3-11.8,9.6-21.2,21.3-21.2c11.8,0,21.3,9.6,21.3,21.4
	C1789.4,213.7,1779.8,223.3,1768,223.2z M1759.3,202c0,4.6,0,9.1,0,13.7c0,1.5,0.5,2.1,2,2c2.6-0.1,5.3-0.1,7.9,0
	c1.5,0,1.8-0.7,1.8-2s-0.1-2.5-1.9-2.4c-1.4,0.1-2.8,0-4.3,0s-2-0.6-2-1.9s0-2.6,0-3.9c0-4.2,0-4.2,4.2-4.4c1.2,0,1.9-0.3,1.9-1.7
	s-0.5-2-1.9-2c-0.8,0-1.6,0-2.4,0c-1.2,0-1.8-0.5-1.8-1.7c0-1.9,0-3.8,0-5.7c-0.1-0.8,0.4-1.5,1.2-1.6c0.1,0,0.3,0,0.4,0
	c1.6,0,3.1-0.1,4.7,0c1.7,0.1,1.8-0.9,1.8-2.2s-0.2-2.1-1.8-2c-2.5,0.1-5,0.1-7.5,0c-1.8-0.1-2.5,0.5-2.5,2.4
	C1759.3,193,1759.3,197.5,1759.3,202z M1773.1,201.9c0,4.5,0,9,0,13.4c0,1.3,0,2.4,1.9,2.4s2-0.8,2-2.2c0-9,0-18.1,0-27.1
	c0-1.5-0.3-2.2-2-2.2s-1.9,1-1.9,2.4C1773.1,192.9,1773.1,197.4,1773.1,201.9L1773.1,201.9z"/>
<path class="st1" d="M208,827.2c-1.5,0-1.9,0.7-1.9,2.1c0,4.5,0,9,0,13.4l0,0c0,4.7,0,9.4,0,14c0,1.3,0.4,2,1.9,2c1.5,0,2-0.5,2-2
	c0-9.2,0-18.3,0-27.5C210,827.8,209.6,827.3,208,827.2z"/>
<path class="st1" d="M201.2,854.4c-6.1-0.1-5.2,0.6-5.3-5.3c0-4.4,0-4.5,4.5-4.8c1.3-0.1,1.6-0.7,1.6-1.9c0-1.1-0.4-1.7-1.6-1.8
	c-4.5-0.4-4.5-0.4-4.5-4.9c0-0.5,0-1.1,0-1.6c-0.2-1.8,0.5-2.7,2.4-2.5c1.3,0.1,2.7,0,4.1,0c1.6,0.1,1.7-1,1.7-2.1
	c0-1.2-0.1-2.1-1.7-2.1c-2.7,0.1-5.3,0.1-8,0c-1.6,0-2.2,0.5-2.1,2.1c0,4.7,0,9.2,0,13.7c0,4.5,0,9.1,0,13.7c0,1.6,0.6,2.2,2.1,2.1
	c2.5-0.1,4.9-0.1,7.3,0c1.8,0.1,2.4-0.6,2.4-2.4C204.1,854.1,202.7,854.4,201.2,854.4z"/>
<path class="st1" d="M1775,186.2c-1.5,0-1.9,0.7-1.9,2.1c0,4.5,0,9,0,13.4l0,0c0,4.7,0,9.4,0,14c0,1.3,0.4,2,1.9,2s2-0.5,2-2
	c0-9.2,0-18.3,0-27.5C1777,186.7,1776.6,186.2,1775,186.2z"/>
<path class="st1" d="M1768.2,213.3c-6.1-0.1-5.2,0.6-5.3-5.3c0-4.4,0-4.5,4.5-4.8c1.3-0.1,1.6-0.7,1.6-1.9c0-1.1-0.4-1.7-1.6-1.8
	c-4.5-0.4-4.5-0.4-4.5-4.9c0-0.5,0-1.1,0-1.6c-0.2-1.8,0.5-2.7,2.4-2.5c1.3,0.1,2.7,0,4.1,0c1.6,0.1,1.7-1,1.7-2.1
	c0-1.2-0.1-2.1-1.7-2.1c-2.7,0.1-5.3,0.1-8,0c-1.6,0-2.2,0.5-2.1,2.1c0,4.7,0,9.2,0,13.7c0,4.5,0,9.1,0,13.7c0,1.6,0.6,2.2,2.1,2.1
	c2.5-0.1,4.9-0.1,7.3,0c1.8,0.1,2.4-0.6,2.4-2.4C1771.1,213,1769.7,213.3,1768.2,213.3z"/>
</svg>
